<svg width="256" height="256" fill="none" xmlns="http://www.w3.org/2000/svg" viewBox="0 0 256 256"><rect width="256" height="256" rx="60" fill="#f4f2ed"/><path d="M104.05,227.72c-3.35-.8-6.15-2.65-10.07-6.68-6.55-6.72-11.87-9.52-21.11-11.11-9.59-1.65-13.85-5.21-16.41-13.73C53.3,185.7,50,180.67,42.73,175.3c-8.23-6.08-10.35-11.44-8.34-21.17,1.86-9,1.15-15.4-2.63-23.63-4.51-9.83-4-15.07,2.45-23.12,5.88-7.38,7.72-12.25,8.6-22.74s3.83-14.92,12.5-18.43c7.24-2.93,13.43-8,16.86-13.86,4-6.75,4.55-7.53,7-9.36,4-3,7.17-3.78,13.28-3.4,10.61.67,16.3-.61,23.43-5.25,9.29-6.05,14.93-6.05,24.22,0,7.13,4.64,12.81,5.92,23.43,5.25,10-.63,14.21,2,20.33,12.83,3,5.36,9.23,10.58,16,13.48,9.66,4.13,12.46,7.91,13.18,17.71.77,10.62,2.95,16.56,8.71,23.77,6.43,8,7,13.29,2.47,23.12-3.78,8.23-4.5,14.63-2.63,23.63,2,9.73-.11,15.09-8.34,21.17-7.26,5.37-10.57,10.4-13.73,20.9-2.56,8.52-6.82,12.08-16.41,13.73-9.26,1.59-14.58,4.4-21.11,11.13-7.23,7.46-12.42,8.7-22.54,5.35-8.27-2.73-14.64-2.74-22.88,0-5.77,1.89-8.85,2.22-12.55,1.35Z" opacity="0.2" style="isolation:isolate"/><path d="M104.05,225.73c-3.35-.79-6.15-2.65-10.07-6.67-6.55-6.72-11.87-9.52-21.11-11.11-9.59-1.65-13.85-5.22-16.41-13.73-3.16-10.5-6.47-15.54-13.73-20.9-8.23-6.08-10.35-11.45-8.34-21.17,1.86-9,1.15-15.41-2.63-23.64-4.51-9.82-4-15.07,2.45-23.11,5.88-7.38,7.72-12.26,8.6-22.74s3.83-14.92,12.5-18.43c7.24-2.94,13.43-8,16.86-13.87,4-6.75,4.55-7.52,7-9.36,4-3,7.17-3.78,13.28-3.39,10.61.66,16.3-.61,23.43-5.25,9.29-6.05,14.93-6.05,24.22,0,7.13,4.64,12.81,5.91,23.43,5.25,10-.63,14.21,2,20.33,12.82,3,5.36,9.23,10.58,16,13.49,9.66,4.13,12.46,7.9,13.18,17.71.77,10.62,2.95,16.55,8.71,23.77,6.43,8,7,13.28,2.47,23.11-3.78,8.23-4.5,14.64-2.63,23.64,2,9.72-.11,15.09-8.34,21.17-7.26,5.36-10.57,10.4-13.73,20.9-2.56,8.51-6.82,12.08-16.41,13.73-9.26,1.59-14.58,4.4-21.11,11.13-7.23,7.46-12.42,8.69-22.54,5.35-8.27-2.74-14.64-2.75-22.88,0-5.77,1.89-8.85,2.22-12.55,1.34Z" fill="#fff"/><path d="M163.56,118.59a2.56,2.56,0,1,1,3.43,1.19A2.56,2.56,0,0,1,163.56,118.59Zm12.4,25.5a2.57,2.57,0,1,1,3.43,1.18A2.56,2.56,0,0,1,176,144.09ZM177,111a30.24,30.24,0,0,0-28.65-3.52l26.93,55.39a30.28,30.28,0,0,0,14.92-24.72l10.22.73a1.07,1.07,0,0,0,.14-2.13L190.25,136a32.17,32.17,0,0,0-11.52-23.71l5.81-8.6a1.07,1.07,0,1,0-1.76-1.2L177,111" fill="#3ddc84"/><path d="M152.21,131.86a56,56,0,0,1-71.05-19.7,2.54,2.54,0,0,0-3.64-.65l-9.78,7.2a2.57,2.57,0,0,0-.59,3.52,73.26,73.26,0,0,0,92.56,25.16Z" fill="#4285f4"/><path d="M127.84,70.59h5.29V58.9a5.29,5.29,0,1,0-10.58,0V70.59Z" fill="#4285f4"/><path d="M114.07,93.41,77.71,168.26a12.37,12.37,0,0,0-1.25,5.17l-.22,9.8a3,3,0,0,0,4.84,2.36l7.58-6.22a12.35,12.35,0,0,0,3.3-4.18L127.8,101.4l-13.71-8Z" fill="#4285f4"/><path d="M179.24,173.42a12.73,12.73,0,0,0-1.25-5.18L141.62,93.39l-13.72,8,35.85,73.77a12.65,12.65,0,0,0,3.3,4.18l7.57,6.22a3,3,0,0,0,4.85-2.36l-.22-9.8Z" fill="#4285f4"/><path d="M127.84,69.66a15.87,15.87,0,1,0,15.87,15.87A15.88,15.88,0,0,0,127.84,69.66Zm0,24.6a8.73,8.73,0,1,1,8.73-8.73A8.74,8.74,0,0,1,127.84,94.26Z" fill="#073042"/></svg>