<svg width="256" height="256" xmlns="http://www.w3.org/2000/svg" xmlns:xlink="http://www.w3.org/1999/xlink" viewBox="0 0 256 256">
<rect width="256" height="256" rx="60" fill="#1a1a1d"/>
<path d="M100.05,196.86c-8.93-8.17-11.54-25.32-7.82-37.74,6.45,7.83,15.39,10.31,24.65,11.71,14.29,2.17,28.33,1.36,41.61-5.18,1.51-.74,2.92-1.74,4.58-2.75a24.48,24.48,0,0,1,1.13,11c-1.06,9.05-5.56,16-12.72,21.33-2.86,2.12-5.89,4-8.85,6-9.08,6.14-11.54,13.34-8.12,23.81.08.25.15.51.33,1.13a23.88,23.88,0,0,1-10.6-9.07,25.39,25.39,0,0,1-4.09-13.85,61.56,61.56,0,0,0-.37-7.32c-.8-5.87-3.56-8.5-8.75-8.65a10.25,10.25,0,0,0-10.66,8.33c-.09.4-.21.79-.33,1.25Z" fill="url(#astro-dark-linear-gradient)"/>
<path d="M49.08,157.05s26.44-12.89,53-12.89l20-61.87c.75-3,2.93-5,5.4-5s4.65,2,5.4,5l20,61.87c31.4,0,53,12.89,53,12.89l-45-122.61c-1.29-3.62-3.46-5.95-6.4-5.95H100.49c-2.94,0-5,2.33-6.4,5.95C94,34.68,49.08,157.05,49.08,157.05Z" fill="#fff"/>
<defs>
<linearGradient id="astro-dark-linear-gradient" x1="81.83" y1="48.38" x2="168.05" y2="89.12" gradientTransform="matrix(1, 0, 0, -1, 0, 256)" gradientUnits="userSpaceOnUse">
<stop offset="0" stop-color="#d83333"/>
<stop offset="1" stop-color="#f041ff"/>
</linearGradient>
</defs>
</svg>