<svg width="256" height="256" fill="none" xmlns="http://www.w3.org/2000/svg" viewBox="0 0 256 256"><rect width="256" height="256" rx="60" fill="#1a1a1d"/><path d="M189.75,104.27A66.37,66.37,0,0,0,127,58.06a65.15,65.15,0,0,0-57.75,34.3,49.12,49.12,0,0,0-11.85,93l1.23.56h.08v-14A36.64,36.64,0,0,1,74,104.27l3.45-.36,1.51-3.11A52.86,52.86,0,0,1,127,70.5a53.75,53.75,0,0,1,51.87,41.1l1.19,4.7H185a30.47,30.47,0,0,1,29.84,30.35c0,11.59-6.7,21.07-18.09,25.88v13.25l.82-.27c18.32-6,29.69-20.89,29.69-38.86A43,43,0,0,0,189.75,104.27Z" fill="#3448c5"/><path d="M102.88,184.3l2.73,2.73a.53.53,0,0,1,0,.76.57.57,0,0,1-.37.16H83.7a9.87,9.87,0,0,1-9.87-9.87V136.26a.54.54,0,0,0-.54-.54h-4.6a.55.55,0,0,1-.55-.54.54.54,0,0,1,.15-.38l18.29-18.28a.53.53,0,0,1,.76,0h0l18.26,18.28a.53.53,0,0,1,0,.76.57.57,0,0,1-.37.16h-4.66a.56.56,0,0,0-.56.54v41.1A9.88,9.88,0,0,0,102.88,184.3Zm40.4,0L146,187a.53.53,0,0,1,0,.76.55.55,0,0,1-.38.16H124.14a9.86,9.86,0,0,1-9.86-9.87V146.83a.56.56,0,0,0-.55-.56h-4.65a.53.53,0,0,1-.53-.55.56.56,0,0,1,.15-.37L127,127.1a.55.55,0,0,1,.77,0h0L146,145.32a.53.53,0,0,1,0,.76.55.55,0,0,1-.38.16H141a.56.56,0,0,0-.54.56v30.56A9.87,9.87,0,0,0,143.28,184.3Zm40.41,0,2.72,2.73a.53.53,0,0,1,0,.76.57.57,0,0,1-.36.16H164.48a9.87,9.87,0,0,1-9.86-9.87V157.32a.54.54,0,0,0-.54-.54h-4.61a.54.54,0,0,1-.54-.54.51.51,0,0,1,.17-.4l18.28-18.27a.53.53,0,0,1,.74,0h0l18.28,18.27a.55.55,0,0,1,0,.77.56.56,0,0,1-.4.17h-4.69a.54.54,0,0,0-.54.54h0v20A9.84,9.84,0,0,0,183.69,184.3Z" fill="#3448c5"/></svg>