<svg width="256" height="256" fill="none" xmlns="http://www.w3.org/2000/svg" viewBox="0 0 256 256"><rect width="256" height="256" rx="60" fill="#639"/><g id="CSS"><path d="M217.07,166.62c-.58-2.57-.94-4.8-1.62-6.94-1-3.1-3.09-4.45-6.28-4.3s-5.78,1.81-6.4,4.75c-1.48,7-.09,11.72,6.45,14.75,3.5,1.61,7.1,3,10.49,4.82,12,6.41,16.54,15.71,15.33,31.27-.48,6.22-2.35,12.06-7.06,16.52-7.42,7-16.45,8.19-26,6.4-14.26-2.68-18.72-14.48-19.18-25.66,0-.69,1-2,1.62-2.06,5.32-.16,10.64-.09,16.25-.09.26,1.83.45,3.47.72,5.09.88,5.12,5,8,10,6.47a6.67,6.67,0,0,0,3.94-3.55c2.72-8.24,1.12-15-7.56-19.25a125,125,0,0,1-14.81-8c-8.28-5.54-9.62-14.25-9.31-23.36.27-7.84,2.91-14.67,9.28-19.69,13.14-10.38,33.55-5,39.19,10.44,1.16,3.2,1.45,6.73,1.89,10.14.09.68-.9,2.16-1.43,2.17C227.36,166.69,222.15,166.62,217.07,166.62Z" fill="#fff"/><path d="M176.56,166.63c-5.33,0-10.36.07-15.38-.08-.68,0-1.62-1.09-1.91-1.87-.5-1.37-.48-2.91-.89-4.32-1.06-3.69-3.15-5.19-6.67-5a6.67,6.67,0,0,0-6.62,6c-1.06,6.82,1.14,10.76,7.51,13.75,4.28,2,8.6,4,12.69,6.34a23.17,23.17,0,0,1,11.55,15.76c1.54,7.16,1.69,14.35-.69,21.35-3.72,11-14.35,17.11-27.18,15.89-13.92-1.34-21.61-9.1-23.21-23.18-.65-5.77-1-5.27,4.69-5.28,3.36,0,6.72.11,10.08,0,2.2-.09,3.23.53,3.33,2.91a15,15,0,0,0,1.3,5.12c1.28,3,4.12,4.21,7.92,3.85,3.12-.28,4.65-2.15,5.42-5,2.29-8.53-.46-14.37-8.44-18.15-4.09-1.95-8.17-4-12.09-6.26A21.56,21.56,0,0,1,126.8,171.9c-.85-6.53-.88-13,1.91-19.18,2.89-6.42,7.6-11,14.4-12.67,12.57-3.17,23.8-.58,29.72,9.69A29.63,29.63,0,0,1,176.56,166.63Z" fill="#fff"/><path d="M65.28,186.78c0-7.71-.1-15.43,0-23.13.22-13.14,8.12-22.18,21.13-24.2,7.48-1.16,14.81-.79,21.53,3.22,8,4.75,12.84,16.18,11,25.8A2.58,2.58,0,0,1,117,170c-4.94.13-9.89,0-14.83.09-1.9,0-2.27-.9-2.37-2.54a25.15,25.15,0,0,0-.9-6.39c-1.14-3.41-3.8-4.91-7.36-4.72-3.29.18-5.26,1.74-6.2,5.33a23.49,23.49,0,0,0-.81,5.83c-.07,12.75-.09,25.5,0,38.26a23.54,23.54,0,0,0,1.08,6.65,6.69,6.69,0,0,0,6.76,4.79,6.3,6.3,0,0,0,6.49-4.65,26.73,26.73,0,0,0,.94-6.39c.09-1.62.65-2.32,2.29-2.31,4.94,0,9.88,0,14.83,0,2,0,2.09,1.13,2.14,2.68.75,23.08-18.12,30.62-34.38,27.27-12.7-2.62-19.24-10.9-19.42-23.93C65.2,202.2,65.28,194.49,65.28,186.78Z" fill="#fff"/></g></svg>