<svg width="256" height="256" fill="none" xmlns="http://www.w3.org/2000/svg" viewBox="0 0 256 256"><rect width="256" height="256" rx="60" fill="#242938"/><path d="M119.93,117.83a12.45,12.45,0,1,1-12.45-12.45,12.45,12.45,0,0,1,12.45,12.45Zm16.1,0a12.45,12.45,0,1,0,12.45-12.45A12.44,12.44,0,0,0,136,117.83Z" fill="#419eda"/><path d="M220.8,131.35h-2.74a36.1,36.1,0,0,1-15.81-3.68,146.31,146.31,0,0,0,2.12-28,143.75,143.75,0,0,0-18.1-21.45A35.92,35.92,0,0,1,199,64.6l2.34-1.45L199.53,61a95.4,95.4,0,0,0-33.27-24.12l-2.53-1.1-.63,2.68a36,36,0,0,1-9,16.38A143.8,143.8,0,0,0,128,44.12a144.13,144.13,0,0,0-26,10.62A35.89,35.89,0,0,1,93,38.4l-.66-2.68-2.53,1.11A96.23,96.23,0,0,0,56.49,61.17L54.66,63.3,57,64.74a36.05,36.05,0,0,1,12.75,13.6,144.88,144.88,0,0,0-18.1,21.31,146.67,146.67,0,0,0,2.12,28.15,35.69,35.69,0,0,1-15.72,3.65H35.29l-2.76-.34.25,2.74A94.72,94.72,0,0,0,45.53,173L47,175.32l2.13-1.78a35.82,35.82,0,0,1,17-7.95,145.6,145.6,0,0,0,14.45,23.75,146.23,146.23,0,0,0,27.51,6.76,35.81,35.81,0,0,1-2.29,18.76l-1,2.55,2.68.59a95.76,95.76,0,0,0,20.6,2.28L148.65,218l2.68-.59-1-2.55a35.65,35.65,0,0,1-2.28-18.8,146.93,146.93,0,0,0,27.41-6.74A145.24,145.24,0,0,0,190,165.66a35.88,35.88,0,0,1,17,7.94l2.12,1.77,1.4-2.36a94.58,94.58,0,0,0,12.75-39.18l.25-2.74Zm-63.31,33.48a111.32,111.32,0,0,1-59,0,112.92,112.92,0,0,1-18-55.79,112.11,112.11,0,0,1,21.39-20.35A113.77,113.77,0,0,1,128,74.5a112.71,112.71,0,0,1,47.5,34.62,113.76,113.76,0,0,1-5.37,29.07,114.75,114.75,0,0,1-12.64,26.64Z" fill="#419eda"/></svg>