<svg width="256" height="256" fill="none" xmlns="http://www.w3.org/2000/svg" viewBox="0 0 256 256"><rect width="256" height="256" rx="60" fill="#f4f2ed"/><path d="M198.24,68.62h12.31V214.35H70s-6.74-.16-7.94-7.93V170.06l12-7.36h124Z" fill="#923b00"/><polygon points="47.87 57.51 74.34 41.65 74.34 163.15 47.87 179.02 47.87 57.51" fill="#ff9447"/><path d="M74,41.65H190.43s7.16,0,8.15,8.15V163.19H74Z" fill="#ff6b00"/><path d="M135,96.84h1q10.24,0,20.5,0c.43,0,.56.1.56.55,0,3.62,0,7.25,0,10.87,0,.56,0,.56-.58.56H135.62c-.74,0-.68-.1-.68.66v25.8c0,.69,0,.69-.69.69H118.63c-.59,0-.6,0-.6-.59V69.25c0-.61,0-.61.63-.61q20.84,0,41.68,0c.68,0,.72-.09.71.72,0,2,0,4.08,0,6.12,0,1.6-.08,3.19-.1,4.79,0,.46-.2.56-.63.56q-12.37,0-24.77,0c-.64,0-.64,0-.64.66q0,7.4,0,14.8Z" fill="#fff"/><path d="M144.76,181.84c-1.52,0-3,0-4.48,0A1.15,1.15,0,0,1,139,181a2.82,2.82,0,0,0-2.65-1.7,5.87,5.87,0,0,0-2,.18,3.07,3.07,0,0,0-2.28,3.06c-.09,1.14,0,2.3,0,3.53l.42-.32a8.43,8.43,0,0,1,11.29,1.05,6.33,6.33,0,0,1,1.43,3.05,10.93,10.93,0,0,1-.26,5.62,7.92,7.92,0,0,1-5.26,5,12.62,12.62,0,0,1-9.11-.31,7.18,7.18,0,0,1-4.7-6.35,90,90,0,0,1,0-10.77c.24-4.33,3-7.22,7.33-8a13.27,13.27,0,0,1,7.33.68,6.63,6.63,0,0,1,4.33,5.65A5,5,0,0,1,144.76,181.84Zm-5.65,10.62c0-.61-.09-1-.1-1.44a2.69,2.69,0,0,0-2.8-2.52,5.56,5.56,0,0,0-4,1.59.49.49,0,0,0-.19.31,29.7,29.7,0,0,0,.05,3.27,2.85,2.85,0,0,0,2.51,2.63,4.54,4.54,0,0,0,2.34-.15,2.82,2.82,0,0,0,2-2.13A14.81,14.81,0,0,0,139.11,192.46Z" fill="#fff"/><path d="M168.37,188c-.06,1.87,0,3.75-.2,5.6a7.68,7.68,0,0,1-6,6.93,12.82,12.82,0,0,1-8.53-.46,7.76,7.76,0,0,1-4.81-6.17,11.26,11.26,0,0,1-.17-1.93q0-4.09,0-8.19a10,10,0,0,1,.9-4.32,7.85,7.85,0,0,1,5.3-4.26,13.67,13.67,0,0,1,7.29,0,7.77,7.77,0,0,1,6,6.75,18.11,18.11,0,0,1,.14,2.45c0,1.2,0,2.41,0,3.62ZM155,187.78h0v4.44a5.37,5.37,0,0,0,.68,2.77,3.5,3.5,0,0,0,3.66,1.33,2.78,2.78,0,0,0,2.49-2.39,25.44,25.44,0,0,0,.27-3.26c0-2.12,0-4.25,0-6.37a8.79,8.79,0,0,0-.45-3.14,2.67,2.67,0,0,0-1.19-1.47,3.51,3.51,0,0,0-5.27,2.15,5.55,5.55,0,0,0-.17,1.28C155,184.67,155,186.23,155,187.78Z" fill="#fff"/><path d="M103,193.72c.51,0,1-.09,1.53-.09,1.34,0,2.67,0,4,0a.53.53,0,0,1,.41.24,3.54,3.54,0,0,0,2.91,2.62,4.44,4.44,0,0,0,2.26-.09c1.72-.51,2.53-1.83,2.32-3.82s-1.3-3-3.59-3.17a22.6,22.6,0,0,0-2.33,0c-.34,0-.47-.09-.47-.46q0-1.72,0-3.45c0-.35.12-.43.45-.43a21.59,21.59,0,0,0,2.67-.07,3,3,0,0,0,2.15-4.65,2.57,2.57,0,0,0-1-.8,3.71,3.71,0,0,0-4,.56,3,3,0,0,0-.92,1.62c0,.13-.18.32-.28.32-1.87,0-3.74,0-5.6,0,0,0,0,0-.13-.07,0-.24.09-.51.15-.77a7.4,7.4,0,0,1,4.46-5.41,12.25,12.25,0,0,1,10.48.18,5.63,5.63,0,0,1,3.27,3.75,7.58,7.58,0,0,1,.13,3.25,4.64,4.64,0,0,1-2.91,3.34c-.49.23-1,.4-1.58.61.41.13.77.22,1.13.34a6.34,6.34,0,0,1,3.68,2.82,7,7,0,0,1,.6,3.74c-.15,3.45-2.2,5.43-5.25,6.48a13.75,13.75,0,0,1-10.11-.34c-2.65-1.13-3.92-3.34-4.48-6.05A.66.66,0,0,1,103,193.72Z" fill="#fff"/></svg>