<svg width="256" height="256" fill="none" xmlns="http://www.w3.org/2000/svg" viewBox="0 0 256 256"><rect width="256" height="256" rx="60" fill="#242938"/><path d="M65.76,107.07,46.38,87.61a57.13,57.13,0,0,0,0,80.72l19.46-19.45A29.6,29.6,0,0,1,65.76,107.07Z" fill="#e8710a"/><path d="M46.38,87.61l19.38,19.46a29.59,29.59,0,0,1,41.86,0l0,0,14.1-24.16h0l-.82-.66h0A57.14,57.14,0,0,0,46.38,87.61Z" fill="#f9ab00"/><path d="M121.83,173h0L107.64,149a29.6,29.6,0,0,1-41.86,0l0,0L46.38,168.42a57.14,57.14,0,0,0,74.21,5.36l.91-.75" fill="#f9ab00"/><path d="M127.27,87.61a57.13,57.13,0,0,0,0,80.72l19.46-19.45A29.62,29.62,0,0,1,188.61,107l19.55-19.38a57.14,57.14,0,0,0-80.81-.08Z" fill="#f9ab00"/><path d="M208.16,87.61l-19.38,19.46A29.62,29.62,0,0,1,146.89,149h0l-19.62,19.46a57.17,57.17,0,0,0,80.89-80.81Z" fill="#e8710a"/></svg>