<svg width="256" height="256" fill="none" xmlns="http://www.w3.org/2000/svg" xmlns:xlink="http://www.w3.org/1999/xlink" viewBox="0 0 256 256"><defs><clipPath id="clip-path"><rect x="21.35" y="87.41" width="21.79" height="21.79" transform="translate(-60.24 51.94) rotate(-45.21)" fill="none"/></clipPath><clipPath id="clip-path-71"><rect x="67.96" y="91.73" width="12.78" height="12.78" transform="translate(-47.67 81.76) rotate(-45.21)" fill="none"/></clipPath></defs><rect width="256" height="256" rx="60" fill="#244c5a"/><path d="M41.45,161a17.52,17.52,0,0,0,6.26,5.18,18.73,18.73,0,0,0,8.58,1.95,18.42,18.42,0,0,0,7.05-1.2A12.22,12.22,0,0,0,68,163.65a12.65,12.65,0,0,0,2.57-4.85,21.84,21.84,0,0,0,.79-5.93v-7h-.17a14.84,14.84,0,0,1-6.47,5.64,19.86,19.86,0,0,1-8,1.66,21,21,0,0,1-7.92-1.49,20.17,20.17,0,0,1-6.43-4.11,18.86,18.86,0,0,1-4.31-6.26,19.67,19.67,0,0,1-1.58-7.88,20.55,20.55,0,0,1,1.5-7.88,20.13,20.13,0,0,1,4.1-6.38,18.41,18.41,0,0,1,6.22-4.27,20.12,20.12,0,0,1,7.92-1.54,22.21,22.21,0,0,1,3.69.34,17,17,0,0,1,3.9,1.16,17.87,17.87,0,0,1,7.42,6h.17v-6.47h5.47v38.48a31,31,0,0,1-.79,6.72A16.53,16.53,0,0,1,73,166.14a17.59,17.59,0,0,1-6.35,5,24.35,24.35,0,0,1-10.62,2,26.65,26.65,0,0,1-10.36-1.91,24.17,24.17,0,0,1-8.3-5.89Zm1-27.7a15,15,0,0,0,1.12,5.76,15.14,15.14,0,0,0,3.07,4.73A14.93,14.93,0,0,0,51.19,147a13.31,13.31,0,0,0,5.68,1.21,15.16,15.16,0,0,0,10.45-4.11,13.14,13.14,0,0,0,3.2-4.69,15.06,15.06,0,0,0,1-6.13,16.62,16.62,0,0,0-1-5.77,13.78,13.78,0,0,0-2.9-4.72A14,14,0,0,0,63,119.57a15.12,15.12,0,0,0-6.14-1.2,13.45,13.45,0,0,0-5.68,1.2,14.8,14.8,0,0,0-4.56,3.24,15.21,15.21,0,0,0-3.07,4.72A15,15,0,0,0,42.44,133.3Zm56.73,19.9h-6V94.48h18.08q9,0,14.14,3.9t5.18,11.78a14.66,14.66,0,0,1-3.85,10.32c-2.57,2.8-6.29,4.41-11.16,4.86l16.92,27.86h-7.3l-16.09-27.28h-10Zm0-32.76h10.62a23.69,23.69,0,0,0,6.76-.83,12.48,12.48,0,0,0,4.43-2.19,8,8,0,0,0,2.41-3.24,10.64,10.64,0,0,0,.74-4,10.45,10.45,0,0,0-.74-3.94,8.37,8.37,0,0,0-2.41-3.28,11.56,11.56,0,0,0-4.43-2.19,24.94,24.94,0,0,0-6.76-.79H99.17v20.48Zm43.62-26h17.09q9,0,14.14,3.9t5.18,11.78Q179.2,118,174,122t-14.14,3.94H148.77V153.2h-6V94.48Zm6,26h9.62a23.69,23.69,0,0,0,6.76-.83,12.48,12.48,0,0,0,4.43-2.19,8,8,0,0,0,2.41-3.24,10.84,10.84,0,0,0,.74-4,10.65,10.65,0,0,0-.74-3.94,8.37,8.37,0,0,0-2.41-3.28,11.56,11.56,0,0,0-4.43-2.19,24.94,24.94,0,0,0-6.76-.79h-9.62Zm90.39,23.47a22,22,0,0,1-3.69,4.23,22.85,22.85,0,0,1-5,3.44,28.92,28.92,0,0,1-6.09,2.29,28.3,28.3,0,0,1-6.93.83,31.42,31.42,0,0,1-12.15-2.33,29.11,29.11,0,0,1-16.13-16.17,34.06,34.06,0,0,1,0-24.71,29.17,29.17,0,0,1,16.13-16.18A31.6,31.6,0,0,1,217.43,93a29.65,29.65,0,0,1,10.95,2.16,22.07,22.07,0,0,1,9.37,7.13l-5.22,3.9a14.32,14.32,0,0,0-2.49-2.82,18,18,0,0,0-3.61-2.49,22,22,0,0,0-4.35-1.74,17,17,0,0,0-4.65-.66,23.79,23.79,0,0,0-10.11,2.07,22.88,22.88,0,0,0-7.59,5.55,24.32,24.32,0,0,0-4.77,8.09,28.94,28.94,0,0,0,0,19.32,24.22,24.22,0,0,0,4.77,8.09,22.9,22.9,0,0,0,7.59,5.56,23.79,23.79,0,0,0,10.11,2.07,26.34,26.34,0,0,0,4.61-.41,19.55,19.55,0,0,0,4.48-1.41,17.31,17.31,0,0,0,4.14-2.7,20.12,20.12,0,0,0,3.61-4.27l4.89,3.48Z" fill="#fff"/><g clip-path="url(#clip-path)"><path d="M17.11,82.89l-.27,2.42V82.89Z" fill="#74cbcb"/></g><g clip-path="url(#clip-path)"><path d="M17.47,82.89l-.63,5.6V85.31l.27-2.42Z" fill="#73cbcb"/></g><g clip-path="url(#clip-path)"><path d="M17.83,82.89l-1,8.79V88.49l.63-5.6Z" fill="#73cbcb"/></g><g clip-path="url(#clip-path)"><path d="M18.19,82.89l-1.35,12V91.68l1-8.79Z" fill="#72cbca"/></g><g clip-path="url(#clip-path)"><path d="M18.55,82.89,16.84,98.06V94.87l1.35-12Z" fill="#72cbca"/></g><g clip-path="url(#clip-path)"><path d="M18.91,82.89l-2.07,18.36V98.06l1.71-15.17Z" fill="#71caca"/></g><g clip-path="url(#clip-path)"><path d="M19.27,82.89l-2.43,21.55v-3.19l2.07-18.36Z" fill="#70caca"/></g><g clip-path="url(#clip-path)"><path d="M19.63,82.89l-2.79,24.73v-3.18l2.43-21.55Z" fill="#70caca"/></g><g clip-path="url(#clip-path)"><path d="M20,82.89l-3.15,27.92v-3.19l2.79-24.73Z" fill="#6fcac9"/></g><g clip-path="url(#clip-path)"><path d="M20.35,82.89l-3.48,30.8h0v-2.88L20,82.89Z" fill="#6ecac9"/></g><g clip-path="url(#clip-path)"><path d="M20.71,82.89l-3.48,30.82H17l-.17,0,3.48-30.8Z" fill="#6dc9c9"/></g><g clip-path="url(#clip-path)"><path d="M21.07,82.89l-3.48,30.82h-.36l3.48-30.82Z" fill="#6dc9c9"/></g><g clip-path="url(#clip-path)"><path d="M21.43,82.89,18,113.71h-.36l3.48-30.82Z" fill="#6cc9c8"/></g><g clip-path="url(#clip-path)"><path d="M21.79,82.89l-3.48,30.82H18l3.48-30.82Z" fill="#6bc9c8"/></g><g clip-path="url(#clip-path)"><path d="M22.15,82.89l-3.48,30.82h-.36l3.48-30.82Z" fill="#6ac9c8"/></g><g clip-path="url(#clip-path)"><path d="M22.51,82.89,19,113.71h-.36l3.48-30.82Z" fill="#69c8c8"/></g><g clip-path="url(#clip-path)"><path d="M22.87,82.89l-3.48,30.82H19l3.48-30.82Z" fill="#68c8c7"/></g><g clip-path="url(#clip-path)"><path d="M23.23,82.89l-3.48,30.82h-.36l3.48-30.82Z" fill="#67c8c7"/></g><g clip-path="url(#clip-path)"><path d="M23.59,82.89l-3.48,30.82h-.36l3.48-30.82Z" fill="#66c7c7"/></g><g clip-path="url(#clip-path)"><path d="M24,82.89l-3.48,30.82h-.36l3.48-30.82Z" fill="#65c7c6"/></g><g clip-path="url(#clip-path)"><path d="M24.31,82.89l-3.48,30.82h-.36L24,82.89Z" fill="#64c7c6"/></g><g clip-path="url(#clip-path)"><path d="M24.67,82.89l-3.48,30.82h-.36l3.48-30.82Z" fill="#62c7c6"/></g><g clip-path="url(#clip-path)"><path d="M25,82.89l-3.48,30.82h-.36l3.48-30.82Z" fill="#61c6c6"/></g><g clip-path="url(#clip-path)"><path d="M25.4,82.89l-3.49,30.82h-.36L25,82.89Z" fill="#60c6c5"/></g><g clip-path="url(#clip-path)"><path d="M25.76,82.89l-3.49,30.82h-.36L25.4,82.89Z" fill="#5ec6c5"/></g><g clip-path="url(#clip-path)"><path d="M26.12,82.89l-3.49,30.82h-.36l3.49-30.82Z" fill="#5dc5c5"/></g><g clip-path="url(#clip-path)"><path d="M26.48,82.89,23,113.71h-.36l3.49-30.82Z" fill="#5bc5c4"/></g><g clip-path="url(#clip-path)"><path d="M26.84,82.89l-3.49,30.82H23l3.49-30.82Z" fill="#5ac5c4"/></g><g clip-path="url(#clip-path)"><path d="M27.2,82.89l-3.49,30.82h-.36l3.49-30.82Z" fill="#58c4c3"/></g><g clip-path="url(#clip-path)"><path d="M27.56,82.89l-3.49,30.82h-.36L27.2,82.89Z" fill="#57c4c3"/></g><g clip-path="url(#clip-path)"><path d="M27.92,82.89l-3.49,30.82h-.36l3.49-30.82Z" fill="#55c4c3"/></g><g clip-path="url(#clip-path)"><path d="M28.28,82.89,24.8,113.71h-.37l3.49-30.82Z" fill="#53c3c2"/></g><g clip-path="url(#clip-path)"><path d="M28.64,82.89l-3.48,30.82H24.8l3.48-30.82Z" fill="#51c3c2"/></g><g clip-path="url(#clip-path)"><path d="M29,82.89l-3.48,30.82h-.36l3.48-30.82Z" fill="#4fc3c1"/></g><g clip-path="url(#clip-path)"><path d="M29.36,82.89l-3.48,30.82h-.36L29,82.89Z" fill="#4dc2c1"/></g><g clip-path="url(#clip-path)"><path d="M29.72,82.89l-3.48,30.82h-.36l3.48-30.82Z" fill="#4bc2c0"/></g><g clip-path="url(#clip-path)"><path d="M30.08,82.89,26.6,113.71h-.36l3.48-30.82Z" fill="#49c1c0"/></g><g clip-path="url(#clip-path)"><path d="M30.44,82.89,27,113.71H26.6l3.48-30.82Z" fill="#46c1c0"/></g><g clip-path="url(#clip-path)"><path d="M30.8,82.89l-3.48,30.82H27l3.48-30.82Z" fill="#44c0bf"/></g><g clip-path="url(#clip-path)"><path d="M31.16,82.89l-3.48,30.82h-.36L30.8,82.89Z" fill="#41c0bf"/></g><g clip-path="url(#clip-path)"><path d="M31.52,82.89,28,113.71h-.36l3.48-30.82Z" fill="#3ec0be"/></g><g clip-path="url(#clip-path)"><path d="M31.88,82.89,28.4,113.71H28l3.48-30.82Z" fill="#3bbfbe"/></g><g clip-path="url(#clip-path)"><path d="M32.24,82.89l-3.48,30.82H28.4l3.48-30.82Z" fill="#38bfbd"/></g><g clip-path="url(#clip-path)"><path d="M32.6,82.89l-3.48,30.82h-.36l3.48-30.82Z" fill="#34bebd"/></g><g clip-path="url(#clip-path)"><path d="M33,82.89l-3.48,30.82h-.36L32.6,82.89Z" fill="#30bebc"/></g><g clip-path="url(#clip-path)"><path d="M33.32,82.89l-3.48,30.82h-.36L33,82.89Z" fill="#2cbdbb"/></g><g clip-path="url(#clip-path)"><path d="M33.68,82.89,30.2,113.71h-.36l3.48-30.82Z" fill="#27bdbb"/></g><g clip-path="url(#clip-path)"><path d="M34,82.89l-3.48,30.82H30.2l3.48-30.82Z" fill="#21bcba"/></g><g clip-path="url(#clip-path)"><path d="M34.4,82.89l-3.48,30.82h-.36L34,82.89Z" fill="#1abcba"/></g><g clip-path="url(#clip-path)"><path d="M34.76,82.89l-3.48,30.82h-.36L34.4,82.89Z" fill="#10bbb9"/></g><g clip-path="url(#clip-path)"><path d="M35.12,82.89l-3.48,30.82h-.36l3.48-30.82Z" fill="#00bbb9"/></g><g clip-path="url(#clip-path)"><path d="M35.48,82.89,32,113.71h-.36l3.48-30.82Z" fill="#00bab8"/></g><g clip-path="url(#clip-path)"><path d="M35.84,82.89l-3.48,30.82H32l3.48-30.82Z" fill="#00bab7"/></g><g clip-path="url(#clip-path)"><path d="M36.2,82.89l-3.48,30.82h-.36l3.48-30.82Z" fill="#00b9b7"/></g><g clip-path="url(#clip-path)"><path d="M36.56,82.89l-3.48,30.82h-.36L36.2,82.89Z" fill="#00b9b6"/></g><g clip-path="url(#clip-path)"><path d="M36.92,82.89l-3.48,30.82h-.36l3.48-30.82Z" fill="#00b8b6"/></g><g clip-path="url(#clip-path)"><path d="M37.28,82.89,33.8,113.71h-.36l3.48-30.82Z" fill="#00b7b5"/></g><g clip-path="url(#clip-path)"><path d="M37.64,82.89l-3.48,30.82H33.8l3.48-30.82Z" fill="#00b7b4"/></g><g clip-path="url(#clip-path)"><path d="M38,82.89l-3.48,30.82h-.36l3.48-30.82Z" fill="#00b6b4"/></g><g clip-path="url(#clip-path)"><path d="M38.36,82.89l-3.48,30.82h-.36L38,82.89Z" fill="#00b6b3"/></g><g clip-path="url(#clip-path)"><path d="M38.72,82.89l-3.48,30.82h-.36l3.48-30.82Z" fill="#00b5b2"/></g><g clip-path="url(#clip-path)"><path d="M39.08,82.89,35.6,113.71h-.36l3.48-30.82Z" fill="#00b5b2"/></g><g clip-path="url(#clip-path)"><path d="M39.44,82.89,36,113.71H35.6l3.48-30.82Z" fill="#00b4b1"/></g><g clip-path="url(#clip-path)"><path d="M39.8,82.89l-3.48,30.82H36l3.48-30.82Z" fill="#00b3b0"/></g><g clip-path="url(#clip-path)"><path d="M40.16,82.89l-3.48,30.82h-.36L39.8,82.89Z" fill="#00b3b0"/></g><g clip-path="url(#clip-path)"><path d="M40.52,82.89,37,113.71h-.36l3.48-30.82Z" fill="#00b2af"/></g><g clip-path="url(#clip-path)"><path d="M40.88,82.89,37.4,113.71H37l3.48-30.82Z" fill="#00b2ae"/></g><g clip-path="url(#clip-path)"><path d="M41.24,82.89l-3.48,30.82H37.4l3.48-30.82Z" fill="#00b1ad"/></g><g clip-path="url(#clip-path)"><path d="M41.6,82.89l-3.48,30.82h-.36l3.48-30.82Z" fill="#00b0ad"/></g><g clip-path="url(#clip-path)"><path d="M47.45,82.89l.2,0v30.79H38.12L41.6,82.89Z" fill="#00b0ad"/></g><g clip-path="url(#clip-path-71)"><path d="M83.39,94.36l-.25-5.28h.25Z" fill="#74cbcb"/></g><g clip-path="url(#clip-path-71)"><path d="M83.39,99.91l-.51-10.83h.26l.25,5.28Z" fill="#73cbcb"/></g><g clip-path="url(#clip-path-71)"><path d="M83.39,105.46l-.77-16.38h.26l.51,10.83Z" fill="#73cbca"/></g><g clip-path="url(#clip-path-71)"><path d="M83.21,107.16l-.85-18.08h.26l.77,16.38v1.7Z" fill="#72cbca"/></g><g clip-path="url(#clip-path-71)"><path d="M83,107.16l-.84-18.08h.25l.85,18.08Z" fill="#71caca"/></g><g clip-path="url(#clip-path-71)"><path d="M82.69,107.16l-.84-18.08h.26L83,107.16Z" fill="#70caca"/></g><g clip-path="url(#clip-path-71)"><path d="M82.43,107.16l-.84-18.08h.26l.84,18.08Z" fill="#6fcac9"/></g><g clip-path="url(#clip-path-71)"><path d="M82.17,107.16l-.84-18.08h.26l.84,18.08Z" fill="#6fcac9"/></g><g clip-path="url(#clip-path-71)"><path d="M81.91,107.16l-.84-18.08h.26l.84,18.08Z" fill="#6ec9c9"/></g><g clip-path="url(#clip-path-71)"><path d="M81.66,107.16l-.85-18.08h.26l.84,18.08Z" fill="#6dc9c9"/></g><g clip-path="url(#clip-path-71)"><path d="M81.4,107.16l-.84-18.08h.25l.85,18.08Z" fill="#6cc9c8"/></g><g clip-path="url(#clip-path-71)"><path d="M81.14,107.16,80.3,89.08h.26l.84,18.08Z" fill="#6bc9c8"/></g><g clip-path="url(#clip-path-71)"><path d="M80.88,107.16,80,89.08h.26l.84,18.08Z" fill="#6ac8c8"/></g><g clip-path="url(#clip-path-71)"><path d="M80.62,107.16l-.84-18.08H80l.84,18.08Z" fill="#69c8c8"/></g><g clip-path="url(#clip-path-71)"><path d="M80.36,107.16l-.84-18.08h.26l.84,18.08Z" fill="#68c8c7"/></g><g clip-path="url(#clip-path-71)"><path d="M80.11,107.16l-.85-18.08h.26l.84,18.08Z" fill="#67c8c7"/></g><g clip-path="url(#clip-path-71)"><path d="M79.85,107.16,79,89.08h.25l.85,18.08Z" fill="#66c7c7"/></g><g clip-path="url(#clip-path-71)"><path d="M79.59,107.16l-.84-18.08H79l.84,18.08Z" fill="#65c7c6"/></g><g clip-path="url(#clip-path-71)"><path d="M79.33,107.16l-.84-18.08h.26l.84,18.08Z" fill="#63c7c6"/></g><g clip-path="url(#clip-path-71)"><path d="M79.07,107.16l-.84-18.08h.26l.84,18.08Z" fill="#62c7c6"/></g><g clip-path="url(#clip-path-71)"><path d="M78.81,107.16,78,89.08h.26l.84,18.08Z" fill="#61c6c6"/></g><g clip-path="url(#clip-path-71)"><path d="M78.56,107.16l-.85-18.08H78l.84,18.08Z" fill="#60c6c5"/></g><g clip-path="url(#clip-path-71)"><path d="M78.3,107.16l-.84-18.08h.25l.85,18.08Z" fill="#5fc6c5"/></g><g clip-path="url(#clip-path-71)"><path d="M78,107.16,77.2,89.08h.26l.84,18.08Z" fill="#5dc5c5"/></g><g clip-path="url(#clip-path-71)"><path d="M77.78,107.16l-.84-18.08h.26L78,107.16Z" fill="#5cc5c4"/></g><g clip-path="url(#clip-path-71)"><path d="M77.52,107.16l-.84-18.08h.26l.84,18.08Z" fill="#5bc5c4"/></g><g clip-path="url(#clip-path-71)"><path d="M77.26,107.16l-.84-18.08h.26l.84,18.08Z" fill="#59c5c4"/></g><g clip-path="url(#clip-path-71)"><path d="M77,107.16l-.85-18.08h.26l.84,18.08Z" fill="#58c4c3"/></g><g clip-path="url(#clip-path-71)"><path d="M76.75,107.16l-.84-18.08h.25L77,107.16Z" fill="#57c4c3"/></g><g clip-path="url(#clip-path-71)"><path d="M76.49,107.16l-.84-18.08h.26l.84,18.08Z" fill="#55c4c3"/></g><g clip-path="url(#clip-path-71)"><path d="M76.23,107.16l-.84-18.08h.26l.84,18.08Z" fill="#54c3c2"/></g><g clip-path="url(#clip-path-71)"><path d="M76,107.16l-.84-18.08h.26l.84,18.08Z" fill="#52c3c2"/></g><g clip-path="url(#clip-path-71)"><path d="M75.71,107.16l-.84-18.08h.26L76,107.16Z" fill="#50c3c2"/></g><g clip-path="url(#clip-path-71)"><path d="M75.46,107.16l-.85-18.08h.26l.84,18.08Z" fill="#4fc2c1"/></g><g clip-path="url(#clip-path-71)"><path d="M75.2,107.16l-.84-18.08h.25l.85,18.08Z" fill="#4dc2c1"/></g><g clip-path="url(#clip-path-71)"><path d="M74.94,107.16,74.1,89.08h.26l.84,18.08Z" fill="#4bc2c1"/></g><g clip-path="url(#clip-path-71)"><path d="M74.68,107.16l-.84-18.08h.26l.84,18.08Z" fill="#4ac1c0"/></g><g clip-path="url(#clip-path-71)"><path d="M74.42,107.16l-.84-18.08h.26l.84,18.08Z" fill="#48c1c0"/></g><g clip-path="url(#clip-path-71)"><path d="M74.16,107.16l-.84-18.08h.26l.84,18.08Z" fill="#46c1c0"/></g><g clip-path="url(#clip-path-71)"><path d="M73.91,107.16l-.85-18.08h.26l.84,18.08Z" fill="#44c1bf"/></g><g clip-path="url(#clip-path-71)"><path d="M73.65,107.16l-.84-18.08h.25l.85,18.08Z" fill="#42c0bf"/></g><g clip-path="url(#clip-path-71)"><path d="M73.39,107.16l-.84-18.08h.26l.84,18.08Z" fill="#40c0be"/></g><g clip-path="url(#clip-path-71)"><path d="M73.13,107.16l-.84-18.08h.26l.84,18.08Z" fill="#3ec0be"/></g><g clip-path="url(#clip-path-71)"><path d="M72.87,107.16,72,89.08h.26l.84,18.08Z" fill="#3cbfbe"/></g><g clip-path="url(#clip-path-71)"><path d="M72.61,107.16l-.84-18.08H72l.84,18.08Z" fill="#39bfbd"/></g><g clip-path="url(#clip-path-71)"><path d="M72.36,107.16l-.85-18.08h.26l.84,18.08Z" fill="#37bfbd"/></g><g clip-path="url(#clip-path-71)"><path d="M72.1,107.16l-.85-18.08h.26l.85,18.08Z" fill="#34bebd"/></g><g clip-path="url(#clip-path-71)"><path d="M71.84,107.16,71,89.08h.25l.85,18.08Z" fill="#32bebc"/></g><g clip-path="url(#clip-path-71)"><path d="M71.58,107.16l-.84-18.08H71l.84,18.08Z" fill="#2fbdbc"/></g><g clip-path="url(#clip-path-71)"><path d="M71.32,107.16l-.84-18.08h.26l.84,18.08Z" fill="#2cbdbb"/></g><g clip-path="url(#clip-path-71)"><path d="M71.06,107.16l-.84-18.08h.26l.84,18.08Z" fill="#28bdbb"/></g><g clip-path="url(#clip-path-71)"><path d="M70.8,107.16,70,89.08h.26l.84,18.08Z" fill="#25bcbb"/></g><g clip-path="url(#clip-path-71)"><path d="M70.55,107.16,69.7,89.08H70l.84,18.08Z" fill="#21bcba"/></g><g clip-path="url(#clip-path-71)"><path d="M70.29,107.16l-.84-18.08h.25l.85,18.08Z" fill="#1cbcba"/></g><g clip-path="url(#clip-path-71)"><path d="M70,107.16l-.84-18.08h.26l.84,18.08Z" fill="#16bbba"/></g><g clip-path="url(#clip-path-71)"><path d="M69.77,107.16l-.84-18.08h.26L70,107.16Z" fill="#0fbbb9"/></g><g clip-path="url(#clip-path-71)"><path d="M69.51,107.16l-.84-18.08h.26l.84,18.08Z" fill="#04bbb9"/></g><g clip-path="url(#clip-path-71)"><path d="M69.25,107.16l-.84-18.08h.26l.84,18.08Z" fill="#00bab8"/></g><g clip-path="url(#clip-path-71)"><path d="M69,107.16l-.85-18.08h.26l.84,18.08Z" fill="#00bab8"/></g><g clip-path="url(#clip-path-71)"><path d="M68.74,107.16,67.9,89.08h.25L69,107.16Z" fill="#00bab8"/></g><g clip-path="url(#clip-path-71)"><path d="M68.48,107.16l-.84-18.08h.26l.84,18.08Z" fill="#00b9b7"/></g><g clip-path="url(#clip-path-71)"><path d="M68.22,107.16l-.84-18.08h.26l.84,18.08Z" fill="#00b9b7"/></g><g clip-path="url(#clip-path-71)"><path d="M68,107.16l-.84-18.08h.26l.84,18.08Z" fill="#00b9b6"/></g><g clip-path="url(#clip-path-71)"><path d="M67.7,107.16l-.84-18.08h.26L68,107.16Zm-.25,0L66.6,89.08h.26l.84,18.08Z" fill="#00b8b6"/></g><g clip-path="url(#clip-path-71)"><path d="M67.19,107.16l-.84-18.08h.25l.85,18.08Z" fill="#00b8b5"/></g><g clip-path="url(#clip-path-71)"><path d="M66.93,107.16l-.84-18.08h.26l.84,18.08Z" fill="#00b7b5"/></g><g clip-path="url(#clip-path-71)"><path d="M66.67,107.16l-.84-18.08h.26l.84,18.08Z" fill="#00b7b4"/></g><g clip-path="url(#clip-path-71)"><path d="M66.41,107.16l-.84-18.08h.26l.84,18.08Z" fill="#00b7b4"/></g><g clip-path="url(#clip-path-71)"><path d="M66.15,107.16l-.84-18.08h.26l.84,18.08Z" fill="#00b6b4"/></g><g clip-path="url(#clip-path-71)"><path d="M65.9,107.16l-.59-12.55V89.08h0l.84,18.08Z" fill="#00b6b3"/></g><g clip-path="url(#clip-path-71)"><path d="M65.64,107.16l-.33-7V94.61l.59,12.55Z" fill="#00b6b3"/></g><g clip-path="url(#clip-path-71)"><path d="M65.38,107.16l-.07-1.46v-5.55l.33,7Z" fill="#00b5b2"/></g><g clip-path="url(#clip-path-71)"><path d="M65.31,105.7l.07,1.46h-.07Z" fill="#00b5b2"/></g><path d="M32.86,89l-9.29,9.36,9.36,9.3,7.93,0-8.31-8.24,41-.16L70,102.84h4l4.65-4.68L73.9,93.5h-4l3.63,3.6-41,.15L40.79,89Z" fill="#fff"/></svg>