<svg width="256" height="256" fill="none" xmlns="http://www.w3.org/2000/svg" viewBox="0 0 256 256"><rect width="256" height="256" rx="60" fill="#1a1a1d"/><g id="Canvas"><g id="Group"><g id="Group-2" data-name="Group"><g id="Group-3" data-name="Group"><g id="g"><g id="path"><g id="path9_fill" data-name="path9 fill"><path id="path0_fill" data-name="path0 fill" d="M49,132.62c0,6.29-.51,8.34-1.8,9.85a7.82,7.82,0,0,1-5.25,2l.5,3.6a12.26,12.26,0,0,0,8.2-3A14.23,14.23,0,0,0,53.3,140a14.5,14.5,0,0,0,.49-5.71V110.5H49v22.12Z" fill="#fff"/></g></g><g id="path-2" data-name="path"><g id="path10_fill" data-name="path10 fill"><path id="path1_fill" data-name="path1 fill" d="M84.9,129.78c0,2.7,0,5.11.21,7.19H80.84l-.29-4.28a9.92,9.92,0,0,1-8.74,4.89c-4.17,0-9.13-2.26-9.13-11.5V110.72H67.5v14.39c0,5,1.54,8.34,5.89,8.34A6.71,6.71,0,0,0,76,133a6.71,6.71,0,0,0,3.68-3.69,6.63,6.63,0,0,0,.5-2.61V110.54H85v19.1Z" fill="#fff"/></g></g><g id="path-3" data-name="path"><g id="path11_fill" data-name="path11 fill"><path id="path2_fill" data-name="path2 fill" d="M94,119.28c0-3.35,0-6.08-.21-8.56h4.31l.22,4.49a10.42,10.42,0,0,1,9.42-5.1c6.4,0,11.21,5.36,11.21,13.34,0,9.42-5.78,14.09-12,14.09a9.29,9.29,0,0,1-8.16-4.13h0v14.38H94V119.28Zm4.75,7a10.57,10.57,0,0,0,.21,1.94,7.4,7.4,0,0,0,7.19,5.57c5.07,0,8.06-4.13,8.06-10.14,0-5.25-2.81-9.74-7.88-9.74a8.25,8.25,0,0,0-7.58,7.87Z" fill="#fff"/></g></g><g id="path-4" data-name="path"><g id="path12_fill" data-name="path12 fill"><path id="path3_fill" data-name="path3 fill" d="M127.57,110.7l5.79,15.49c.61,1.73,1.26,3.81,1.69,5.36.5-1.58,1-3.6,1.69-5.47L142,110.7h5.07l-7.19,18.69c-3.6,9-5.79,13.63-9.1,16.43a13.1,13.1,0,0,1-5.9,3.1l-1.18-4a12.87,12.87,0,0,0,4.2-2.34,14.36,14.36,0,0,0,4.07-5.32,3.64,3.64,0,0,0,.39-1.15,4.25,4.25,0,0,0-.32-1.26l-9.78-24.2h5.25Z" fill="#fff"/></g></g><g id="path-5" data-name="path"><g id="path13_fill" data-name="path13 fill"><path id="path4_fill" data-name="path4 fill" d="M159.85,103.15v7.55h6.9v3.6h-6.9v14.17c0,3.23.93,5.1,3.59,5.1a10.64,10.64,0,0,0,2.81-.32l.21,3.59a11.72,11.72,0,0,1-4.28.65,6.75,6.75,0,0,1-5.21-2,9.71,9.71,0,0,1-1.87-6.83V114.26H151v-3.59h4.17v-6.4Z" fill="#fff"/></g></g><g id="path-6" data-name="path"><g id="path14_fill" data-name="path14 fill"><path id="path5_fill" data-name="path5 fill" d="M175.63,124.67a8.48,8.48,0,0,0,.49,3.6,8.44,8.44,0,0,0,8.6,5.5,17.53,17.53,0,0,0,7.19-1.36l.83,3.59a21.61,21.61,0,0,1-8.81,1.62,12.22,12.22,0,0,1-13-13.23c0-7.91,4.71-14.17,12.4-14.17,8.63,0,10.79,7.55,10.79,12.37a20.74,20.74,0,0,1,0,2.23H175.52Zm14.09-3.59a6.79,6.79,0,0,0-.2-2.87,6.7,6.7,0,0,0-1.38-2.54,6.84,6.84,0,0,0-5.11-2.36,8,8,0,0,0-7.37,7.77Z" fill="#fff"/></g></g><g id="path-7" data-name="path"><g id="path15_fill" data-name="path15 fill"><path id="path6_fill" data-name="path6 fill" d="M201.42,118.87c0-3.09,0-5.75-.22-8.2h4.32v5.15h.21a8,8,0,0,1,7.19-5.76,5.24,5.24,0,0,1,1.37,0v4.5a6.59,6.59,0,0,0-1.66,0,6.7,6.7,0,0,0-6.43,6.11,12.86,12.86,0,0,0-.22,2.23v14h-4.74v-18Z" fill="#fff"/></g></g></g></g><g id="g-2" data-name="g"><g id="path-8" data-name="path"><g id="path16_fill" data-name="path16 fill"><path id="path7_fill" data-name="path7 fill" d="M199.31,38.48a12,12,0,1,1-1.15-4.58,12.23,12.23,0,0,1,1.15,4.58Z" fill="#767677"/></g></g><g id="path-9" data-name="path"><g id="path17_fill" data-name="path17 fill"><path id="path8_fill" data-name="path8 fill" d="M128.21,179.29c-32.36,0-60.8-11.61-75.51-28.76a80.5,80.5,0,0,0,151,0C189.05,167.68,160.71,179.29,128.21,179.29Z" fill="#f37726"/></g></g><g id="path-10" data-name="path"><g id="path18_fill" data-name="path18 fill"><path id="path9_fill-2" data-name="path9 fill" d="M128.21,67.76c32.36,0,60.8,11.62,75.5,28.77a80.5,80.5,0,0,0-151,0C67.41,79.34,95.71,67.76,128.21,67.76Z" fill="#f37726"/></g></g><g id="path-11" data-name="path"><g id="path19_fill" data-name="path19 fill"><path id="path10_fill-2" data-name="path10 fill" d="M83.66,212.67a15.22,15.22,0,1,1-10.12-13.54,15,15,0,0,1,5.1,3,15.14,15.14,0,0,1,5,10.51Z" fill="#9e9e9e"/></g></g><g id="path-12" data-name="path"><g id="path20_fill" data-name="path20 fill"><path id="path11_fill-2" data-name="path11 fill" d="M56.38,63.86a9,9,0,0,1-4.94-1.35,8.83,8.83,0,0,1-4-8.94A8.84,8.84,0,0,1,65,54.65a9,9,0,0,1-8.59,9.21Z" fill="#616262"/></g></g></g></g></g></g></svg>