<svg width="256" height="256" fill="none" xmlns="http://www.w3.org/2000/svg" viewBox="0 0 256 256"><rect width="256" height="256" rx="60" fill="#f4f2ed"/><g id="Canvas"><g id="Group"><g id="Group-2" data-name="Group"><g id="Group-3" data-name="Group"><g id="g"><g id="path"><g id="path9_fill" data-name="path9 fill"><path id="path0_fill" data-name="path0 fill" d="M48.86,132.59c0,6.29-.5,8.34-1.79,9.85a7.87,7.87,0,0,1-5.25,2l.5,3.59a12.34,12.34,0,0,0,8.2-3,14.35,14.35,0,0,0,3.16-10.79v-23.8H48.86v22.11Z" fill="#4e4e4e"/></g></g><g id="path-2" data-name="path"><g id="path10_fill" data-name="path10 fill"><path id="path1_fill" data-name="path1 fill" d="M84.79,129.75c0,2.7,0,5.11.22,7.2H80.73l-.29-4.28a10,10,0,0,1-8.73,4.89c-4.17,0-9.14-2.27-9.14-11.51V110.7h4.82v14.38c0,5,1.55,8.34,5.9,8.34a6.7,6.7,0,0,0,2.61-.5,6.57,6.57,0,0,0,2.22-1.47,6.73,6.73,0,0,0,1.47-2.21,6.87,6.87,0,0,0,.49-2.61V110.52H84.9v19.09Z" fill="#4e4e4e"/></g></g><g id="path-3" data-name="path"><g id="path11_fill" data-name="path11 fill"><path id="path2_fill" data-name="path2 fill" d="M93.93,119.25c0-3.34,0-6.07-.22-8.56H98l.21,4.5a10.43,10.43,0,0,1,9.42-5.11c6.4,0,11.22,5.36,11.22,13.34,0,9.42-5.79,14.1-12,14.1a9.33,9.33,0,0,1-8.16-4.14h0v14.38H93.93V119.25Zm4.74,7a11.3,11.3,0,0,0,.22,1.94,7.4,7.4,0,0,0,7.19,5.58c5.07,0,8-4.14,8-10.14,0-5.25-2.8-9.75-7.87-9.75a8.29,8.29,0,0,0-7.59,7.88Z" fill="#4e4e4e"/></g></g><g id="path-4" data-name="path"><g id="path12_fill" data-name="path12 fill"><path id="path3_fill" data-name="path3 fill" d="M127.46,110.67l5.79,15.5c.61,1.72,1.26,3.81,1.69,5.35.51-1.58,1.05-3.59,1.69-5.46l5.25-15.39H147l-7.19,18.7c-3.59,9-5.79,13.62-9.1,16.43a13,13,0,0,1-5.89,3.09l-1.19-4a12.61,12.61,0,0,0,4.21-2.33,14.52,14.52,0,0,0,4.06-5.32,3.63,3.63,0,0,0,.4-1.16,3.92,3.92,0,0,0-.33-1.25l-9.78-24.2h5.25Z" fill="#4e4e4e"/></g></g><g id="path-5" data-name="path"><g id="path13_fill" data-name="path13 fill"><path id="path4_fill" data-name="path4 fill" d="M159.74,103.13v7.55h6.91v3.59h-6.91v14.17c0,3.24.94,5.11,3.6,5.11a11,11,0,0,0,2.8-.33l.22,3.6a12,12,0,0,1-4.28.64,6.52,6.52,0,0,1-2.83-.43,6.7,6.7,0,0,1-2.38-1.58,9.61,9.61,0,0,1-1.87-6.83V114.24h-4.1v-3.6h4.17v-6.4Z" fill="#4e4e4e"/></g></g><g id="path-6" data-name="path"><g id="path14_fill" data-name="path14 fill"><path id="path5_fill" data-name="path5 fill" d="M175.52,124.65a8.44,8.44,0,0,0,.49,3.59,8.46,8.46,0,0,0,5,5,8.65,8.65,0,0,0,3.6.5,17.6,17.6,0,0,0,7.19-1.37l.83,3.59a21.51,21.51,0,0,1-8.81,1.62,12.23,12.23,0,0,1-12.34-8.05,12.15,12.15,0,0,1-.68-5.18c0-7.91,4.71-14.16,12.41-14.16,8.62,0,10.78,7.55,10.78,12.36a16.59,16.59,0,0,1,0,2.23H175.41Zm14.1-3.6a6.78,6.78,0,0,0-6.69-7.76,7.93,7.93,0,0,0-7.37,7.76Z" fill="#4e4e4e"/></g></g><g id="path-7" data-name="path"><g id="path15_fill" data-name="path15 fill"><path id="path6_fill" data-name="path6 fill" d="M201.31,118.85c0-3.1,0-5.76-.21-8.2h4.31v5.14h.22a7.93,7.93,0,0,1,7.19-5.75,5.16,5.16,0,0,1,1.36,0v4.49a7.59,7.59,0,0,0-1.65,0,6.75,6.75,0,0,0-6.44,6.11,14,14,0,0,0-.21,2.23v14h-4.75v-18Z" fill="#4e4e4e"/></g></g></g></g><g id="g-2" data-name="g"><g id="path-8" data-name="path"><g id="path16_fill" data-name="path16 fill"><path id="path7_fill" data-name="path7 fill" d="M199.2,38.45A12.19,12.19,0,1,1,186.51,27a12,12,0,0,1,4.67.67,12.07,12.07,0,0,1,6.87,6.19,12.09,12.09,0,0,1,1.15,4.57Z" fill="#767677"/></g></g><g id="path-9" data-name="path"><g id="path17_fill" data-name="path17 fill"><path id="path8_fill" data-name="path8 fill" d="M128.1,179.26c-32.36,0-60.8-11.61-75.5-28.76a80.5,80.5,0,0,0,151,0C188.94,167.65,160.61,179.26,128.1,179.26Z" fill="#f37726"/></g></g><g id="path-10" data-name="path"><g id="path18_fill" data-name="path18 fill"><path id="path9_fill-2" data-name="path9 fill" d="M128.1,67.74c32.36,0,60.8,11.61,75.51,28.76a80.5,80.5,0,0,0-151,0C67.3,79.32,95.6,67.74,128.1,67.74Z" fill="#f37726"/></g></g><g id="path-11" data-name="path"><g id="path19_fill" data-name="path19 fill"><path id="path10_fill-2" data-name="path10 fill" d="M83.56,212.64a15.37,15.37,0,0,1-8.64,14.78A15.34,15.34,0,0,1,58,225a15.36,15.36,0,0,1-4.19-16.59,15.34,15.34,0,0,1,13.78-10.16,15.21,15.21,0,0,1,5.87.84,15.24,15.24,0,0,1,10.13,13.54Z" fill="#9e9e9e"/></g></g><g id="path-12" data-name="path"><g id="path20_fill" data-name="path20 fill"><path id="path11_fill-2" data-name="path11 fill" d="M56.28,63.83A8.85,8.85,0,0,1,49.57,49a8.82,8.82,0,1,1,6.71,14.88Z" fill="#616262"/></g></g></g></g></g></g></svg>