<svg width="256" height="256" fill="none" xmlns="http://www.w3.org/2000/svg" viewBox="0 0 256 256"><rect width="256" height="256" rx="60" fill="#1a1a1d"/><path d="M135.38,222.25l-5.48-5.61V180.41c0-23.74-.06-36.38-.17-36.69s-.26-.43-.53-.34-17.63,8.83-37.69,19.05c-7.18,3.66-13.07,6.62-13.1,6.6a15.92,15.92,0,0,1,.36-2c2.86-13.52,9.79-29,18.69-41.75A122.6,122.6,0,0,1,134.64,90.8c2.14-1.28,6.07-3.46,6.23-3.46s.08,8.28.08,18.4.05,18.53.11,18.68c.44,1.15,5.33-1.65,8.68-5a23.88,23.88,0,0,0,1.84-32c-1.21-1.5-3.91-4.37-14.49-15.37-10.74-11.16-12.24-12.75-13.76-14.57-3.19-3.81-4.47-7-4.48-11.25a15.24,15.24,0,0,1,1.94-7.84,16.59,16.59,0,0,1,7.27-7,16.28,16.28,0,0,1,5.16-1.68h.45l-.44-.13c-.71-.21,2-.41,3.53-.26,1,.1,1.19.16.86.26s-.42.13.1.14a17.16,17.16,0,0,1,4.94,1.51A21.79,21.79,0,0,1,151,38.35c1.5,2,6.18,9.5,15,24,10,16.5,10.37,17.11,9.9,17.11-.09,0-5.4-5.47-11.8-12.15-15.28-16-14.12-14.75-18.34-19.25-4.92-5.26-6.32-6.58-7.65-7.2A5.76,5.76,0,0,0,131,42.34a5.6,5.6,0,0,0-1.56,3.6,6,6,0,0,0,1.15,3.83c.26.38,6.56,7,14,14.79s14,14.61,14.52,15.24A36.4,36.4,0,0,1,165,89.55a34.87,34.87,0,0,1-8.38,38c-3,2.77-5.45,4.4-11.64,7.59a39.35,39.35,0,0,0-3.77,2.08c-.07.11-.17,20.55-.22,45.43l-.09,45.22Zm-28.33-79.51c13.76-7.06,20.74-10.67,21.49-11.14,1.35-.85,1.27-.09,1.33-12.18,0-5.94,0-11.08-.1-11.4s-.28-.62-.46-.66c-.61-.12-6.42,4.87-11,9.44a112.93,112.93,0,0,0-20.77,28.82c-.81,1.59-.89,2-.36,2,.13,0,4.57-2.22,9.86-4.93ZM78,169.32c0-.21,0-.25.11-.11a.35.35,0,0,1,0,.34c-.06.06-.1-.05-.09-.23Z" fill="#c7324d"/></svg>