<svg width="256" height="256" fill="none" xmlns="http://www.w3.org/2000/svg" viewBox="0 0 256 256"><rect width="256" height="256" rx="60" fill="#242938"/><path d="M64,68.06l42.18,71,0-32.14,24.48,38.25-25.19,39.58L63.8,117l-.09,70.92H34.37V68.06Zm71.52,33.52,12.21,19.17.15.26A43.12,43.12,0,0,1,184,101.58c23.55,0,42.69,19.93,43.16,43.39v.8h0v.29a5.68,5.68,0,0,1-11.35.17v-.47c-.1-3.72-2.14-5.22-4.82-6.33l-.39-.16h0l-.41-.16h0l-.41-.15h0l-2.14-.76h0l-.44-.16h0l-.43-.16h0l-.44-.18-.22-.09-.44-.18h0l-.43-.2a12.17,12.17,0,0,1-4.7-3.59l-.15-.21h0l-.16-.21h0l-.23-.34h0l-.3-.48h0l-1-1.55h0l-.35-.55h0l-.28-.42h0l-.19-.28h0l-.31-.42h0l-.21-.28h0l-.22-.28a1.71,1.71,0,0,1-.11-.14l-.23-.27c-2.3-2.68-5.88-5.09-12.82-5.09a21.63,21.63,0,0,0-21.63,21.63,5.61,5.61,0,0,0,.57,2.35l.11.22,25.81,40.62H160.37l-12.6-19-12.38,19H106.93l27.17-42.77-27.84-43.59Zm91.63,50.31a10.86,10.86,0,0,1-.83,6c-1,2.3-2.4,2.72-3.33,2.7h-.31l-.13,0h0l-.18,0h0l-.15,0h0l-.19-.07h0l-.07,0h0l-.08,0h0l-.13-.07h0l-.1-.07h0l-.11-.09h0l-.12-.09-.06-.06-.12-.12a2,2,0,0,1-.16-2.74,6.05,6.05,0,0,1,2.37-2l.91-.47A5.78,5.78,0,0,0,227.19,151.89ZM135.63,68.06V98.54l-.07.34h-29.3v-.34l0-30.48Z" fill="#fff"/><path d="M180.85,132.11A16.58,16.58,0,0,0,165,142.85a15.8,15.8,0,0,1,18.83-5.94c3.19,1.3,7.38,3.39,10.69,2.27a16.83,16.83,0,0,0-13.69-7.07Z" fill="#fff"/><path d="M214.1,146.53c0-3.59-1.95-4.42-6-5.9-3-1-6.42-2.22-8.91-5.47-.48-.64-.93-1.36-1.41-2.13a17.2,17.2,0,0,0-4.29-5.16c-2.36-1.74-5.47-2.59-9.49-2.59a20,20,0,0,0-18.44,12.35,18.71,18.71,0,0,1,32.17,3.12,6,6,0,0,0,6.72,2.69c4-.85,3.69,2.89,9.67,4.16Z" fill="#fff"/></svg>