<svg width="256" height="256" fill="none" xmlns="http://www.w3.org/2000/svg" viewBox="0 0 256 256"><rect width="256" height="256" rx="60" fill="#f4f2ed"/><path d="M212.36,64h0a8.57,8.57,0,0,0-6-.94h0a8.48,8.48,0,0,0-5.24,3h0a6.52,6.52,0,0,0-1.63,4.2A49.65,49.65,0,0,0,186.2,74a13.52,13.52,0,0,0-6.79-9.18,2.69,2.69,0,0,0-.29-.16L184,60.7a6.66,6.66,0,0,0,3.65,1.18,7.44,7.44,0,0,0,2.91-.39A8.8,8.8,0,0,0,193,60.1a7.45,7.45,0,0,0,2.84-5,6.67,6.67,0,0,0-1.58-5.34,7,7,0,0,0-5.08-2.46h0a7.78,7.78,0,0,0-5.46,1.82v0a7.37,7.37,0,0,0-2.82,4.93v0a6.54,6.54,0,0,0,1,4.57l-5.75,4.66A23.94,23.94,0,0,0,168,62.24a40.33,40.33,0,0,0-13.65,2.89Q152,66,149.8,67a11.82,11.82,0,0,0-2.3-4.87c-1.55-1.81-3.22-2.28-5-1.39-1.54.61-2.78,2.24-3.74,4.89h0a29.08,29.08,0,0,0-1.42,9,92.22,92.22,0,0,0-11.72,10.69,70.91,70.91,0,0,0-22.59,4.31H210.71c-.35-.23-.71-.46-1.1-.68A27.57,27.57,0,0,0,200.14,86a67.4,67.4,0,0,0-13.88-.54,39.81,39.81,0,0,0,.49-4.47,29.08,29.08,0,0,0-.06-4.1A46.17,46.17,0,0,1,200,73.14a7.41,7.41,0,0,0,2.4,2.59l.29.19.33.19a9.16,9.16,0,0,0,11.21-2,6.42,6.42,0,0,0,1.54-5.49A6.33,6.33,0,0,0,212.36,64ZM184,59l-.1-.11.1.1Z" fill="#fff"/><path d="M226.8,92.42a5.89,5.89,0,0,0-4.08.69v0h0A4.91,4.91,0,0,0,221,94.68a46.29,46.29,0,0,0-6.64-.44,8.72,8.72,0,0,0-3.69-4.6H103.05a66.63,66.63,0,0,0-12.61,6.24,13.23,13.23,0,0,1,.72-5,5.38,5.38,0,0,0,2.45-.71l.1-.06.14-.09c.16-.1.34-.21.5-.33H83.87a15.58,15.58,0,0,1-1.64,1.23.14.14,0,0,0-.07.06A14.2,14.2,0,0,1,75.07,93a33.65,33.65,0,0,0,2.37-3.4h-44a12.58,12.58,0,0,0,1.41,3.42c1.17,2,3.4,3.74,6.68,5.13a36.26,36.26,0,0,0,9.75,2.49c.94.13,1.88.22,2.8.29a29.24,29.24,0,0,0-6.15,4.61c-2.65,2.62-3.92,5.13-3.82,7.55-.3.13-.59.26-.88.41l-2.91,1.4,3,1.23a21.1,21.1,0,0,1,5.85,3.45,3.5,3.5,0,0,0,.3,1.37v0a4,4,0,0,0,1.94,2.12h0a4,4,0,0,0,2.85.34h0a3.39,3.39,0,0,0,1.75-1,3.44,3.44,0,0,0,.83-2.87l0-.2-.13-.39a.09.09,0,0,1,0,0l0-.13s0,0,0,0,0,0,0,0a4,4,0,0,0-1.26-1.61h0a3.79,3.79,0,0,0-.67-.43h0a4,4,0,0,0-1.75-.46,5.48,5.48,0,0,1-.54-1.26,2.4,2.4,0,0,1,0-1.22c.65-1.92,3.56-3.53,8.72-4.79l.06.12,1.49,3.38,2.87,5.39c-1.35.81-2.69,1.65-4,2.5l-.09.06a180.93,180.93,0,0,0-16.24,11.81H218.76a2.06,2.06,0,0,0,0-.36v-.52l-.37-.39A109.42,109.42,0,0,0,198,113.15l-1.82-1.23-.48,2.54c-3.46-1.59-6.9-3.08-10.36-4.47A129.41,129.41,0,0,0,203,105.1q10.25-3.84,11.47-8a43.7,43.7,0,0,1,5.82.34,4.6,4.6,0,0,0,1.25,2.71v0a5.92,5.92,0,0,0,3.66,1.94,6,6,0,0,0,4.1-.71h0a4.4,4.4,0,0,0,2.33-3.27h0a4.4,4.4,0,0,0-1.2-3.82,5.9,5.9,0,0,0-3.67-1.94ZM86.43,98.27l.23.16c-1.35,1-2.65,2-3.94,3.06l.23.31-.23-.31-.29-.37-.2-.26.2.26c.38-.2.74-.42,1.1-.64a18.94,18.94,0,0,0,2.9-2.21Z" fill="#fff"/><path d="M115.65,60.84a4.24,4.24,0,0,0-7.23-3v0h0a4.08,4.08,0,0,0-1.23,3c0,.1,0,.2,0,.3-.37.26-.73.51-1.1.75a8.84,8.84,0,0,0-2.27-1.47,9.26,9.26,0,0,0-1.69-.58,6.56,6.56,0,0,0-5.6,1h0a6.67,6.67,0,0,0-3,5L93,66l-.43.18a4.58,4.58,0,0,0-.76.37l0,0a28.32,28.32,0,0,0-4.67,3l-.16.13a18,18,0,0,0-3.89,4.31,12.78,12.78,0,0,0-1.25,2.43,19.32,19.32,0,0,0-.48-5.18,13,13,0,0,0-6.58-8.6c-2.36-1.4-6.07-2.7-11.09-3.91h0c-2.74-.62-4.8-1.11-6.19-1.44-2.41-.6-4.47-1.16-6.16-1.71A30.13,30.13,0,0,1,40.63,50L37.26,47.1l1,4.28a27.79,27.79,0,0,1,.13,11.06v0a97.94,97.94,0,0,1-2.84,10.82,64.3,64.3,0,0,0-2.48,10.25v0a17.53,17.53,0,0,0,.32,6.09H77.44c.58-1,1.13-2,1.65-3.08a30.37,30.37,0,0,0,2.24-6.44,5.36,5.36,0,0,0,.84,2.14l.06.11.09.1a5.71,5.71,0,0,0,4.15,2A4.87,4.87,0,0,0,86.31,87a18.63,18.63,0,0,1-2.44,2.68H94.35a5.84,5.84,0,0,0,1.82-2.37v-.06l.09-.23a5,5,0,0,0-.11-4,4.82,4.82,0,0,0-.5-.84l-.08-.1-.16-.17,0,0A27.37,27.37,0,0,0,100.15,78h0a13.05,13.05,0,0,0,1.22-1.39,6.68,6.68,0,0,0,5.23-1,6.77,6.77,0,0,0,3-5.36,10.88,10.88,0,0,0,0-1.51,8.79,8.79,0,0,0-.33-1.83v0a7.59,7.59,0,0,0-.39-1.1c.36-.3.74-.59,1.14-.9a4.15,4.15,0,0,0,1.42.24,4.05,4.05,0,0,0,3-1.23l0,0a4,4,0,0,0,1.23-3ZM98.83,65.13a2,2,0,0,1,.5-.47,2.43,2.43,0,0,1,2.15-.25,11.14,11.14,0,0,1-2.65.72Zm5.07,6.21-.16.09c.12-.22.25-.45.39-.67l0,0,0,0,.09-.15h0c.17-.25.36-.49.56-.74a2.39,2.39,0,0,1-.94,1.56Zm-.15-.21,0-.06a.12.12,0,0,0,0,.07Z" fill="#fff"/><path d="M39.56,136.87l-.45.39,0,.59A86.31,86.31,0,0,0,44,172.75a1.39,1.39,0,0,0,.94.91l.07,0H45l4,1h135.4q1.32-2.16,2.44-4.39a39.12,39.12,0,0,0,2.25-5l2.67.45,1.55-1.84,1,10.82h3.77l5.11-.38h.19l.2,0,11.51-3.44-3-18.67,4.39-3.51h0l0,0a1.41,1.41,0,0,0,.47-.74,54.53,54.53,0,0,0,1.65-15.69H45.12q-2.8,2.26-5.56,4.69Z" fill="#fff"/><path d="M70.88,181.31h0v0A3.65,3.65,0,0,0,69,184h0a4.42,4.42,0,0,0,.58,3.21v0a4.51,4.51,0,0,0,.64.85l-1,2.81A39.56,39.56,0,0,0,65.11,189h0c-.49-.2-1-.39-1.45-.56l-1.73-.64-1,10c-2.34,2.82-3.61,5.52-3.82,8.08h0c-.3,3.14.91,5.92,3.68,8.35a10.69,10.69,0,0,0,9.38,2.87,12.24,12.24,0,0,0,8-5.53l10.32-2.91-1.3-1.69c-.91-1.18-1.82-2.29-2.76-3.38l3.85-1.85a4.53,4.53,0,0,0,3.69.48h0a3.54,3.54,0,0,0,2.17-1.64,68.62,68.62,0,0,0,30.31,6.62,70.72,70.72,0,0,0,31.18-6.83l2.36-1.19a72.41,72.41,0,0,0,13.94-9.77,66.62,66.62,0,0,0,12.51-14.66H49l14.56,3.67,3.13-3.46a55.27,55.27,0,0,0,4.15,6.39Zm5.72,6.57c.49.49,1,1,1.51,1.46s1.3,1.22,2,1.81l-3.61,4.69h0s0,0-.06-.05l-.17-.14h0c-1-.86-2.56-1.93-4.5-3.23l1.06-2.9a3.59,3.59,0,0,0,2.56-.46h0a3.67,3.67,0,0,0,1.27-1.17ZM82.3,193c1.58,1.28,3.22,2.46,4.9,3.58a3.11,3.11,0,0,0-.34.52h0a3.06,3.06,0,0,0-.29,2.2l-4.15,2-.09-.09c-1.18-1.25-2.4-2.42-3.63-3.52L82.3,193Z" fill="#fff"/><polygon points="194.39 174.71 194.42 174.98 198.16 174.71 194.39 174.71 194.39 174.71" fill="#fff"/><path d="M82.43,101.12l-.2-.26m.72.94-.23-.31" fill="none" stroke="#fff" stroke-miterlimit="10" stroke-width="0.01"/><path d="M223.59,96.56a45.66,45.66,0,0,0-12.38-.74" fill="none" stroke="#000" stroke-linecap="round" stroke-linejoin="round" stroke-width="1.45"/><path d="M202.53,103.74Q214.28,99.35,213.1,95c-.51-1.87-1.9-3.44-4.2-4.73a26.32,26.32,0,0,0-9-2.75q-11.86-1.8-28.8,1.4l-3,22.73q22.56-3.45,34.45-7.86Z" fill="#00746b"/><path d="M212.15,95.33c-.47-1.55-1.82-2.8-4-3.77a26.87,26.87,0,0,0-8.64-1.79q-11.44-.84-27.74,2.88l-2.92,19.45q21.74-4.25,33.16-8.7t10.17-8.07Z" fill="#2a5953"/><path d="M168.08,111.6q22.56-3.45,34.45-7.86T213.1,95c-.51-1.87-1.9-3.44-4.2-4.73a26.32,26.32,0,0,0-9-2.75q-11.86-1.8-28.8,1.4" fill="none" stroke="#000" stroke-linecap="round" stroke-linejoin="round" stroke-width="1.45"/><path d="M229.38,95.31a5,5,0,0,0-5.95-.94,3.16,3.16,0,0,0-1.62,2.25,3.09,3.09,0,0,0,.85,2.62,5,5,0,0,0,6,.94A3,3,0,0,0,230.23,98a3.08,3.08,0,0,0-.85-2.64Z" fill="#f26d7d"/><path d="M229.18,96.75a3.12,3.12,0,0,0-1.86-1,3.18,3.18,0,0,0-2.07.34,2.12,2.12,0,0,0-1.07,1.48,2,2,0,0,0,.57,1.74,3.06,3.06,0,0,0,1.85,1,3.13,3.13,0,0,0,2.08-.36,2,2,0,0,0,1.06-1.47,2,2,0,0,0-.56-1.73Z" fill="#b25963"/><path d="M226.57,93.85a4.64,4.64,0,0,0-3.14.52,3.16,3.16,0,0,0-1.62,2.25,3.09,3.09,0,0,0,.85,2.62,5,5,0,0,0,6,.94A3,3,0,0,0,230.23,98a3.08,3.08,0,0,0-.85-2.64,4.63,4.63,0,0,0-2.81-1.46Z" fill="none" stroke="#000" stroke-linecap="round" stroke-linejoin="round" stroke-width="1.45"/><path d="M204.61,94.37a3.76,3.76,0,0,0-1.72-3.07,7.4,7.4,0,0,0-8.29,0,3.61,3.61,0,0,0,0,6.14,7.35,7.35,0,0,0,8.29,0,3.75,3.75,0,0,0,1.72-3.07Z" fill="#ffd064"/><path d="M202.89,91.3a7.4,7.4,0,0,0-8.29,0,3.61,3.61,0,0,0,0,6.14,7.35,7.35,0,0,0,8.29,0,3.6,3.6,0,0,0,0-6.14Z" fill="none" stroke="#000" stroke-linecap="round" stroke-linejoin="round" stroke-width="0.87"/><path d="M199.84,94.05A1.32,1.32,0,0,0,199.2,93a2.86,2.86,0,0,0-3.08,0,1.3,1.3,0,0,0-.63,1.07,1.32,1.32,0,0,0,.63,1.08,2.91,2.91,0,0,0,3.08,0,1.33,1.33,0,0,0,.64-1.08Z" fill="#2f211e"/><path d="M199.2,93a2.86,2.86,0,0,0-3.08,0,1.3,1.3,0,0,0-.63,1.07,1.32,1.32,0,0,0,.63,1.08,2.91,2.91,0,0,0,3.08,0,1.33,1.33,0,0,0,.64-1.08A1.32,1.32,0,0,0,199.2,93Z" fill="none" stroke="#000" stroke-linecap="round" stroke-linejoin="round" stroke-width="0.87"/><path d="M203,71.36a49.06,49.06,0,0,0-17.83,4.7m-.55-17.73-9.07,7.37" fill="none" stroke="#000" stroke-linecap="round" stroke-linejoin="round" stroke-width="1.45"/><path d="M168,63.69a39.15,39.15,0,0,0-13.17,2.79,55.83,55.83,0,0,0-6,2.69,12.68,12.68,0,0,0-2.37-6.06c-1-1.2-2.13-1.55-3.29-1s-2.18,1.9-3,4.07a29.15,29.15,0,0,0-1.34,9.22,91.44,91.44,0,0,0-12.51,11.36q16,18.77,50.47,22.77c1.23-2.76,2.42-5.61,3.55-8.58a18.33,18.33,0,0,0,7.6-.77c1.84-.66,2.94-1.58,3.3-2.73s-.12-2.2-1.43-3.14a13.44,13.44,0,0,0-6.56-2A52.1,52.1,0,0,0,185.3,81q.6-10.89-6.6-14.89A20.81,20.81,0,0,0,168,63.69Z" fill="#7cc576"/><path d="M175.9,68.74Q167.67,65.8,157,70.87a42.56,42.56,0,0,0-17.69,16q15.16,6.21,37.46,20.54c.84-1.38,1.5-2.52,2-3.46a26.84,26.84,0,0,0,1.52-3.5,14.3,14.3,0,0,0,6.13-.77c1.89-.72,2.75-1.69,2.54-2.89-.24-1.47-2.73-2.25-7.45-2.35A66.38,66.38,0,0,0,182.55,87a36.69,36.69,0,0,0-.16-8.63,14.74,14.74,0,0,0-1.6-5,12.75,12.75,0,0,0-2.33-2.94,7.69,7.69,0,0,0-2.56-1.65Z" fill="#6f9b64"/><path d="M176.76,109.51c1.23-2.76,2.42-5.61,3.55-8.58a18.33,18.33,0,0,0,7.6-.77c1.84-.66,2.94-1.58,3.3-2.73s-.12-2.2-1.43-3.14a13.44,13.44,0,0,0-6.56-2A52.1,52.1,0,0,0,185.3,81q.6-10.89-6.6-14.89A20.81,20.81,0,0,0,168,63.69a39.15,39.15,0,0,0-13.17,2.79,55.83,55.83,0,0,0-6,2.69,12.68,12.68,0,0,0-2.37-6.06c-1-1.2-2.13-1.55-3.29-1s-2.18,1.9-3,4.07a29.15,29.15,0,0,0-1.34,9.22,91.44,91.44,0,0,0-12.51,11.36" fill="none" stroke="#000" stroke-linecap="round" stroke-miterlimit="10" stroke-width="1.45"/><path d="M166.07,69.11a12.22,12.22,0,0,0-7.88,2.22,10.14,10.14,0,0,0-4.37,6.32,7.49,7.49,0,0,0,1.72,6.69,9.19,9.19,0,0,0,6.78,3.17,12,12,0,0,0,7.89-2.24A10,10,0,0,0,174.55,79a7.48,7.48,0,0,0-1.69-6.7,9.4,9.4,0,0,0-6.79-3.15Z" fill="none" stroke="#7cc576" stroke-linecap="round" stroke-linejoin="round" stroke-width="2.32"/><path d="M174.62,78.81a7.49,7.49,0,0,0-1.69-6.7A9.41,9.41,0,0,0,166.14,69a12.17,12.17,0,0,0-7.87,2.21,10.18,10.18,0,0,0-4.38,6.33,7.46,7.46,0,0,0,1.73,6.69,9.23,9.23,0,0,0,6.77,3.17,12,12,0,0,0,7.89-2.25,9.86,9.86,0,0,0,4.34-6.31Z" fill="#fff356"/><path d="M160.05,73.82a8.63,8.63,0,0,0-3.77,5.3,6.2,6.2,0,0,0,1.32,5.6,7.62,7.62,0,0,0,5.63,2.65,10.19,10.19,0,0,0,6.64-1.88,8.5,8.5,0,0,0,3.74-5.29,6.21,6.21,0,0,0-1.3-5.61A7.73,7.73,0,0,0,166.66,72a10.25,10.25,0,0,0-6.61,1.85Z" fill="#cbbb4e"/><path d="M166.14,69a12.17,12.17,0,0,0-7.87,2.21,10.18,10.18,0,0,0-4.38,6.33,7.46,7.46,0,0,0,1.73,6.69,9.23,9.23,0,0,0,6.77,3.17,12,12,0,0,0,7.89-2.25,9.86,9.86,0,0,0,4.34-6.31,7.49,7.49,0,0,0-1.69-6.7A9.41,9.41,0,0,0,166.14,69Z" fill="none" stroke="#000" stroke-linecap="round" stroke-linejoin="round" stroke-width="0.87"/><path d="M160.39,71.3A2.78,2.78,0,0,0,159.22,73a1.9,1.9,0,0,0,.41,1.75,2.31,2.31,0,0,0,1.75.81,3.18,3.18,0,0,0,2.07-.58,2.69,2.69,0,0,0,1.16-1.65,1.93,1.93,0,0,0-.41-1.73,2.33,2.33,0,0,0-1.75-.83,3.3,3.3,0,0,0-2.06.58Z" fill="#fff356"/><path d="M161.94,75.56a6.36,6.36,0,0,0-3.5.81,3.78,3.78,0,0,0-1.94,2.33,2.37,2.37,0,0,0,.77,2.44,4.58,4.58,0,0,0,3,1.18,6.42,6.42,0,0,0,3.5-.83,3.73,3.73,0,0,0,1.93-2.32,2.41,2.41,0,0,0-.76-2.46,4.55,4.55,0,0,0-3-1.15Z" fill="#6f4d4a"/><path d="M158.44,76.37a3.78,3.78,0,0,0-1.94,2.33,2.37,2.37,0,0,0,.77,2.44,4.58,4.58,0,0,0,3,1.18,6.42,6.42,0,0,0,3.5-.83,3.73,3.73,0,0,0,1.93-2.32,2.41,2.41,0,0,0-.76-2.46,4.55,4.55,0,0,0-3-1.15,6.36,6.36,0,0,0-3.5.81Z" fill="none" stroke="#000" stroke-linecap="round" stroke-linejoin="round" stroke-width="0.87"/><path d="M189.07,48.78a6.46,6.46,0,0,0-4.49,1.5,6.05,6.05,0,0,0-2.3,4,5.23,5.23,0,0,0,1.24,4.21,5.46,5.46,0,0,0,4.09,1.94A6.34,6.34,0,0,0,192.08,59a6,6,0,0,0,2.31-4,5.17,5.17,0,0,0-1.24-4.21,5.61,5.61,0,0,0-4.08-1.95Z" fill="#f26d7d"/><path d="M192.73,53a4.1,4.1,0,0,0-2.94-1.4,4.59,4.59,0,0,0-3.23,1.08,4.35,4.35,0,0,0-1.66,2.88,3.76,3.76,0,0,0,.9,3A4,4,0,0,0,188.73,60,4.58,4.58,0,0,0,192,58.9a4.38,4.38,0,0,0,1.67-2.9,3.79,3.79,0,0,0-.9-3Z" fill="#c25e69"/><path d="M184.58,50.28a6.05,6.05,0,0,0-2.3,4,5.23,5.23,0,0,0,1.24,4.21,5.46,5.46,0,0,0,4.09,1.94A6.34,6.34,0,0,0,192.08,59a6,6,0,0,0,2.31-4,5.17,5.17,0,0,0-1.24-4.21,5.61,5.61,0,0,0-4.08-1.95,6.46,6.46,0,0,0-4.49,1.5Z" fill="none" stroke="#000" stroke-linecap="round" stroke-linejoin="round" stroke-width="1.45"/><path d="M206.67,64.51a7.16,7.16,0,0,0-4.4,2.48,5.08,5.08,0,0,0-1.22,4.28,5,5,0,0,0,2.65,3.58,7.76,7.76,0,0,0,9.38-1.7,5,5,0,0,0,1.23-4.3,5,5,0,0,0-2.66-3.56,7.17,7.17,0,0,0-5-.78Z" fill="#f26d7d"/><path d="M208.43,67.52a5.65,5.65,0,0,0-3.47,1,3.87,3.87,0,0,0-1.78,2.66,3.13,3.13,0,0,0,1,2.8,4.67,4.67,0,0,0,3.17,1.29,5.53,5.53,0,0,0,3.46-1,4,4,0,0,0,1.79-2.68,3.11,3.11,0,0,0-1-2.79,4.64,4.64,0,0,0-3.16-1.31Z" fill="#c25e69"/><path d="M202.27,67a5.08,5.08,0,0,0-1.22,4.28,5,5,0,0,0,2.65,3.58,7.76,7.76,0,0,0,9.38-1.7,5,5,0,0,0,1.23-4.3,5,5,0,0,0-2.66-3.56,7.69,7.69,0,0,0-9.38,1.7Z" fill="none" stroke="#000" stroke-linecap="round" stroke-linejoin="round" stroke-width="1.45"/><path d="M145.51,67.16a1.16,1.16,0,0,0-1.68-.35c-1.31.89-2.21,3.43-2.69,7.66l5.72-3.85a7.72,7.72,0,0,0-1.35-3.46Z" fill="#6f9b64"/><path d="M173.74,104.13Q155.3,86.72,128.39,86.72T81.87,104.13q-19.59,17.43-20.4,42.08t17.62,42.07q18.45,17.44,45.36,17.43T171,188.28q19.6-17.43,20.42-42.07t-17.64-42.08Z" fill="#c6996d"/><path d="M139.26,87a100.52,100.52,0,0,1,13,7.53,62,62,0,0,1,8.82,7.44q-17.42-8.73-34.81-7.43a58.86,58.86,0,0,0-28.88,10.11,61.24,61.24,0,0,0-19.5,21Q70.76,138.3,71.17,151c0,.42,0,1,0,1.68s0,1.36,0,1.68l-6,2-2.32,8.25,7.24,13,4.4-4.79a54.49,54.49,0,0,0,4.73,7.77A73.91,73.91,0,0,0,85.52,188q15.6,16,38.9,16a58,58,0,0,0,40.66-16,71.46,71.46,0,0,0,8.76-9.54A61,61,0,0,0,180.12,168L186,169.8l3.33-9.26-6.63-1.67a57.67,57.67,0,0,0,1-7.89q.67-12.57-1.52-21.27a39.58,39.58,0,0,0-6.8-14.35l2-7.82A62.89,62.89,0,0,0,139.26,87Z" fill="#8f6c5e"/><path d="M128.39,86.72q-26.89,0-46.52,17.41t-20.4,42.08q-.8,24.64,17.62,42.07t45.36,17.43q26.91,0,46.51-17.43t20.42-42.07q.81-24.65-17.64-42.08T128.39,86.72Z" fill="none" stroke="#000" stroke-linecap="round" stroke-linejoin="round" stroke-width="1.45"/><path d="M106.62,64.7a8,8,0,0,0-4.47-3.36,5.38,5.38,0,0,0-4.81.65A5.5,5.5,0,0,0,95,66.23a8.14,8.14,0,0,0,1.51,5.4A8,8,0,0,0,101,75a5.37,5.37,0,0,0,7.16-4.9,8,8,0,0,0-1.49-5.38Zm-9.76,1.81a3.89,3.89,0,0,1,1.65-3.06A3.82,3.82,0,0,1,102,63a6.51,6.51,0,0,1,4.38,6.42,3.76,3.76,0,0,1-1.62,3.07,3.85,3.85,0,0,1-3.46.41A6,6,0,0,1,98,70.45a6.07,6.07,0,0,1-1.15-3.94Z" fill="#9ddff9"/><polygon points="108 67.1 107.1 65.22 105.75 66.5 106.16 68.77 108 67.1 108 67.1" fill="#86adc0"/><path d="M102.15,61.34a5.38,5.38,0,0,0-4.81.65A5.5,5.5,0,0,0,95,66.23a8.14,8.14,0,0,0,1.51,5.4A8,8,0,0,0,101,75a5.37,5.37,0,0,0,7.16-4.9,8.67,8.67,0,0,0-6-8.74Zm-5.29,5.17A6.07,6.07,0,0,0,98,70.45a6,6,0,0,0,3.24,2.49,3.85,3.85,0,0,0,3.46-.41,3.76,3.76,0,0,0,1.62-3.07A6.51,6.51,0,0,0,102,63a3.82,3.82,0,0,0-3.44.41,3.89,3.89,0,0,0-1.65,3.06Z" fill="none" stroke="#000" stroke-linecap="round" stroke-linejoin="round" stroke-width="0.87"/><path d="M92.77,81.87a3.68,3.68,0,0,0-2.85.45,4.23,4.23,0,0,0-2,2.33,3.68,3.68,0,0,0-.06,2.59A17.7,17.7,0,0,1,83,92.09a19.51,19.51,0,0,0,3.29,4.24,12.63,12.63,0,0,0,3,2.12,15.28,15.28,0,0,1,.93-9.17A3.69,3.69,0,0,0,93,88.81a4.18,4.18,0,0,0,2-2.34,3.57,3.57,0,0,0-.07-2.87,3,3,0,0,0-2.07-1.73Z" fill="#543e3c"/><path d="M59.84,99.8a32.31,32.31,0,0,0-10.94,6.8c-2.67,2.62-3.75,5.13-3.25,7.49a13.11,13.11,0,0,1,5.24-.63q.9-4,11-6.23a70.57,70.57,0,0,0,9,16.35l21.71-9a80.08,80.08,0,0,1-12.45-14.06,17.1,17.1,0,0,0,6.07-4.22A19.51,19.51,0,0,1,83,92.09a15.75,15.75,0,0,1-9,2.4q-.21,11,4.91,24.17a74.78,74.78,0,0,1-11.12-8.93,58.14,58.14,0,0,1-8-9.93Z" fill="#ffd064"/><path d="M50.68,119a1.87,1.87,0,0,0,.08,1.37A2.68,2.68,0,0,0,52,121.79a2.61,2.61,0,0,0,1.85.23,2,2,0,0,0,1.36-2.71A2.61,2.61,0,0,0,54,117.94a2.52,2.52,0,0,0-1.83-.23,5.28,5.28,0,0,1-1.26-4.25,13.11,13.11,0,0,0-5.24.63,11,11,0,0,0-1.83.74A22.64,22.64,0,0,1,50.68,119Z" fill="#543e3c"/><path d="M68.44,93.68,61.05,97a20,20,0,0,1-1.21,2.81,58.14,58.14,0,0,0,8,9.93,74.78,74.78,0,0,0,11.12,8.93Q73.8,105.46,74,94.49a25,25,0,0,1-5.58-.81Z" fill="#543e3c"/><path d="M51.37,119a1.63,1.63,0,0,0,.55,2.37,2.9,2.9,0,0,0,3.14-.06c.8-2.34-.13-3.54-2.75-3.62a6.18,6.18,0,0,1-1.59-4.25H48.16A9.23,9.23,0,0,0,51.37,119Z" fill="#3a2b29"/><path d="M94.22,82.49l-1.31-.94-4.19,1.81,1.66.72a3.77,3.77,0,0,0-1.09,3.55,27.91,27.91,0,0,1-2.4,3.6,11.93,11.93,0,0,1-2.82,2.61l2.34,2.88c.54-.18.86-.16.93,0a17.93,17.93,0,0,1,2.39-8c4.67.93,6.18-1.14,4.49-6.22Z" fill="#3a2b29"/><path d="M48.16,113.48h2.56c.27-2.9,4-5,11-6.46l5.69,11.29,1.81-1,14.08-7.37q-3.54-5.86-4.21-9.6c4.4-1,6.85-2.2,7.32-3.57l-2.34-2.88a11.62,11.62,0,0,1-5.88,2.34A12.26,12.26,0,0,1,72,95.08l-11.65,5.29a36.57,36.57,0,0,0-9.05,6.71q-3.45,3.67-3.14,6.4Z" fill="#cba357"/><path d="M93,81.17h0a4.34,4.34,0,0,0-3.39.52,5,5,0,0,0-2.28,2.71,4.28,4.28,0,0,0-.18,2.72,16.92,16.92,0,0,1-4.47,4.36A15,15,0,0,1,74,93.76,24.52,24.52,0,0,1,68.62,93l-.24,0-7.9,3.54-.11.31a18.59,18.59,0,0,1-1,2.46,32.49,32.49,0,0,0-10.93,6.86c-2.65,2.6-3.84,5.11-3.55,7.51-.45.16-.89.35-1.34.56l-1.45.71,1.5.63a21.41,21.41,0,0,1,6.33,3.79,2.57,2.57,0,0,0,.22,1.39h0a3.38,3.38,0,0,0,1.6,1.74h0a3.31,3.31,0,0,0,2.34.29,2.61,2.61,0,0,0,1.8-1.42h0a2.67,2.67,0,0,0,.07-2.28h0a3.37,3.37,0,0,0-1.61-1.74,3.44,3.44,0,0,0-1.82-.38,4.4,4.4,0,0,1-.89-3.3q.9-3.45,9.89-5.54A71.4,71.4,0,0,0,70.39,124l.33.45L94,114.84l-.84-.77a79.94,79.94,0,0,1-11.84-13.21,17.59,17.59,0,0,0,5-3.52A13.72,13.72,0,0,0,89,99.11l1.29.66L90,98.32a14.49,14.49,0,0,1,.68-8.23,4.49,4.49,0,0,0,2.65-.64,5.09,5.09,0,0,0,2.27-2.73h0a4.25,4.25,0,0,0-.1-3.43h0A3.77,3.77,0,0,0,93,81.17Zm-43.56,26a31.52,31.52,0,0,1,10.71-6.64l.13-.06.12,0,.13-.25a22,22,0,0,0,1.16-2.6l6.86-3.08a25.65,25.65,0,0,0,5.5.76h0a16.5,16.5,0,0,0,9-2.27,19.19,19.19,0,0,0,2.47,3.2,16.86,16.86,0,0,1-5.56,3.75l-.79.36.49.71a78.88,78.88,0,0,0,11.72,13.42L71.22,122.7A70.18,70.18,0,0,1,62.6,107l-.23-.58-.61.13C54.86,108,51,110.21,50.26,113a13.57,13.57,0,0,0-4,.45q-.26-3,3.11-6.33Zm2.17,11,.26.38.51-.1a1.78,1.78,0,0,1,1.32.17h0a1.84,1.84,0,0,1,.94,1,1.27,1.27,0,0,1,0,1.08h0a1.2,1.2,0,0,1-.84.65,2,2,0,0,1-1.35-.17,1.89,1.89,0,0,1-.93-1h0a1.21,1.21,0,0,1-.06-.87l.13-.48-.33-.29a24.29,24.29,0,0,0-5.73-3.76l1-.42a12.64,12.64,0,0,1,3.68-.46,6.18,6.18,0,0,0,1.47,4.28ZM90.28,83a3,3,0,0,1,2.31-.37,2.32,2.32,0,0,1,1.6,1.33h0a2.91,2.91,0,0,1,0,2.3,3.55,3.55,0,0,1-1.64,2,3.05,3.05,0,0,1-2.22.39l-.6-.13-.23.54a15.64,15.64,0,0,0-1.2,8.08,14.48,14.48,0,0,1-2.26-1.57,20.4,20.4,0,0,1-2.33-3,18.48,18.48,0,0,0,4.73-4.8l.22-.29L88.57,87a2.93,2.93,0,0,1,.06-2.08v0A3.5,3.5,0,0,1,90.28,83Z"/><path d="M74,95.21h0a25.65,25.65,0,0,1-5.5-.76l-6.86,3.08a22,22,0,0,1-1.16,2.6l-.13.25-.12,0a57.71,57.71,0,0,0,7.57,9.31,74.78,74.78,0,0,0,11.12,8.93Q74,105.9,74,95.21Z" fill="#543e3c"/><path d="M74,95.21q0,10.68,4.91,23.45a74.78,74.78,0,0,1-11.12-8.93,57.71,57.71,0,0,1-7.57-9.31" fill="none" stroke="#000" stroke-linecap="round" stroke-linejoin="round" stroke-width="0.29"/><path d="M110.38,61.78l-.76-.66c-4.32,3.32-7.88,5.13-10.67,5.46a4.49,4.49,0,0,0,3.34,4.53c1.15-2.56,3.93-5.43,8.37-8.57l-.28-.76Z" fill="#94625e"/><path d="M99,66.58c-1.38,0-2.39.1-3,.18a9.85,9.85,0,0,0-3.46,1.08,21.14,21.14,0,0,0-8.18,7c-1.68,2.62-2,4.85-.87,6.67q2.11,2.4,6.63,1.16A20.91,20.91,0,0,0,99.14,77a10.08,10.08,0,0,0,2.08-3c.25-.62.61-1.58,1.07-2.87A4.49,4.49,0,0,1,99,66.58Z" fill="#f26d7d"/><path d="M108.82,63.32v-1c-4,3.61-7,5.86-9.18,6.78L102,71.29a41.88,41.88,0,0,1,6.8-8Z" fill="#74504d"/><path d="M86.34,80.78c1.06,1.2,2.74,1.51,5,.88a13.72,13.72,0,0,0,5.81-3,15.14,15.14,0,0,0,2.75-3c.3-.59.68-1.31,1.13-2.17a8.33,8.33,0,0,1,1-2.18l-2.38-2.23a5.34,5.34,0,0,1-1.53.43,7.36,7.36,0,0,0-2.5.45,21.16,21.16,0,0,0-3.52,2.34,42,42,0,0,0-4.79,4.19c-1.47,1.49-1.78,2.94-1,4.31Z" fill="#a3555c"/><path d="M102.29,71.11A4.49,4.49,0,0,1,99,66.58" fill="none" stroke="#000" stroke-linecap="round" stroke-linejoin="round" stroke-width="0.87"/><path d="M110.38,61.78l.28.76c-4.44,3.14-7.22,6-8.37,8.57-.46,1.29-.82,2.25-1.07,2.87a10.08,10.08,0,0,1-2.08,3A20.91,20.91,0,0,1,90,82.66q-4.52,1.25-6.63-1.16c-1.1-1.82-.81-4,.87-6.67a21.14,21.14,0,0,1,8.18-7,9.85,9.85,0,0,1,3.46-1.08c.65-.08,1.66-.14,3-.18,2.79-.33,6.35-2.14,10.67-5.46l.76.66Z" fill="none" stroke="#000" stroke-linecap="round" stroke-linejoin="round" stroke-width="1.45"/><polyline points="88.19 74.99 86.46 76.58 88.34 77.38 89.42 79.71 90.87 77.09 94.49 76.87 92.75 74.92 92.75 72.17 90.36 73.25" fill="none" stroke="#f26d7d" stroke-linecap="round" stroke-linejoin="round" stroke-width="1.45"/><path d="M114.21,60.84a2.8,2.8,0,0,0-2.8-2.8,2.77,2.77,0,0,0-2.79,2.8,2.66,2.66,0,0,0,.81,2,2.71,2.71,0,0,0,2,.83,2.83,2.83,0,0,0,2.8-2.79Z" fill="#f26d7d"/><path d="M113.38,58.85a2.73,2.73,0,0,0-2-.81,2.77,2.77,0,0,0-2.79,2.8,2.66,2.66,0,0,0,.81,2,2.71,2.71,0,0,0,2,.83,2.83,2.83,0,0,0,2.8-2.79,2.73,2.73,0,0,0-.83-2Z" fill="none" stroke="#000" stroke-linecap="round" stroke-linejoin="round" stroke-width="1.45"/><polygon points="92.7 72.02 91.48 72.59 86.98 76.69 88.28 77.23 89.37 79.56 90.81 76.94 94.43 76.73 92.7 74.77 92.7 72.02 92.7 72.02" fill="#ffd064"/><polygon points="91.48 72.59 90.31 73.11 88.28 71.95 88.14 74.85 86.4 76.44 86.98 76.69 91.48 72.59 91.48 72.59" fill="#fff"/><polygon points="91.48 72.59 90.31 73.11 88.28 71.95 88.14 74.85 86.4 76.44 86.98 76.69 88.28 77.23 89.37 79.56 90.81 76.94 94.43 76.73 92.7 74.77 92.7 72.02 91.48 72.59 91.48 72.59" fill="none" stroke="#000" stroke-linecap="round" stroke-linejoin="round" stroke-width="0.58"/><path d="M108.11,70.08a9.14,9.14,0,0,0,0-1.28h-1.78a4.9,4.9,0,0,1,0,.66,3.76,3.76,0,0,1-1.62,3.07,3.85,3.85,0,0,1-3.46.41A6,6,0,0,1,98,70.45a6.07,6.07,0,0,1-1.15-3.94,3.89,3.89,0,0,1,1.65-3.06A3.82,3.82,0,0,1,102,63a.8.8,0,0,1,.2.07V61.34a5.38,5.38,0,0,0-4.81.65A5.5,5.5,0,0,0,95,66.23a8.14,8.14,0,0,0,1.51,5.4A8,8,0,0,0,101,75a5.37,5.37,0,0,0,7.16-4.9Z" fill="#9ddff9"/><path d="M106.35,68.8a4.9,4.9,0,0,1,0,.66,3.76,3.76,0,0,1-1.62,3.07,3.85,3.85,0,0,1-3.46.41A6,6,0,0,1,98,70.45a6.07,6.07,0,0,1-1.15-3.94,3.89,3.89,0,0,1,1.65-3.06A3.82,3.82,0,0,1,102,63a.8.8,0,0,1,.2.07m0-1.77a5.38,5.38,0,0,0-4.81.65A5.5,5.5,0,0,0,95,66.23a8.14,8.14,0,0,0,1.51,5.4A8,8,0,0,0,101,75a5.37,5.37,0,0,0,7.16-4.9,9.14,9.14,0,0,0,0-1.28" fill="none" stroke="#000" stroke-linecap="round" stroke-linejoin="round" stroke-width="0.87"/><path d="M79.91,71.62A11.74,11.74,0,0,0,74,64a41.81,41.81,0,0,0-10.7-3.75c-2.73-.62-4.79-1.12-6.19-1.45q-3.69-.89-6.27-1.74a31.31,31.31,0,0,1-11.19-6,29,29,0,0,1,.15,11.64,97.52,97.52,0,0,1-2.88,11,60.68,60.68,0,0,0-2.42,10A13.69,13.69,0,0,0,36,92.32c1.06,1.78,3.07,3.3,6,4.54a34.33,34.33,0,0,0,9.35,2.39,41.24,41.24,0,0,0,9.7.19,15.85,15.85,0,0,0,7.09-2.06,27.68,27.68,0,0,0,9.58-11.45q3.67-7.73,2.14-14.31Z" fill="#935a8c"/><path d="M74,64a41.81,41.81,0,0,0-10.7-3.75c-2.73-.62-4.79-1.12-6.19-1.45q-3.69-.89-6.27-1.74a31.31,31.31,0,0,1-11.19-6,29,29,0,0,1,.15,11.64,97.52,97.52,0,0,1-2.88,11,60.68,60.68,0,0,0-2.42,10A13.69,13.69,0,0,0,36,92.32c1.06,1.78,3.07,3.3,6,4.54a34.33,34.33,0,0,0,9.35,2.39,41.24,41.24,0,0,0,9.7.19,15.85,15.85,0,0,0,7.09-2.06,27.68,27.68,0,0,0,9.58-11.45q3.67-7.73,2.14-14.31A11.74,11.74,0,0,0,74,64Z" fill="none" stroke="#000" stroke-linecap="round" stroke-miterlimit="10" stroke-width="1.45"/><path d="M78.35,76.53A12,12,0,0,0,73.72,68c-2.77-2.22-5.36-3.45-7.8-3.67a68.08,68.08,0,0,1-7.66-1.18,48,48,0,0,1-7.5-2.22,38.74,38.74,0,0,1-7.9-4.49,23.08,23.08,0,0,1-.33,9.93,77.75,77.75,0,0,1-3.06,9.28,51.05,51.05,0,0,0-2.59,8.43,11.06,11.06,0,0,0,1.06,7.41,15.12,15.12,0,0,0,4.34,4.46,17.51,17.51,0,0,0,8,2.75,66.19,66.19,0,0,0,9.59.53,15.9,15.9,0,0,0,8.31-2.47q3.72-2.37,7.21-8.69t3-11.53Z" fill="#674654"/><path d="M69.58,65.31a7.8,7.8,0,0,1,6,4.72c1.31,3,1.07,6.64-.69,11a51,51,0,0,1-2.91,6.18c-.25.43-.49.84-.74,1.2a14.23,14.23,0,0,1-3.56,3.83,9.33,9.33,0,0,1-.94.6,11.81,11.81,0,0,1-5.28,1.37c-.35,0-.71,0-1.07,0a35.59,35.59,0,0,1-9.25-1.77c-4.46-1.34-7.65-3.33-9.57-5.92a6.91,6.91,0,0,1-1.23-7q1.38-3.49,5.87-4.82,5-1.45,11.73.65A10.64,10.64,0,0,1,62,67a9,9,0,0,1,7.56-1.72Z" fill="none" stroke="#935a8c" stroke-linecap="round" stroke-miterlimit="10" stroke-width="2.61"/><path d="M69.44,65a9,9,0,0,0-7.56,1.72,10.65,10.65,0,0,0-4.13,8.35Q51,73,46,74.44c-3,.88-5,2.49-5.88,4.82s-.5,4.66,1.23,7c1.93,2.59,5.11,4.58,9.57,5.92a56.42,56.42,0,0,1,6.25-4.48,53.33,53.33,0,0,1,5.92-3.16,51.64,51.64,0,0,1,6.45-2.46c1.67-.52,3.38-1,5.13-1.33,1.77-4.36,2-8,.7-11a7.81,7.81,0,0,0-6-4.72Z" fill="#ffca6d"/><path d="M74.7,80.74c-1.75.36-3.46.81-5.13,1.33l2.22,4.85a51,51,0,0,0,2.91-6.18Z" fill="#fff"/><path d="M57.2,87.69A56.42,56.42,0,0,0,51,92.17a35.67,35.67,0,0,0,9.25,1.77c.36,0,.72,0,1.07,0L57.2,87.69Z" fill="#fff"/><path d="M71.06,88.12c.24-.36.49-.77.73-1.2l-2.22-4.85a51.64,51.64,0,0,0-6.45,2.46L67.5,92a14.61,14.61,0,0,0,3.56-3.84Z" fill="#fff"/><path d="M66.55,92.55a10.63,10.63,0,0,0,1-.59l-4.38-7.43a53.33,53.33,0,0,0-5.92,3.16l4.07,6.23a11.78,11.78,0,0,0,5.28-1.37Z" fill="#fff"/><path d="M51,92.17c-4.46-1.34-7.64-3.33-9.57-5.92q-2.6-3.5-1.23-7c.93-2.33,2.88-3.94,5.88-4.82q5-1.45,11.72.65a10.65,10.65,0,0,1,4.13-8.35A9,9,0,0,1,69.44,65a7.81,7.81,0,0,1,6,4.72c1.3,3,1.07,6.64-.7,11m0,0c-1.75.36-3.46.81-5.13,1.33M57.2,87.69A56.42,56.42,0,0,0,51,92.17m20.84-5.25c-.24.43-.49.84-.73,1.2A14.61,14.61,0,0,1,67.5,92m-6.23,2c-.35,0-.71,0-1.07,0A35.67,35.67,0,0,1,51,92.17M67.5,92a10.63,10.63,0,0,1-1,.59,11.78,11.78,0,0,1-5.28,1.37m1.85-9.39L67.5,92m7.2-11.22a51,51,0,0,1-2.91,6.18m-2.22-4.85,2.22,4.85m-14.59.77,4.07,6.23m8.3-11.85a51.64,51.64,0,0,0-6.45,2.46m0,0a53.33,53.33,0,0,0-5.92,3.16" fill="none" stroke="#000" stroke-linecap="round" stroke-miterlimit="10" stroke-width="0.87"/><path d="M48.68,80.94a1.82,1.82,0,0,0-.7,1.42,1.78,1.78,0,0,0,.7,1.4,2.62,2.62,0,0,0,1.71.6,2.55,2.55,0,0,0,1.69-.6,1.73,1.73,0,0,0,.71-1.4,1.77,1.77,0,0,0-.71-1.42,2.57,2.57,0,0,0-1.69-.56,2.65,2.65,0,0,0-1.71.56Z" fill="#6f4d4a"/><path d="M48,82.36a1.78,1.78,0,0,0,.7,1.4,2.62,2.62,0,0,0,1.71.6,2.55,2.55,0,0,0,1.69-.6,1.73,1.73,0,0,0,.71-1.4,1.77,1.77,0,0,0-.71-1.42,2.57,2.57,0,0,0-1.69-.56,2.65,2.65,0,0,0-1.71.56,1.82,1.82,0,0,0-.7,1.42Z" fill="none" stroke="#000" stroke-linecap="round" stroke-miterlimit="10" stroke-width="0.87"/><path d="M69.44,75a2.57,2.57,0,0,0,.34-1.76A1.71,1.71,0,0,0,68.91,72a1.77,1.77,0,0,0-1.56-.12A2.63,2.63,0,0,0,66,73a2.56,2.56,0,0,0-.33,1.75,1.76,1.76,0,0,0,.87,1.32,1.7,1.7,0,0,0,1.56.09A2.73,2.73,0,0,0,69.44,75Z" fill="#6f4d4a"/><path d="M69.78,73.25A1.71,1.71,0,0,0,68.91,72a1.77,1.77,0,0,0-1.56-.12A2.63,2.63,0,0,0,66,73a2.56,2.56,0,0,0-.33,1.75,1.76,1.76,0,0,0,.87,1.32,1.7,1.7,0,0,0,1.56.09A2.73,2.73,0,0,0,69.44,75a2.57,2.57,0,0,0,.34-1.76Z" fill="none" stroke="#000" stroke-linecap="round" stroke-miterlimit="10" stroke-width="0.87"/><path d="M112.71,60.13a1.55,1.55,0,0,0-1.14-.47,1.57,1.57,0,0,0-1.14.47,1.53,1.53,0,0,0-.48,1.14,1.59,1.59,0,0,0,.48,1.16,1.53,1.53,0,0,0,1.14.47,1.52,1.52,0,0,0,1.14-.47,1.59,1.59,0,0,0,.48-1.16,1.53,1.53,0,0,0-.48-1.14Z" fill="#a3555c"/><path d="M81.13,203.54l7.5-3.62M76,198.84l7.88-10.28m-14.32,5.57,2.36-6.47" fill="none" stroke="#000" stroke-linecap="round" stroke-linejoin="round" stroke-width="1.45"/><path d="M75.49,196.9a42.92,42.92,0,0,0-12.31-7.11l-.87,8.54,3.51,2.79,8.12,6.47,3.35,2.68,8.76-2.46A63.79,63.79,0,0,0,75.49,196.9Z" fill="#f26d7d"/><path d="M77.29,210.27l-3.35-2.68a7.8,7.8,0,0,1-4.19,3.16,4.75,4.75,0,0,1-4.25-.9,4.37,4.37,0,0,1-1.81-4.17,8.13,8.13,0,0,1,2.13-4.56l-3.51-2.79C60,201,58.75,203.54,58.54,206c-.24,2.68.84,5.06,3.19,7.15a9.38,9.38,0,0,0,8.17,2.52,11.19,11.19,0,0,0,7.39-5.36Z" fill="#9ddff9"/><path d="M65.82,201.12a8.13,8.13,0,0,0-2.13,4.56,4.37,4.37,0,0,0,1.81,4.17,4.75,4.75,0,0,0,4.25.9,7.8,7.8,0,0,0,4.19-3.16l-8.12-6.47Z" fill="#716f75"/><path d="M76.22,209.2,73.44,207l-6.7-5.35-2.89-2.31a11.54,11.54,0,0,0-3.11,6.31,6.85,6.85,0,0,0,2.63,5.9,7.68,7.68,0,0,0,6.75,2.07,9.18,9.18,0,0,0,6.1-4.41Z" fill="#86adc0"/><path d="M75.41,208.9l7.31-2.25a43.91,43.91,0,0,0-16.86-14l-1.09,7.09,10.64,9.14Z" fill="#c25e69"/><path d="M61.92,208a1.66,1.66,0,0,0,0-2.39,1.6,1.6,0,0,0-1.18-.49,1.67,1.67,0,0,0-1.21.49,1.7,1.7,0,0,0,0,2.39,1.68,1.68,0,0,0,1.21.5,1.61,1.61,0,0,0,1.18-.5Z" fill="#9ddff9"/><path d="M65.82,201.12a8.13,8.13,0,0,0-2.13,4.56,4.37,4.37,0,0,0,1.81,4.17,4.75,4.75,0,0,0,4.25.9,7.8,7.8,0,0,0,4.19-3.16l-8.12-6.47Z" fill="#685f63"/><path d="M77.29,210.27l-3.35-2.68m-8.12-6.47-3.51-2.79m3.51,2.79a8.13,8.13,0,0,0-2.13,4.56,4.37,4.37,0,0,0,1.81,4.17,4.75,4.75,0,0,0,4.25.9,7.8,7.8,0,0,0,4.19-3.16m0,0-8.12-6.47" fill="none" stroke="#000" stroke-linecap="round" stroke-miterlimit="10" stroke-width="0.87"/><path d="M75.49,196.9a63.79,63.79,0,0,1,10.56,10.91l-8.76,2.46a11.19,11.19,0,0,1-7.39,5.36,9.38,9.38,0,0,1-8.17-2.52c-2.35-2.09-3.43-4.47-3.19-7.15.21-2.42,1.47-5,3.77-7.63l.87-8.54a42.92,42.92,0,0,1,12.31,7.11Z" fill="none" stroke="#000" stroke-linecap="round" stroke-miterlimit="10" stroke-width="1.45"/><path d="M70.42,184.29a3.1,3.1,0,0,0,.4,2.23A3.17,3.17,0,0,0,72.56,188a2.41,2.41,0,0,0,2-.18,2.31,2.31,0,0,0,1.17-1.69,3.21,3.21,0,0,0-.41-2.23,3.15,3.15,0,0,0-1.73-1.45,2.41,2.41,0,0,0-2.07.16,2.33,2.33,0,0,0-1.14,1.71Z" fill="#716f75"/><path d="M82.72,185.26a2.46,2.46,0,0,0,.15,2.13A3.2,3.2,0,0,0,84.6,189,3.34,3.34,0,0,0,87,189a2.44,2.44,0,0,0,1.56-1.46,2.51,2.51,0,0,0-.14-2.15,3.19,3.19,0,0,0-1.75-1.55,3.24,3.24,0,0,0-2.33-.07,2.51,2.51,0,0,0-1.57,1.48Z" fill="#716f75"/><path d="M89.6,196.61a2.3,2.3,0,0,0-1.45,1.15,1.84,1.84,0,0,0,0,1.68,2.6,2.6,0,0,0,1.4,1.28,2.87,2.87,0,0,0,2,.07A2.19,2.19,0,0,0,93,199.66,1.85,1.85,0,0,0,93,198a2.57,2.57,0,0,0-1.4-1.24,2.83,2.83,0,0,0-2-.1Z" fill="#716f75"/><path d="M82.87,187.39A3.2,3.2,0,0,0,84.6,189,3.34,3.34,0,0,0,87,189a2.44,2.44,0,0,0,1.56-1.46,2.51,2.51,0,0,0-.14-2.15,3.19,3.19,0,0,0-1.75-1.55,3.24,3.24,0,0,0-2.33-.07,2.51,2.51,0,0,0-1.57,1.48,2.46,2.46,0,0,0,.15,2.13Zm5.28,10.37a1.84,1.84,0,0,0,0,1.68,2.6,2.6,0,0,0,1.4,1.28,2.87,2.87,0,0,0,2,.07A2.19,2.19,0,0,0,93,199.66,1.85,1.85,0,0,0,93,198a2.57,2.57,0,0,0-1.4-1.24,2.83,2.83,0,0,0-2-.1,2.3,2.3,0,0,0-1.45,1.15ZM70.82,186.52A3.17,3.17,0,0,0,72.56,188a2.41,2.41,0,0,0,2-.18,2.31,2.31,0,0,0,1.17-1.69,3.21,3.21,0,0,0-.41-2.23,3.15,3.15,0,0,0-1.73-1.45,2.41,2.41,0,0,0-2.07.16,2.33,2.33,0,0,0-1.14,1.71,3.1,3.1,0,0,0,.4,2.23Z" fill="none" stroke="#000" stroke-linecap="round" stroke-linejoin="round" stroke-width="1.45"/><path d="M116.26,91.8a23.56,23.56,0,0,0-11.83,1.4,23.47,23.47,0,0,0-10,6.43c-2.42,2.76-3.19,5.32-2.33,7.71s3.1,3.88,6.7,4.47a23.47,23.47,0,0,0,11.81-1.41,23.59,23.59,0,0,0,10-6.42c2.42-2.76,3.19-5.32,2.33-7.71s-3.1-3.88-6.7-4.47Z" fill="#c6996d"/><path d="M108.92,108.38a22.77,22.77,0,0,0,9.14-4.92c2.27-2.12,3.12-4.14,2.56-6s-2.39-3.09-5.46-3.59a23,23,0,0,0-10.33.95,22.76,22.76,0,0,0-9.14,4.92q-3.41,3.2-2.56,6c.56,1.87,2.39,3.07,5.46,3.59a22.83,22.83,0,0,0,10.33-1Z" fill="#8f6c5e"/><path d="M218,131.59l-.19-.19a109.15,109.15,0,0,0-20.25-17.65l-.91-.62-.45,2.39A221.06,221.06,0,0,0,172.39,106h0a.35.35,0,0,0-.14,0l0,0a233.46,233.46,0,0,0-39.54-5.79l-.76,0-.3,14.81a.41.41,0,0,0,0,.11L133.53,129l4.57,2.84-5.76-.07L118,101.68l-17.82,2.91-2.36,10.79-5.4-9a.71.71,0,0,0-.87-.32,143.49,143.49,0,0,0-16.93,7.5h0q-6.41,3.35-12.68,7.38l0,0h0A183.52,183.52,0,0,0,40,137.42l-.22.19,0,.3a85.46,85.46,0,0,0,4.84,34.61.76.76,0,0,0,.2.29,1.11,1.11,0,0,0,.3.17l18.23,4.59,6.94-7.71a1.26,1.26,0,0,0,.18-.32.69.69,0,0,0,0-.35l-1.62-6.25,10.63,6.48,10.66-2.75h0L100.5,164l12.66-2a.71.71,0,0,0,.38-.18,1.08,1.08,0,0,0,.22-.35l4-15.48,3.94,12.83L132,156.25v1.36l28.79,1.48,22.12,4.23.15,0,8.45,1.61,2.39-2.84,1.15,12.1,8.23-.6.16,0,10.88-3.26-2.91-18.47,4.73-3.78a.68.68,0,0,0,.25-.37A54.43,54.43,0,0,0,218,131.85v-.26Zm-3,15.51-.42.34-3.47,2.76-.81-5-1.59-.88,1.17,7.32v.06l2.78,17.61L203.61,172l-.5.16-.36,0-6.36.47-1.17-12.1,6-7.08.8-.94.06-.08a.76.76,0,0,1,.08-.11l-1.37-.61-.39.48-6.47,7.64h0L191,163.37l-6.67-1.27L191,150.45l.1-.19a.94.94,0,0,0,.07-.22h0l.09-.42,2-10.44a.32.32,0,0,0,0-.09.47.47,0,0,0,0-.17l4.22-22.2v0a0,0,0,0,1,0,0l.2-1.09a107.63,107.63,0,0,1,18.9,16.61,52.87,52.87,0,0,1-1.43,14.56l-.09.37ZM91.47,107.57l.59,1,5.28,8.86-5.08,23.37-.62,2.9-1.75,8,0,.07a.93.93,0,0,0,0,.33.13.13,0,0,0,0,.06.89.89,0,0,0,.13.23l.13.15L99,162.87l-8.89,2.3L79.63,156.3l-.48-.41v.29a.68.68,0,0,1-.17.52.65.65,0,0,1-.49.26.67.67,0,0,1-.52-.17l.07.07,10.39,8.76-8.71,2.25-11.66-7.09h0l-.4-.25-.7-.43a1.8,1.8,0,0,1-.06-.22c-.23-1.09-.45-2.17-.67-3.23v0a0,0,0,0,0,0,0v0q-1.22-6-2-11.9A155,155,0,0,1,63,121.93c3.72-2.39,7.47-4.59,11.28-6.6l.52,12.58,1.44-.55-.55-12.77a138,138,0,0,1,15.62-6.93l.21-.09ZM41.22,138.3a183.82,183.82,0,0,1,20.27-15.43,155.27,155.27,0,0,0,1.27,21.8.76.76,0,0,1,0,.16,2.79,2.79,0,0,1,0,.32c0,.14,0,.3.06.46.44,3.26,1,6.53,1.61,9.82l-9.63-4.94-.81-.42.06,0a.85.85,0,0,1,.2.22.54.54,0,0,1,.09.24.76.76,0,0,1-.06.47s0,.05-.06.08a.71.71,0,0,1-.46.29h0a.73.73,0,0,1-.52-.11l-.06,0a.31.31,0,0,0,.13.1l1,.5,10.54,5.41c.23,1.14.48,2.29.72,3.45a.48.48,0,0,0,.14.26.63.63,0,0,0,.2.2l1.16.69L69,169.18,62.86,176l-16.18-4.07-.82-.21c0-.08-.06-.16-.08-.23a84.49,84.49,0,0,1-4.56-33.14Zm70.67-10.62s0,0,0,0l-.68,2.15,5.68,13.82-4.4,17-.22,0-11.62,1.84-8.95-10.36-.32-.37h0l.11-.46,7.35-33.82v0l2.53-11.58,15.79-2.58,14,29.34.55,9.7.06.88.24,4.34v7.21l-9.35,2.3-3.27-10.75-.13-.42v0s0,0,0,0l-.11-.34-.81-2.14h0v-.05l-6.4-15.6Zm21.35-11.36-.19-1.31v-.11l.27-13.25a232,232,0,0,1,38.06,5.59l1.43.42A226,226,0,0,1,195.94,117l-2.2,11.58-.27,1.45L192,138l-.28,1.43-1.88,9.9-.06.31-.3.52-6.66,11.65-20.61-3.92L170,148a.82.82,0,0,0,.15-.39l.07-1.06.06-.88.84-12.47a.53.53,0,0,0-.05-.3.67.67,0,0,0-.16-.25l0-.05-3.75-3.9,4.46-9.39-.84-.2h0L166.44,128l-.68,1.37,3.85,4-.92,13.69,0,.16-.55.71-7.61,9.69-27-1.39v-9.17l-.81-13.88,20.09.28L151.23,132l-10.32-.15-6-3.75-1.63-11.79Z"/><polygon points="202.01 152.55 201.21 153.49 202.75 172.2 203.11 172.17 203.62 172.01 202.01 152.55 202.01 152.55" fill="#fff"/><polygon points="202.75 172.2 201.21 153.49 195.22 160.56 196.39 172.67 202.75 172.2 202.75 172.2" fill="#543e3c"/><polygon points="200.39 152.23 190.95 150.45 184.29 162.1 190.96 163.37 193.9 159.88 193.92 159.87 200.39 152.23 200.39 152.23" fill="#76747a"/><polygon points="210.36 145.18 211.17 150.2 214.64 147.44 210.36 145.18 210.36 145.18" fill="#76747a"/><path d="M214.64,147.44l.42-.34.09-.37-5.47-2.93-1.1-.55.19,1.05,1.59.88,4.28,2.26Z" fill="#fff"/><path d="M191.12,150a.94.94,0,0,1-.07.22l-.1.19,9.44,1.78.39-.48,0-.33-9.55-1.81-.09.42Z" fill="#fff"/><path d="M209.88,137.2v-1.72l-10-6.73.89,22.67,0,.33,1.37.61.09-.39v0l-.81-20.4,8.45,5.66Z" fill="#543e3c"/><path d="M209.88,135.48v1.72l-8.45-5.66.81,20.4v0l-.09.39a.76.76,0,0,0-.08.11l-.06.08,1.6,19.46,9.11-2.72-2.78-17.61v-.06l-1.17-7.32-.19-1.05,1.1.55,5.47,2.93a52.87,52.87,0,0,0,1.43-14.56,107.63,107.63,0,0,0-18.9-16.61l-.2,1.09a0,0,0,0,0,0,0v0l-4.22,22.2a.47.47,0,0,1,0,.17.32.32,0,0,1,0,.09l-2,10.44,9.55,1.81-.89-22.67,10,6.73Z" fill="#9ddff9"/><path d="M92.06,108.59l-.59-1-.21.09a211.12,211.12,0,0,0,.38,36.06l.62-2.9a208.38,208.38,0,0,1-.2-32.23Z" fill="#d8f5fc"/><path d="M97.34,117.45l-5.28-8.86a208.38,208.38,0,0,0,.2,32.23l5.08-23.37Z" fill="#543e3c"/><polygon points="99.04 162.87 90.16 152.57 79.63 156.29 90.15 165.17 99.04 162.87 99.04 162.87" fill="#76747a"/><path d="M67,160.09l.7.43,10.4-3.66-.07-.07a.66.66,0,0,1-.22-.31l-.05-.17h0v-.25l-10.81,3.82a1.8,1.8,0,0,0,.06.22Z" fill="#fff"/><path d="M68.06,160.77h0l11.66,7.09,8.71-2.25-10.39-8.76-10.4,3.66.4.25Z" fill="#76747a"/><path d="M77.7,138.91l-1.42.55,1.42,16.59v.25h0l.05.17a.66.66,0,0,0,.22.31.67.67,0,0,0,.52.17.65.65,0,0,0,.49-.26.68.68,0,0,0,.17-.52v-.29l0-.35L77.7,138.91Z" fill="#543e3c"/><path d="M89.89,152.14a.93.93,0,0,1,0-.33l0-.07-10.77,3.8,0,.35.48.41,10.53-3.72-.13-.15a.89.89,0,0,1-.13-.23.13.13,0,0,1,0-.06Z" fill="#fff"/><path d="M76.19,127.36l-1.44.55-.52-12.58c-3.81,2-7.56,4.21-11.28,6.6a155,155,0,0,0,1.27,22.71q.77,5.9,2,11.9v0a0,0,0,0,1,0,0v0c.22,1.06.44,2.14.67,3.23l10.81-3.82-1.42-16.59,1.42-.55,1.42,16.63,10.77-3.8,1.75-8a211.12,211.12,0,0,1-.38-36.06,138,138,0,0,0-15.62,6.93l.55,12.77Z" fill="#9ddff9"/><path d="M62.89,145.61c0-.16,0-.32-.06-.46a2.79,2.79,0,0,0,0-.32.76.76,0,0,0,0-.16L54,150l.07.06.81.42,8-4.88Z" fill="#fff"/><path d="M64.5,155.43c-.64-3.29-1.17-6.56-1.61-9.82l-8,4.88,9.63,4.94Z" fill="#76747a"/><path d="M61.49,122.87A183.82,183.82,0,0,0,41.22,138.3a84.49,84.49,0,0,0,4.56,33.14l9.77-6.62-2.18-13.48a.31.31,0,0,1-.13-.1l-7.49-5.19,8.43-5.52.16,1.59-6,4L54,150l8.77-5.34a155.27,155.27,0,0,1-1.27-21.8Z" fill="#9ddff9"/><path d="M54.32,150.32a.85.85,0,0,0-.2-.22l-.06,0L54,150l-5.64-3.92,6-4-.16-1.59-8.43,5.52,7.49,5.19.06,0a.73.73,0,0,0,.52.11h0a.71.71,0,0,0,.46-.29s.05-.05.06-.08a.76.76,0,0,0,.06-.47.54.54,0,0,0-.09-.24Z" fill="#543e3c"/><path d="M54.32,151.84l-1-.5,2.18,13.48-9.77,6.62c0,.07,0,.15.08.23l.82.21,9.41-6.38.17-.11a.48.48,0,0,0,.16-.19.06.06,0,0,1,0,0,.45.45,0,0,0,0-.2l0-.26-2.09-12.85Z" fill="#fff"/><path d="M65.58,160.7c-.24-1.16-.49-2.31-.72-3.45l-10.54-5.41,2.09,12.85L69,169.18l-1.89-7.33-1.16-.69a.63.63,0,0,1-.2-.2.48.48,0,0,1-.14-.26Z" fill="#543e3c"/><polygon points="62.86 175.95 68.97 169.18 56.09 165.5 46.68 171.88 62.86 175.95 62.86 175.95" fill="#76747a"/><path d="M56.41,164.69l0,.26a.45.45,0,0,1,0,.2.06.06,0,0,0,0,0,.48.48,0,0,1-.16.19l-.17.11L69,169.18l-12.56-4.49Z" fill="#93cae0"/><path d="M131.78,143.21l-.06-.88-12.59,3.15.11.34s0,0,0,0v0l.13.42,12.38-3.1Z" fill="#fff"/><polygon points="132.02 147.55 131.78 143.21 119.4 146.31 122.67 157.06 132.02 154.76 132.02 147.55 132.02 147.55" fill="#76747a"/><path d="M110.51,128.19h0l0-.08a.25.25,0,0,0,0,.08Z"/><polygon points="106.53 148.06 106.64 148 106.58 147.9 106.53 148.06 106.53 148.06" fill="#9ddff9"/><path d="M111.19,129.81l-.56-1.35-4.86,19.14-14.3,3.69-.11.46h0l.32.37,14.22-3.68.33-.09.09,0a.39.39,0,0,0,.1-.08.34.34,0,0,0,.11-.19l0-.16,4.61-18.09Z" fill="#fff"/><path d="M106.63,148l-.1.06a.34.34,0,0,1-.11.19.39.39,0,0,1-.1.08l-.09,0-.33.09,6.35,12.2.22,0L106.63,148Z" fill="#93cae0"/><polygon points="106.58 147.9 106.64 148 112.47 160.62 116.87 143.63 111.19 129.81 106.58 147.9 106.58 147.9" fill="#543e3c"/><polygon points="105.9 148.45 91.68 152.13 100.63 162.49 112.25 160.65 105.9 148.45 105.9 148.45" fill="#76747a"/><path d="M120.88,122l-.52-1.36-11.57,2.27,1.71,5.18,0,.08h0s0,0,0,0l.09.23.56,1.35.68-2.15s0,0,0,0l0,0-1.2-3.63,10.21-2Z" fill="#543e3c"/><path d="M120.36,120.66l.52,1.36-10.21,2,1.2,3.63,0,0,6.4,15.6v.05h0l.81,2.14,12.59-3.15-.55-9.7-14-29.34-15.79,2.58-2.53,11.58v0l-7.35,33.82,14.3-3.69,4.86-19.14-.09-.23s0,0,0,0a.25.25,0,0,1,0-.08l-1.71-5.18,11.57-2.27Z" fill="#9ddff9"/><polygon points="189.43 150.16 189.73 149.64 189.79 149.33 170.24 145.63 170.18 146.51 189.43 150.16 189.43 150.16" fill="#fff"/><path d="M182.77,161.81l6.66-11.65-19.25-3.65-.07,1.06a.82.82,0,0,1-.15.39l-7.8,9.93,20.61,3.92Z" fill="#76747a"/><path d="M168.67,147.23l0-.16H133.46v.87h34.65l.55-.71Z" fill="#fff"/><polygon points="160.51 157.63 168.12 147.94 133.47 147.94 133.47 156.24 160.51 157.63 160.51 157.63" fill="#76747a"/><polygon points="155.31 116.4 155.33 116.4 155.31 116.4 155.31 116.4" fill="#543e3c"/><path d="M153.1,115.19v1l2.21.23,15.38,2.65a.49.49,0,0,1-.09-.37l0-.51L154,115.3l-.9-.11Z" fill="#fff"/><polygon points="155.33 116.4 155.31 116.4 153.1 116.17 165.76 129.37 166.44 128 155.33 116.4 155.33 116.4" fill="#543e3c"/><polygon points="134.88 128.11 140.91 131.86 151.23 132.01 133.24 116.32 134.88 128.11 134.88 128.11" fill="#76747a"/><path d="M153.1,116.17v-1l.9.11,16.64,2.87.73-10.93a232,232,0,0,0-38.06-5.59L133,114.9V115l19.7,17.17v1.29l-20.09-.28.81,13.88h35.23l.92-13.69-3.85-4-12.66-13.2Z" fill="#9ddff9"/><polygon points="133.05 115.01 133.24 116.32 151.23 132.01 152.74 133.47 152.75 132.18 133.05 115.01 133.05 115.01" fill="#fff"/><polygon points="182.13 123.94 182.13 125.46 193.47 130.01 193.74 128.56 182.13 123.94 182.13 123.94" fill="#543e3c"/><polygon points="181.57 135.24 181.57 136.75 191.67 139.43 191.95 138 181.57 135.24 181.57 135.24" fill="#543e3c"/><path d="M170.83,132.56l0,.05a.67.67,0,0,1,.16.25.53.53,0,0,1,.05.3l-.84,12.47,19.55,3.7,1.88-9.9-10.1-2.68v-1.52L192,138l1.52-8-11.34-4.55v-1.52l11.61,4.62,2.2-11.58a226,226,0,0,0-23.14-9.32l-1.07,11.67-.9,13.23Z" fill="#9ddff9"/><polygon points="170.69 119.07 170.69 119.05 155.31 116.4 155.33 116.4 166.44 128 170.69 119.07 170.69 119.07" fill="#76747a"/><path d="M172.8,107.66l-1.43-.42-.73,10.93,0,.51a.49.49,0,0,0,.09.37v0h0l.84.2-4.46,9.39,3.75,3.9.9-13.23,1.07-11.67Z" fill="#543e3c"/><line x1="155.31" y1="116.4" x2="155.33" y2="116.4" fill="none" stroke="red" stroke-linecap="square" stroke-miterlimit="10" stroke-width="0.01"/><path d="M138.65,103.51c-1.31-.12-2.62-.22-3.92-.31l-.23,11.16,2.56,2.23,7.34-12.5c-1.93-.22-3.84-.42-5.75-.58Z" fill="#8ebed3"/><path d="M126,125.13l-8,13.62,1.63,4a.32.32,0,0,1,0,.09l.36.94,1.31-.32,7.38-12.59L126,125.13Z" fill="#8ebed3"/><path d="M150.29,128.13l2.88,2.5a1.31,1.31,0,0,1,.59.38,1.6,1.6,0,0,1,.31.4,1.48,1.48,0,0,1,.39.92,1.28,1.28,0,0,1-.28.95v.2a1.54,1.54,0,0,1-.43,1,1.4,1.4,0,0,1-1,.41l-6.36-.09L140,145.63h12.18l10.3-17.57-7.55-7.88-4.65,7.95Z" fill="#8ebed3"/><path d="M169.85,108.38c-2.38-.53-4.75-1-7.11-1.5l-4.5,7.68,11,1.92h0v0l.55-8.05Z" fill="#8ebed3"/><path d="M47.1,135.23q-2.24,1.83-4.47,3.77c-.07,1.37-.12,2.73-.13,4.09l4.6-7.86Z" fill="#8ebed3"/><path d="M100.25,117.66a.49.49,0,0,0,0,.12L96.5,134.92l17.39-29.63-11.34,1.85-2.3,10.52Z" fill="#8ebed3"/><path d="M88.66,150.64l1.52-7c-.54-5.83-.84-11.54-.93-17.08l-9.74,16.62.88,10.39,8.27-2.92Z" fill="#8ebed3"/><path d="M67.61,156.25a.06.06,0,0,1,0,0v0l0,0a.29.29,0,0,0,0-.1l.06.19Z" fill="#8ebed3"/><polygon points="75.7 149.65 71.59 156.66 76.17 155.05 75.7 149.65 75.7 149.65" fill="#8ebed3"/><path d="M45.51,165.63c.32,1.17.66,2.35,1,3.53l7.43-5L52.34,154l-6.83,11.67Z" fill="#8ebed3"/><path d="M56.57,146.76l4.64-2.84c-.17-1.43-.33-2.87-.46-4.3l-4.18,7.14Z" fill="#8ebed3"/><polygon points="161.44 145.63 167.34 145.63 168.09 134.26 161.44 145.63 161.44 145.63" fill="#8ebed3"/><path d="M203.82,129.65l3-5.11a101.33,101.33,0,0,0-8.13-6.52l-4,21c0,.13,0,.28-.05.41s0,0,0,0,0,.05,0,.1L193,148.19l5.84-10-.37-9.41a1.36,1.36,0,0,1,.33-1,1.37,1.37,0,0,1,.91-.5,1.33,1.33,0,0,1,1,.23l3.14,2.1Z" fill="#8ebed3"/><path d="M198.9,116.91a.15.15,0,0,1,0-.06v.07Z" fill="#8ebed3"/><path d="M211.66,129.11l-2.44,4.17,1.47,1a1.31,1.31,0,0,1,.61.91,1.47,1.47,0,0,1-.22,1.1l-.81,1.2a1.29,1.29,0,0,1-.91.61,1.47,1.47,0,0,1-1.1-.22L207,137l-3.67,6.25q.17,9.56.13,9.63l1.42,17.21,6.18-1.85-2.57-16.38a.47.47,0,0,1,0-.17l-1.16-7.19a8.71,8.71,0,0,1-.13-1.65,1.25,1.25,0,0,1,.18-.6,1.08,1.08,0,0,1,.42-.33,1,1,0,0,1,.55-.13,2.08,2.08,0,0,1,.48.09,8.32,8.32,0,0,1,1.53.61l.39.21a.7.7,0,0,1,.26.15l3.14,1.68a51.28,51.28,0,0,0,1-11.8c-1.16-1.26-2.31-2.48-3.49-3.65Z" fill="#8ebed3"/><path d="M172.7,126.42l-.39,5.75-.54,12.28,16.86,3.2,1.36-7.18L181.05,138a1.32,1.32,0,0,1-.87-.67,1.36,1.36,0,0,1-.14-1.1l0-1.4a1.39,1.39,0,0,1,.67-.88,1.36,1.36,0,0,1,1.1-.15l9,2.37,1-5.28-10.24-4.11c-.18-.07-.37-.36-.59-.87a1.51,1.51,0,0,1-.2-1l.07-1.35a1.45,1.45,0,0,1,.77-.79,2.66,2.66,0,0,1,1.58,0l9.45,3.79,1.65-8.74q-6.63-3.06-13.28-5.63l-8.33,14.23Z" fill="#8ebed3"/><path d="M89.57,111.21c0-.47,0-.93.09-1.39a135.37,135.37,0,0,0-12.52,5.64l.5,11.84a1.4,1.4,0,0,1-.37,1,1.5,1.5,0,0,1-1,.47l-1.44.4a1.31,1.31,0,0,1-1-.37,1.35,1.35,0,0,1-.48-1l-.38-9L64.6,133.05c.2,3.76.55,7.57,1.06,11.4.24,2,.55,4,.88,6l23-39.27Z" fill="#8ebed3"/><polygon points="125 185.3 128.36 196.46 130.82 192.74 136.48 200.04 136.67 194.09 144.51 198.53 144.33 194.04 155.98 198.91 148.64 189.66 154.91 187.36 148.52 183.28 153.42 179.44 145.46 179.35 147.32 175.36 134.61 175.89 125 185.3 125 185.3" fill="#fdf155"/><polygon points="125 185.3 134.61 175.89 147.32 175.36 145.46 179.35 153.42 179.44 148.52 183.28 154.91 187.36 148.64 189.66 155.98 198.91 144.33 194.04 144.51 198.53 136.67 194.09 136.48 200.04 130.82 192.74 128.36 196.46 125 185.3 125 185.3" fill="none" stroke="#f90" stroke-linecap="round" stroke-miterlimit="10" stroke-width="0.87"/><path d="M111.06,160.32a6.42,6.42,0,0,0,.28,6.12,8.79,8.79,0,0,0,5.5,4.07,11.67,11.67,0,0,0,7.56-.38,8.88,8.88,0,0,0,5.13-4.57,6.37,6.37,0,0,0-.26-6.12,8.72,8.72,0,0,0-5.51-4.07,11.52,11.52,0,0,0-7.53.36,9,9,0,0,0-5.17,4.59Z" fill="#9ddff9"/><path d="M111.34,166.44a8.79,8.79,0,0,0,5.5,4.07,11.67,11.67,0,0,0,7.56-.38,8.88,8.88,0,0,0,5.13-4.57,6.37,6.37,0,0,0-.26-6.12,8.72,8.72,0,0,0-5.51-4.07,11.52,11.52,0,0,0-7.53.36,9,9,0,0,0-5.17,4.59,6.42,6.42,0,0,0,.28,6.12Z" fill="none" stroke="#000" stroke-linecap="round" stroke-linejoin="round" stroke-width="1.45"/><path d="M114.15,161.45a4.72,4.72,0,0,0,.2,4.51,6.42,6.42,0,0,0,4.05,3,8.68,8.68,0,0,0,5.58-.28,6.54,6.54,0,0,0,3.79-3.38,4.67,4.67,0,0,0-.19-4.51,6.46,6.46,0,0,0-4.07-3,8.49,8.49,0,0,0-5.56.26,6.58,6.58,0,0,0-3.8,3.39Z" fill="#89a9b9"/><path d="M120,158.34a1.48,1.48,0,0,0,.9.68,2,2,0,0,0,1.25-.08,1.42,1.42,0,0,0,.85-.75,1,1,0,0,0,0-1,1.5,1.5,0,0,0-.91-.68,1.92,1.92,0,0,0-1.23.06,1.47,1.47,0,0,0-.86.77,1,1,0,0,0,0,1Z" fill="#9ddff9"/><path d="M143.6,167.63a29.41,29.41,0,0,0-12.89-.78,82.2,82.2,0,0,1,9,7.73l3.91-7Z" fill="#f26d7d"/><path d="M134.35,183.52a15.52,15.52,0,0,0,5.34-8.94,82.2,82.2,0,0,0-9-7.73q-14.43-10.62-29.68-10.8,1.6,16,21.58,31c4.8.14,8.7-1,11.74-3.5Z" fill="#fff"/><path d="M139.23,174.5l2.93-5.19a22.27,22.27,0,0,0-9.63-.58,63,63,0,0,1,6.7,5.77Z" fill="#c25e69"/><path d="M100.21,155.3l.11.82q1.59,16.31,21.86,31.48l.19.15h.23c5,.14,9.05-1.07,12.22-3.66a16.41,16.41,0,0,0,5.56-9.24l4.32-7.68-.91-.24a30.48,30.48,0,0,0-12.91-.85q-14.5-10.59-29.83-10.75l-.84,0Zm31.93,12.08a28.93,28.93,0,0,1,10.38.71l-3.14,5.57a86.5,86.5,0,0,0-7.24-6.28Zm-1.85.06.24.17s1.07.83,3.23,2.46c2.36,1.87,4.11,3.33,5.23,4.42a14.93,14.93,0,0,1-5.08,8.47,16.68,16.68,0,0,1-11,3.36q-19-14.26-21-29.53,14.6.45,28.43,10.65Z"/><path d="M132.17,183.1a12.23,12.23,0,0,0,4.2-7A64.51,64.51,0,0,0,129.3,170q-11.36-8.36-23.35-8.48,1.29,12.62,17,24.36a13.49,13.49,0,0,0,9.24-2.77Z" fill="#cbc4c4"/><path d="M134.05,181.81c4.47,0,7.71-.62,9.7-1.73-4.19-4.19-10.26-7-18.24-8.54q1.08,3.41,8.54,10.27Z" fill="#f26d7d"/><path d="M133.3,181.74c3.77,0,6.54-.43,8.28-1.3q-4.94-5-14.91-6.89c.49,1.81,2.7,4.53,6.63,8.19Z" fill="#c25e69"/><path d="M124.5,170.61l.55,1.22c1.11,2.5,3.88,5.82,8.28,9.91l.73.8c4.64,0,8-.65,10.05-1.83l.87-.46-.71-.68q-6.41-6.42-18.62-8.74l-1.15-.22Zm9.55,10.48h-.13q-5.91-5.49-7.54-8.64,10.29,2.15,16.11,7.42a24.6,24.6,0,0,1-8.44,1.22Z"/><path d="M117,188a16.55,16.55,0,0,0,4.5-6.37l-8.56-7.09q-.87,7,4.06,13.46Z" fill="#f26d7d"/><path d="M121.62,181.29l-7-5.41A15.2,15.2,0,0,0,118.17,187a15.39,15.39,0,0,0,3.45-5.71Z" fill="#c25e69"/><path d="M112.38,173.58l-.17.87q-.93,7.31,4.17,14l.44.59.58-.46c1.73-1.32,3.33-3.61,4.82-6.86l-9.84-8.18Zm8.32,8a17.37,17.37,0,0,1-3.61,5.38,17.37,17.37,0,0,1-3.57-11.32l7.18,5.94Z"/><path d="M172.47,173a7.19,7.19,0,0,0-4.58,6.11,3.21,3.21,0,0,0,1.17,2.84,3.14,3.14,0,0,0,3,.33,6.5,6.5,0,0,0,3.17-2.4,6.58,6.58,0,0,0,1.41-3.71,3.21,3.21,0,0,0-1.16-2.85,3.14,3.14,0,0,0-3.05-.32Z" fill="#c6996d"/><path d="M175,174.55a2.32,2.32,0,0,0-2.25-.23,5.24,5.24,0,0,0-3.37,4.5,2.22,2.22,0,0,0,3.1,2.33,4.88,4.88,0,0,0,2.34-1.77,4.82,4.82,0,0,0,1-2.73,2.35,2.35,0,0,0-.85-2.1Z" fill="#8f6c5e"/><path d="M94.71,187.65a9.5,9.5,0,0,1,5.11,1.17,9.61,9.61,0,0,1,4,3.47,3.38,3.38,0,0,1-2.85,5.56,9.58,9.58,0,0,1-5.13-1.19,9.44,9.44,0,0,1-3.93-3.45,3.71,3.71,0,0,1-.47-3.74,3.76,3.76,0,0,1,3.32-1.82Z" fill="#c6996d"/><path d="M95.23,188.81a2.69,2.69,0,0,0-2.29,4.45,8.57,8.57,0,0,0,7.27,3.72,3,3,0,0,0,2.65-1.46,2.93,2.93,0,0,0-.36-3,8.58,8.58,0,0,0-7.27-3.73Z" fill="#8f6c5e"/><polygon points="165.39 204.38 163.26 200.95 159.57 201.62 161.7 205.05 165.39 204.38 165.39 204.38" fill="#fdf155"/><polygon points="163.26 200.95 159.57 201.62 161.7 205.05 165.39 204.38 163.26 200.95 163.26 200.95" fill="none" stroke="#f90" stroke-linecap="square" stroke-miterlimit="10" stroke-width="0.87"/><polygon points="173.28 207.33 175.14 205.68 173.84 203.5 171.97 205.15 173.28 207.33 173.28 207.33" fill="#fdf155"/><polygon points="175.14 205.68 173.84 203.5 171.97 205.15 173.28 207.33 175.14 205.68 175.14 205.68" fill="none" stroke="#f90" stroke-linecap="square" stroke-miterlimit="10" stroke-width="0.87"/><polygon points="183.02 205.94 184.55 205.22 183.37 204.31 181.83 205.03 183.02 205.94 183.02 205.94" fill="#fdf155"/><polygon points="184.55 205.22 183.37 204.31 181.83 205.03 183.02 205.94 184.55 205.22 184.55 205.22" fill="none" stroke="#f90" stroke-linecap="square" stroke-miterlimit="10" stroke-width="0.87"/><path d="M163.81,180.74a4.87,4.87,0,0,0-2.62,1.29,5,5,0,0,0-1.62,2.48,2.2,2.2,0,0,0,.37,2.18,2.25,2.25,0,0,0,2.15.64,5.58,5.58,0,0,0,4.24-3.76,2.11,2.11,0,0,0-2.52-2.83Z" fill="#c6996d"/><path d="M165.55,181.87a1.87,1.87,0,0,0-1.77-.53,4.25,4.25,0,0,0-2.2,1.08,4.3,4.3,0,0,0-1.33,2,1.75,1.75,0,0,0,2.08,2.35,4.56,4.56,0,0,0,3.52-3.13,1.87,1.87,0,0,0-.3-1.81Z" fill="#8f6c5e"/></svg>