<svg width="256" height="256" fill="none" xmlns="http://www.w3.org/2000/svg" viewBox="0 0 256 256"><rect width="256" height="256" rx="60" fill="#f4f2ed"/><g id="Snake-Body"><g id="Body"><g id="snakelower"><path d="M209,135.13a14.47,14.47,0,0,0,.75-3.48,88.65,88.65,0,0,0,0-10.31c-.3-2.74-2.14-11.32-2.14-11.32l27.95,3.48a19.58,19.58,0,0,0-2,2.43,48.45,48.45,0,0,0-2.84,5.16c-1,2.47-2.05,6.62-3.21,9.81-1.35,3.72-3.16,9.48-4.72,12.7a24.76,24.76,0,0,1-4.67,6.63,9.6,9.6,0,0,1-5,1.9c-1.69.26-5.15,0-14.85-3.17-3.18-1.05-19.76.14-23.52.95a60.93,60.93,0,0,0-6.28,1.68c-11.8,2.91-20.39-1-22.49-1-3.44-.09-16.91,3.41-22.3,3.67-6.91.32-6.45-.18-16.19-3.37-5.29-1.73-6.55-3.29-12.09-3.73-8-.64-18,3.28-21.51,4.09-4.77,1.09-12.77,1.34-16.47-.66-2.71-1.46-3.9-3.68-7.88-2.07A12.23,12.23,0,0,0,45,152.33c-.63,1.75-1.17,1.72-1.22,0-.06-2.34,1.54-5,3.92-6.71a9.16,9.16,0,0,1,7-.86c2.51.62,8.61.59,13.58,0a47.57,47.57,0,0,0,15.59-5.27c6.15-3.66,13.16-2.85,15-2.72,3,.22,15.18,4.69,21.48,4.93,6.57.25,17-3.54,20.7-4,7.92-1,19.61.82,27.09-.94,6.8-1.61,18-1.75,24.36-1.83C200.28,134.83,206.85,140.6,209,135.13Z" fill="#aa910d" stroke="#000" stroke-linecap="round" stroke-linejoin="round" stroke-width="0.54" fill-rule="evenodd"/></g><g id="highlight"><path d="M228.07,117.1l7.31-3.66a19.92,19.92,0,0,0-2,2.44A43.49,43.49,0,0,0,230.5,121c-1,2.46-2.05,6.62-3.21,9.81-1.35,3.72-3.16,9.47-4.72,12.69a23.48,23.48,0,0,1-4.5,6.47c-1.29,1.2-2.8,1.36-4.3,1.69-2.29.5-5.74-.52-5.74-.52,2.29-.24,4.85-1.31,5.76-2.34,1.58-1.79,3.64-4.82,6.58-11.19,1-2.14,1.75-4.87,2.45-6.57,1.33-3.21,2.07-7.58,3.17-10.13C226.6,119.55,228.07,117.1,228.07,117.1Z" fill="#dcbc00" fill-rule="evenodd"/></g></g><g id="lettershadow"><path d="M202.26,147.44c.37-.33,1.8-.32,1.8-.32l-.1.1c-1.56,1.79,5.73,6.82,13.44,3.36-3.81,4.08-16.39,2.87-19.93,2.42l-.05,0s-8.57,1-9.52.94a16.64,16.64,0,0,1-6.81-2.27c-4.36-2.84-9.74-.82-11.7-.21-.45.14-.47.19-.82.27-3.45.79-9,1.69-13.66.83-.92-.17-2.73-.37-3.34-.5-2.58,2.73-6.82,3.37-9,2.07-4.2-2.47-7.12-1.68-10.87-1.23l0,0-.65.23c-5.15,3.65-14.23,2.06-18.86-.41-.29-.15-2.65-.07-3.43-.14-2.16-.2-4.5-.05-5.44.55-2.25,1.44-6.15,1.73-10.47,1.46a9.91,9.91,0,0,1-6.31-2.36c-3-2-6.12-1.89-8.13-.48a20.38,20.38,0,0,1-6,2.21c-3.64.33-8.75.89-12.66,0a24.53,24.53,0,0,1-8.78-4c-.18-.16-.38-.07-1.1.2a6.64,6.64,0,0,0-3.22,2.16c-1.22,1.72-1.6,2-2.35,1.9-1.09-.18-1.26-.49-1.24-2.25a5.35,5.35,0,0,1,.68-2.95,7.24,7.24,0,0,1,1.84-2.45l.19-.17a7.26,7.26,0,0,1,1.13-.9l1.42-.83a8.32,8.32,0,0,1,2.65-1c5.92-.16,6.57,6.71,32.82,0,8.25-2.11,17.18,1.43,25.53,1.15,9.24-.31,24.24-2.07,30.39-2.11,2.24,0,9.93-.34,16.53,2.56.77.34,3.64.14,3.9-.21,3.68-5.05,10.33-2.67,15.59-2.45a50.77,50.77,0,0,1,16.42,3.79C193.23,146.85,201.39,146.65,202.26,147.44ZM44.05,151.81a6.61,6.61,0,0,1,3-5.08,13.64,13.64,0,0,1,1.27-.86s.05.31.08.41a3.08,3.08,0,0,0,.38.94c.2.38.45.94.45.94l-1,.6A11.42,11.42,0,0,0,45,151.81C44.32,153.06,44.08,153.12,44.05,151.81Z" fill-rule="evenodd"/></g></g><g id="Pygame"><g id="shadow"><path d="M79.05,151.33c-2.19,1.6-5.82,2.59-8.47,3.11a29,29,0,0,1-14.18-1c-5.11-1.58-10-7.31-7.75-12.87a15.31,15.31,0,0,1,2.41-3.21l.56-.59s-.23.23-.56.59c-1,1.05-3.05,3.22-4,4.09-2.44,2.22-5.81,2.85-9,3.1l.1,2.29a10.58,10.58,0,0,1,0,2c-.25,1.58-2.16,2-3.12,2.86-.43.4-.59,1-1,1.45-1.54,1.67-3.94,2-6.09,2a15.91,15.91,0,0,1-4.08-.39,4.7,4.7,0,0,1-2.21-1.09,5,5,0,0,1-1.08-2.3,48.1,48.1,0,0,1-1.19-6.64c-.11-1-.3-2.55-.39-3.38a135.06,135.06,0,0,1-.41-13.73,23.39,23.39,0,0,1,.66-6.17,9.4,9.4,0,0,1,3.57-4.29,14.12,14.12,0,0,1,6.91-4.65,29.77,29.77,0,0,1,6.56-.83,36.83,36.83,0,0,1,9.49,1,18.28,18.28,0,0,1,6.52,3.12c2.34-2.49,6.25-5.06,10-3.3A5.86,5.86,0,0,1,65,116.1c.27,1.93-1.15,5.66-1.11,5.77.13.34.25.86,1.83,1.25,1.27.31.73-.27.61-1.78a3.13,3.13,0,0,1,.5-2.42c.71-1,1.44-1.18,3-2.6s1.77-2.29,5-3.9c.87-.44,3.29-1.36,4.55-.8a6.73,6.73,0,0,1,2.75,2.15c.82.89,2,3.35,2.14,3.2,1.32-1.26,2.27-3.07,4-3.71s7-.37,10.78.45a2.54,2.54,0,0,0,1.16.05,3.07,3.07,0,0,1,.7-1.06c1-.78,4.27-.66,5.68-.34a3.84,3.84,0,0,1,2.29,2.48c.49,1.62,1.3,5.72,1.3,5.72a21.61,21.61,0,0,1,3-3.1c4.09-2.74,8.92-4.09,13.73-4.87,2.48-.4,6.77-.63,9.62,3.51a32.74,32.74,0,0,1,2.85,5.15,12.84,12.84,0,0,0,2.59-2.61,14,14,0,0,1,4.47-3.7,9.56,9.56,0,0,1,4.61-.61,6.73,6.73,0,0,1,5,3.13c.11.23.58-1.57,1.38-2.62a7.53,7.53,0,0,1,3.61-2.14c4.91-1.17,9.69-.16,12.85,4.27.6.82,2.22,3.59,2.22,3.59s3.66-3.56,5.13-4.85a19.1,19.1,0,0,1,4.7-2.6c8.3-2.59,16.77,2.12,20.93,9.45,1.61,2.83,1.76,6.22,2,9.36.1,1.08.18,1.39-.63,2.21-.2.2-1.24.59-1.11.67a7.57,7.57,0,0,1,1.63.8c.72.78.4,3,.15,3.9-1.05,3.55-2.56,6.19-6.29,10.18-3,3.18-5.06,4-9.57,4.54a24.48,24.48,0,0,1-7.95-.76c-1.88-.44-4-2.18-5.42-3.47a15.87,15.87,0,0,1-3.93-6.92c-1,4.92-7.1,11.65-12.58,7.45-2.48-1.9-3.18-6-3.42-7.81-.14-1.1.36-4-.06-4.23s-.72.35-.89.58a5.43,5.43,0,0,1-1.65,1.82c-.51.34-.4,1.07-.43,1.56s-.57,5.08-2.12,7.24-6.89,3.69-8.63,3.09c-4.78-1.67-6.26-9.88-6.26-9.88s-.67,9.27-11.33,10.86c-4.75.7-12.05-1.08-14.49-2.42-4.08-2.25-4.38-3.74-4.55-4.9-1.1,4.37-3,5.5-6.09,6.79-1.79.75-7.06,1.44-9.7,1.44a11.13,11.13,0,0,1-6.16-1.84c-2.44-1.55-3.74-3.57-3.62-8C82.88,148.28,81.24,149.73,79.05,151.33Zm16.72-10.71a4.68,4.68,0,0,1-.19-.45c-.14-.39.42-.53.69-.55h.46c.17,0,.66-.13.74-.12s.18.19.18.3a1.69,1.69,0,0,1-.13.66,1.07,1.07,0,0,1-.86.45C96.09,141,95.94,140.94,95.77,140.62Zm95.18-1.5c-.19-.08-.86-.34-.78-.47s1-.12,1.25-.13a5.73,5.73,0,0,1,1.79.11c.08.08-.14.38-.21.47C192.64,139.51,192,139.53,191,139.12ZM38.67,128.68c0-1-.3-1.39-1.54-1.88a5.73,5.73,0,0,0-.7-.23,2.09,2.09,0,0,0-.55-.08.78.78,0,0,0-.31,0c-.29.12-.12.51-.06.69a3.62,3.62,0,0,0,1.05,1.61,2.72,2.72,0,0,0,1.75.79C38.63,129.58,38.69,129.45,38.67,128.68Zm56.66-1.63a1.92,1.92,0,0,0-.14-.62,5.22,5.22,0,0,0-.73-1.38.42.42,0,0,0-.52-.19.6.6,0,0,0-.22.67,2.52,2.52,0,0,0,.86,1.5,2.15,2.15,0,0,0,.5.19C95.18,127.23,95.33,127.17,95.33,127.05Z" fill="#000100" fill-rule="evenodd"/></g><g id="e"><path id="e-mid" d="M189.09,149.61c-4.64-1.09-8.22-3.29-10.51-6.49a22.4,22.4,0,0,1-2.33-4.38c-.73-2.38-.08-11.56.17-12.77a15,15,0,0,1,10-11.58,9.07,9.07,0,0,1,4-.58c4.58,0,8,1.52,11.62,5.19a10.34,10.34,0,0,1,2.42,3.12,21.24,21.24,0,0,0,1,1.92,16.89,16.89,0,0,1,1.35,6.2c.1,1.88.08,2.22-.21,2.48-.75.77-3.64,1.09-9.7,1.09a93.08,93.08,0,0,1-10.51-.45c-.07-.05-.32,0-.51.17s-.35.47-.33,1.54a3.64,3.64,0,0,0,1.42,3.18,7.82,7.82,0,0,0,3.61,2c1.92.64,2.86.64,3.78,0a5.29,5.29,0,0,0,2-2.35c.68-1.28,1-1.43,3.29-1.56.94-.07,2.48-.21,3.44-.32,2.22-.28,3.76-.15,4.1.3.75,1-.75,5.21-2.26,7.24a20.39,20.39,0,0,1-7.61,6.06C194.75,150.62,191.22,150.1,189.09,149.61Zm7.13-22.79c1.31-.67,1.33-1.09.18-2.16a12.57,12.57,0,0,0-2.18-1.49,4.27,4.27,0,0,0-4.64-.07c-1.75,1-2.8,2.27-2.35,2.89a4.36,4.36,0,0,0,2.27,1.22,22.32,22.32,0,0,0,3.33.12C195,127.29,195.39,127.23,196.22,126.82Z" fill="#6af02a"/><path id="e-bottom" d="M189.09,149.61c-4.64-1.09-8.22-3.29-10.51-6.49a20.4,20.4,0,0,1-2.33-4.42,6.07,6.07,0,0,1-.24-1.38,4.11,4.11,0,0,0,1.19-.66c.44-.41,1-1.28,1.36-1.37.8-.21,1.52,2.13,1.68,2.22a4.7,4.7,0,0,0,2,0c.82-1,2.15-1.76,2.71-1,.34.47.77,1.28,1.26,1.48a.69.69,0,0,0,.41,0l.49.42a7.84,7.84,0,0,0,3.47,1.9c1.92.64,2.86.64,3.78,0a4.26,4.26,0,0,0,1.5-1.54c.15-.23,1.16.17,2.59-.5,2.1-1,2.3-1.78,3-1.26s1.2.41,2.37.47c2,.1,2.16-1.53,2.84-1.31.22.07.41.1.5.21.75,1-.75,5.21-2.26,7.24a20.39,20.39,0,0,1-7.61,6.06C194.75,150.62,191.22,150.1,189.09,149.61Z" fill="#c1fd20"/><path id="e-top" d="M206.18,126c0,.19-1.13-.95-2.31-.68-2.39.54-2,1.55-3,1.71-1.15.2-2-2-2.11-1.51-.19.81-.57,1.68-1.77.83-.06,0,.38-.2.17-.75-.39-1-3.8-3.4-5.74-3.13-2.15.3-4.59,2.43-4.26,3.42.14.43.08,1.23-1,1.18-1.88,0-2-2-3.36-1.74s-2,2.13-2.81,2.81c-.5.42-.95-1.63-2.34-1.65-.58,0-.81.45-1.07.69s-.32.11-.31,0a10.51,10.51,0,0,1,.11-1.23,15,15,0,0,1,10-11.58,9.07,9.07,0,0,1,4-.58c4.58,0,8,1.52,11.62,5.19a10.34,10.34,0,0,1,2.42,3.12,21.24,21.24,0,0,0,1,1.92A7.51,7.51,0,0,1,206.18,126Z" fill="#08df1c"/></g><g id="m"><path id="m-mid" d="M176,126.93a35.29,35.29,0,0,1,.09,6.36,46.6,46.6,0,0,1-.65,6.33,9.66,9.66,0,0,1-2.37,4.78,4.59,4.59,0,0,1-4.33,1.54c-.75-.11-1-.3-2.12-1.37a6.88,6.88,0,0,1-2.35-4.64c-.13-1.36,0-2.58.9-7.11a39.82,39.82,0,0,0,.58-4.25c.14-1.73.12-1.88-.35-2.8-.85-1.68-1.79-1.68-2.09,0a84.7,84.7,0,0,1-2.37,9.06c-.9,1.92-2.29,2.37-3.72,1.24-.72-.56-2.24-2.75-4.4-6.22a22,22,0,0,0-1.56-2.24c-.62-.72-.72-.77-1-.51a5,5,0,0,0-.23,3.8,42.84,42.84,0,0,0,2.73,5.15,31.24,31.24,0,0,1,1.8,3.48,9,9,0,0,1-.41,6.92,6.76,6.76,0,0,1-2.78,2.78,7.37,7.37,0,0,1-4.59.11,10.33,10.33,0,0,1-3.44-3.51,29,29,0,0,1-3.1-10.72c-.62-6.67,1.09-14,3.91-16.81a8.7,8.7,0,0,1,5.85-2.56,3.57,3.57,0,0,1,2.46.72,8.57,8.57,0,0,1,2,1.62c1.15,1.37,1.35,1.8,1.81,1.8s.73-1,1.13-2.21.31-1.66,1.12-2.47c1.6-1.6,6.64-2.18,9.41-1.11s5.43,4.27,6.75,8A24.34,24.34,0,0,1,176,126.93Z" fill="#6af02a"/><path id="m-bottom2" d="M164.52,136.56c0-.26.81,1.09,2,1.63.24.12,1.6-1.9,3.46-1.91.68,0,1.18.11,2.44,1.9.24.34,1.08.41,2.2,0a3.21,3.21,0,0,0,1.23-.85,22.37,22.37,0,0,1-.33,2.28,9.66,9.66,0,0,1-2.37,4.78,4.59,4.59,0,0,1-4.33,1.54c-.75-.11-1-.3-2.12-1.37a6.88,6.88,0,0,1-2.35-4.64A12.34,12.34,0,0,1,164.52,136.56Z" fill="#c1fd20"/><path id="m-bottom1" d="M143.4,145.85a51.41,51.41,0,0,1-2.66-7.66c.78.34,1.21.49,1.65.15s.9-1.94,1.62-1.63,1.31,1.68,1.8,1.91c.75.36,1.28-1.35,2-1.4,1.58-.11,2.56.32,3.13-.6a1,1,0,0,1,1.35-.22c.5.42.6,1.82,1.35,2a.26.26,0,0,0,.33-.18s.43.89.64,1.35a9,9,0,0,1-.41,6.92,6.76,6.76,0,0,1-2.78,2.78,7.37,7.37,0,0,1-4.59.11A10.33,10.33,0,0,1,143.4,145.85Z" fill="#c1fd20"/><path id="m-top" d="M175.72,125.29c0,.06-.49.35-.66.54-.62.73-.19,2.11-.81,2.47a.88.88,0,0,1-1.06-.17c-.8-.71-1.59-2.69-3.34-2.58-1.45.09-2.32,1.75-3.29,1.55-.6-.12-1-1.17-1.12-1.33-.48-1-.91-1.29-1.33-1.23-.14,0-.46.2-.65.79,0,.11-.35-.25-.54,0-.65.77-.84.31-1,.46a1.14,1.14,0,0,1-1.27.48c-.51-.1-.85-1-.85-1-.09.87-.15,2.33-1.43,1.38-.73-.54-1.27-1.3-2.13-1.33-1.28,0-2.66.74-2.68,1.34,0,1.42-.67,1.42-.79,1.42-.71,0-1.53-1.2-1.81-1.56s-1.91-1.75-2.42-1.49c-1.8.92-.5,2-1.31,3.06a1.24,1.24,0,0,1-1.47,0,5.9,5.9,0,0,1-1.51-1.64,3.5,3.5,0,0,0-1.3-.76,1.52,1.52,0,0,1-.71-.83c-.07-.26-1.22,0-1.22,0s.73-2.48,1.2-3.52a10.36,10.36,0,0,1,2-3,8.7,8.7,0,0,1,5.85-2.56,3.57,3.57,0,0,1,2.46.72,8.57,8.57,0,0,1,2,1.62c1.15,1.37,1.34,1.8,1.81,1.8s.73-1,1.14-2.24.32-1.65,1.11-2.44c1.6-1.6,6.64-2.18,9.41-1.11s5.43,4.27,6.75,8A16.73,16.73,0,0,1,175.72,125.29Z" fill="#08df1c"/></g><g id="a"><path id="a-mid" d="M124.52,150.15a25.47,25.47,0,0,1-5.73-1.33c-5.4-2.11-8.33-4.87-8.93-8.44-.49-2.84.26-5.06,2.8-8.43a15.55,15.55,0,0,1,4.38-3.31,6.51,6.51,0,0,1,3.19-.79,5.87,5.87,0,0,1,3.39.49c.86.34,2,.87,2.63,1.17a7.21,7.21,0,0,0,1.88.66c.75.11.87.05,1.66-.64s.84-.79.82-1.77a5.43,5.43,0,0,0-.33-1.67,12.5,12.5,0,0,0-2.92-3.26c-.69-.49-.79-.5-1.82-.32a7.87,7.87,0,0,0-1.85.61,18.63,18.63,0,0,0-2.74,2c-.5.4-.64.67-1.41,1.33a4.77,4.77,0,0,1-2.5,1.43,6.41,6.41,0,0,1-3.39-.3c-1.24-.68-2-2.5-2-5a2.64,2.64,0,0,1,.6-2,9.69,9.69,0,0,1,4.08-3.31,37.12,37.12,0,0,1,6.21-2.35c.49-.13,1.75-.43,2.63-.59,4.29-.75,6.75-.28,8.16.87a12.14,12.14,0,0,1,1.54,1.63,21.77,21.77,0,0,1,2.62,4.25,29.91,29.91,0,0,1,1.69,5.87c.36,1.86.39,2.61.32,6.49-.08,4.75-.17,5.47-1.26,8.65a12.15,12.15,0,0,1-3.09,5.36c-2.08,2.08-3.47,2.65-6.88,2.78A26.49,26.49,0,0,1,124.52,150.15Zm-.8-8.34a5.68,5.68,0,0,0,3.79.2,1.75,1.75,0,0,0,.81-1.25.86.86,0,0,0,0-.3,4.16,4.16,0,0,0-1.6-2.37c-2-1.82-3.72-2-5.23-.59a2.12,2.12,0,0,0-.89,1.63,2,2,0,0,0,.24.72A4.7,4.7,0,0,0,123.72,141.81Z" fill="#6af02a"/><path id="a-bottom" d="M124.52,150.15a25.47,25.47,0,0,1-5.73-1.33c-5.4-2.11-8.33-4.87-8.93-8.44a15,15,0,0,1-.06-2.68s.3.43,1.45-1,1.9,1.74,3.21,1.76c.48,0,1.71.14,3.63-1.93.82-.87,2-.53,1.87.3a2.94,2.94,0,0,0,.65,2.29,2.79,2.79,0,0,0,1,1.59,7.69,7.69,0,0,0,5.66,1.4c.73-.15,1-.93,1.1-1.41.15-.75-.74-1.76-.74-1.76a2.22,2.22,0,0,0,1.35-.21c.95-.53,2-2.55,3.37-3.91,1.07-1.1,2.51.43,2.17,2-.06.28.64,1.13.85,1.16s1.08-1,2.15-1.3a1.89,1.89,0,0,1,1.92.43,16.85,16.85,0,0,1-1.14,5,12.15,12.15,0,0,1-3.09,5.36c-2.08,2.08-3.47,2.65-6.88,2.78A26.49,26.49,0,0,1,124.52,150.15Z" fill="#c1fd20"/><path id="a-top" d="M136.91,125.7c-.61.56-1.16,2.13-1.89,2.29-.25.06-.62-.73-.69-.87-.48-.87-.94-2.25-2.6-2-.73.09-.72.76-.92.94s-.52.1-.53.07a12.5,12.5,0,0,0-2.92-3.26c-.69-.49-.79-.5-1.82-.32a7.87,7.87,0,0,0-1.85.61,22.36,22.36,0,0,0-2.74,2s-.55-.29-1.6.5c-.65.49-.79.14-1.13.31s-.42.66-.87.76c-.21,0-.5-.51-.95-.54s-.6.72-1.65.56c-.44-.06-.37-.42-.75-.59s-.68-.07-.69-.12a1,1,0,0,0-1.1-.82.43.43,0,0,1-.26-.18,10.35,10.35,0,0,1-.29-2.42,2.64,2.64,0,0,1,.6-2,9.69,9.69,0,0,1,4.08-3.31,37.3,37.3,0,0,1,6.21-2.35c.4-.11,2.12-.49,2.63-.59,4.29-.77,6.75-.28,8.16.87a12.14,12.14,0,0,1,1.54,1.63,23.08,23.08,0,0,1,2.62,4.25,27,27,0,0,1,1.17,3.53A9.49,9.49,0,0,0,136.91,125.7Z" fill="#08df1c"/></g><g id="g"><path id="g-mid" d="M85.17,132.52s-.47-6.3-.47-6.3l-.08-2.16c-.11-2.71.08-4.12.72-5,.26-.4.69-1.13,1-1.66a5.83,5.83,0,0,1,2.4-2.59c1.17-.62,4.57-.57,8.28.15a31.45,31.45,0,0,0,3.66.54c.79,0,.85,0,.85-.49,0-.75.47-1.09,1.8-1.27a5,5,0,0,1,3.54.58c.56.54,1.46,3.91,2,7.5,1.32,9.35.79,20.46-1.13,24.29-.92,1.81-3.62,3.39-6.65,3.86a31.67,31.67,0,0,1-9.59-.32,7.87,7.87,0,0,1-5.36-4.21,10,10,0,0,1-.88-5.85c.28-2.2.62-2.86,1.61-3.12a7.93,7.93,0,0,1,3.5-.19c.47.11,1.24.24,1.73.3a2.5,2.5,0,0,1,1.58.77c.68.64.7.66.58,1.79a3,3,0,0,0,.83,2.78c.53.49,1.47.51,3,.1,2.11-.61,3.24-1.42,3.84-2.73a14.21,14.21,0,0,0,.62-5.38l-.15-1.28-.23.64a2.34,2.34,0,0,1-1.9,1.52,60.09,60.09,0,0,1-9.47.53c-3.8-.07-4.29-.24-5-1.79C85.37,133,85.25,132.52,85.17,132.52Zm13.2-4.63c2.23-1.15,2.52-5.6.47-7.22-1-.79-4.33-.41-5.16.58a6.88,6.88,0,0,0-1.05,3.35c-.19,2,.49,3,2.37,3.59A6.58,6.58,0,0,0,98.37,127.89Z" fill="#6af02a"/><g id="g-bottom"><path d="M102,139.14a.64.64,0,0,1,.64-.44c.35,0,.79-.37,1.8-1.58a12.91,12.91,0,0,1,1.62-1.69c.71-.28,1-.11,1.22.7.32,1.22.87,2,1.41,2h.13c.36-.29.56-.28.5.42a23.1,23.1,0,0,1-1.61,7.51c-.92,1.81-3.62,3.39-6.65,3.86a27.39,27.39,0,0,1-4,.22h-.52l-.31,0a22.31,22.31,0,0,1-4.77-.52,7.87,7.87,0,0,1-5.36-4.21,10,10,0,0,1-.88-5.85c0-.26.06-.5.1-.72s.58-.14.69-.22a6.24,6.24,0,0,0,1-.72c1.38-1.29,2-1.67,2.64-1.59s.82.28,1,1.12c.14.63.89.91,2.47.91l1.21,0s0,.14,0,.3,0,.37,0,.45a3,3,0,0,0,.83,2.78c.53.49,1.47.51,3,.1,2.11-.61,3.24-1.42,3.84-2.73A.17.17,0,0,1,102,139.14Z" fill="#c1fd20"/></g><g id="g-top"><path d="M100.18,124.87s.35-2.94-1.33-4.18c-1.38-1-4.71-.06-5.17.56-.91,1.22-1,3.46-1.07,3.56a7.1,7.1,0,0,0-1.68,1.75c-.64,1.28-1.58,1.31-1.9,0,0-.25-.5-.57-.87-.74a2.69,2.69,0,0,1-.84-.72c-.36-.43-.65-.22-1.68.63l-.91.64,0-.17-.08-2.16c-.11-2.71.08-4.12.72-5,.26-.4.69-1.13,1-1.66a5.83,5.83,0,0,1,2.4-2.59c1.17-.62,4.57-.57,8.28.15a31.45,31.45,0,0,0,3.66.54c.79,0,.85,0,.85-.49,0-.75.47-1.09,1.8-1.27a5,5,0,0,1,3.54.58c.56.54,1.46,3.91,2,7.5.25,1.75.43,3.57.55,5.38,0-.59-.12-.94-.2-.93a2,2,0,0,1-1.93-.54l-.54-.58a3.28,3.28,0,0,1-1.57.89,2.37,2.37,0,0,1-1.25-.44c-.3.14-.36.53-.6.73-.78.69-1.06,1.11-1.88-.47-.45-1.9-1-1.62-1.2-.95" fill="#08df1c"/></g></g><g id="y"><g id="y-mid"><path d="M53.49,127.21a5.35,5.35,0,0,1-.46-2c-.12-2.2,0-5.59,0-5.75a7.66,7.66,0,0,1,1.09-3,8.58,8.58,0,0,1,3.65-2.59,8.34,8.34,0,0,1,3.54-.1,3.89,3.89,0,0,1,2.1,1.94c.45.88.38,1.65-.43,4.25a16.91,16.91,0,0,0-.55,2.09c0,.47.89,1.44,1.68,1.84a9.2,9.2,0,0,0,7.37-.21,2.64,2.64,0,0,0,1.48-2,8.34,8.34,0,0,0-.65-1.72c-.87-1.73-1-2.93-.49-3.76a10.56,10.56,0,0,1,5.62-3.38c1.8-.21,3.48,1,5,3.61.84,1.39,2.15,4.36,2.15,5.25,0,.65.62,10.81.54,10.81a5.7,5.7,0,0,0-.23,1.58,26.41,26.41,0,0,1-2.07,8.59c-1,2.29-1.16,2.48-2.4,3.65-3,2.72-6.23,3.87-11,3.87-6.07,0-11.26-1.92-14.46-5.32a5.69,5.69,0,0,1-1.88-4.7c.17-2.45,2-5.12,3.78-5.57a7.55,7.55,0,0,1,4.81.87A3.64,3.64,0,0,1,63,137c0,.44,1.18,1.58,1.82,1.81,1.75.56,5.61-.53,7.13-2s1.69-2.54.51-3.14-2-.53-4.8.07a15.52,15.52,0,0,1-7.09.28c-3.21-.62-4.7-1.74-6.13-4.68C54,128.32,53.51,127.25,53.49,127.21Z" fill="#6af02a"/></g><g id="y-bottom"><path d="M54,137.18s1.12-.77,1.64-.64a4.5,4.5,0,0,1,1.38,1c.81.81.9.84,1.44.66a7.34,7.34,0,0,0,1.45-.87c1.07-.83,1.56-.84,2.11-.11.24.32.53.56.64.56a3.34,3.34,0,0,1,.94.49c1,.68,2,.85,3.81.62,2.49-.3,2.71-.35,3.18-.79l1.06-.88L73,136.13c1.11-.92,2.22-.79,2.22.24,0,.23.07.45.19.49a.73.73,0,0,1,.24.47c.11.75.51,1,1.43,1s1.33-.21,2.54-1.26c1.48-1.3,2.2-1.24,2.5.21a1.39,1.39,0,0,0,1.24,1.07.53.53,0,0,1,.41.23.34.34,0,0,1,.41.13,22.29,22.29,0,0,1-1.35,4c-1,2.29-1.16,2.48-2.4,3.65-3,2.72-6.23,3.87-11,3.87-6.07,0-11.26-1.92-14.46-5.32a5.69,5.69,0,0,1-1.88-4.7A7.36,7.36,0,0,1,54,137.18Z" fill="#c1fd20"/></g><g id="y-top"><path d="M53.05,125.53c0-.1,0-.21,0-.31-.12-2.21,0-5.59,0-5.75a7.66,7.66,0,0,1,1.09-3,8.58,8.58,0,0,1,3.65-2.59,8.34,8.34,0,0,1,3.54-.1,3.89,3.89,0,0,1,2.1,1.94c.45.88.38,1.65-.43,4.25a16.91,16.91,0,0,0-.55,2.09c0,.47.89,1.44,1.68,1.84a9.2,9.2,0,0,0,7.37-.21,2.64,2.64,0,0,0,1.48-2,8.34,8.34,0,0,0-.65-1.72c-.87-1.73-1-2.93-.49-3.76a10.56,10.56,0,0,1,5.62-3.38c1.8-.21,3.48,1,5,3.61.84,1.39,2.15,4.36,2.15,5.25,0,.31.25,4.58.25,4.58a15.09,15.09,0,0,1-1.55,1.2c-.56.27-.85-.06-1.08-.73a1.85,1.85,0,0,0-1.76-1.54,1.31,1.31,0,0,0-1.38.45,3.91,3.91,0,0,1-1.86,1.19c-.53,0-1-.79-1-1.54,0-.4-.1-.72-.21-.72a4.54,4.54,0,0,0-1,.66c-1,.77-1.28.81-1.86.26l-.44-.39-.79.86c-.92,1-1.78,1.19-2.31.45a11.69,11.69,0,0,0-.73-1c-.45-.52-.45-.52-1.17-.24a2.39,2.39,0,0,0-1,.7c-.23.32-.46.35-1.51.32s-1.26,0-1.39.28c-.32.54-.75.36-2-.83s-1.64-1.33-2.69-.17A4,4,0,0,1,57,126.86a2.42,2.42,0,0,1-.84-.6,3,3,0,0,0-2.56-1.21,1.72,1.72,0,0,0-.53.19S53.05,125.48,53.05,125.53Z" fill="#08df1c"/></g></g><g id="P"><g id="p-mid"><path d="M29.35,150.12a5.86,5.86,0,0,1-3.18-1.05c-.68-.77-1.8-6.28-2.18-10.72a10.46,10.46,0,0,0-.19-1.41,88,88,0,0,1-.37-10.06c0-5.3-.35-9.1,4.05-11.9,1.79-1.14,5.95-2.15,12.3-1.64,6.82.55,9.91,2.24,11.14,3.5a6.58,6.58,0,0,1,1.95,3.33,41.65,41.65,0,0,1,.1,4.93,27.41,27.41,0,0,1,0,3.51,22,22,0,0,1-1,4.66,10.15,10.15,0,0,1-2.95,3.8c-.44.34-.87.7-1,.79a12,12,0,0,1-3.42,1.34,26.49,26.49,0,0,1-4.47.44,14.57,14.57,0,0,0-3.82.44,1.42,1.42,0,0,0-.83.64,3.52,3.52,0,0,0,.11,1c.17.79.24,1.23.39,1.83.29,1.15,1,3.91.59,4.72-.74,1.46-2.62,1.81-4.18,1.89A26.19,26.19,0,0,1,29.35,150.12ZM40.2,130.9c2.14-.79,3.44-3,3.44-5.71,0-1.26,0-1.39-.66-2.11a4.65,4.65,0,0,0-3.5-1.5c-3.17-.27-5.2,1.52-5.39,4.77a2.9,2.9,0,0,0,.41,2.2A5,5,0,0,0,40.2,130.9Z" fill="#6af02a"/></g><path id="p-bottom" d="M35.47,149.46c-1.38.81-3.64.91-5.89.75-1-.08-3.3-.65-3.62-1.44a45.72,45.72,0,0,1-1.77-8.56c-.19-1.39,0-1.58.26-2a6.87,6.87,0,0,1,2.54-2,2,2,0,0,1,1,.56,1.6,1.6,0,0,0,2.38.27,3.33,3.33,0,0,0,1-.76.41.41,0,0,1,.34-.26,1.12,1.12,0,0,0,.56-.38,1,1,0,0,1,1.6,0,2.36,2.36,0,0,1,.15,1.17l0,.79.92,0c.67,0,1-.09,1.22-.39a2.14,2.14,0,0,1,1.41-.81c.15,0,.38.3.51.66.28.77.49.75,1.76-.12s2-.66,2.24.49c.13.64.15.66,1.06.66s1-.08,1.78-.83,1.52-1.2,1.73-1a2.68,2.68,0,0,1,.23.72c.09.43.24.64.58.71l.5.17a3.93,3.93,0,0,1-.62.35c-.51.23-1.18.46-1.25.5a16.29,16.29,0,0,1-5.7.84c-3.2.06-4.16.42-4.87,1.13a15.59,15.59,0,0,0,.58,3.14,31.68,31.68,0,0,1,.7,3.5A2.34,2.34,0,0,1,35.47,149.46Z" fill="#c1fd20"/><g id="p-top"><path d="M23.8,125.18c-.34-.28-.48-.62-.3-3.08a14.93,14.93,0,0,1,.37-2.46c1.21-4.73,6.15-6.89,14.73-6.4,9,.5,13.31,2.87,14.27,6.93a9,9,0,0,1,.13,2.2c0,.15,0,.71,0,1.67,0,.5,0,1.16,0,1.23s-.94.58-1.14.54a2.86,2.86,0,0,1-.91-.51c-1-.81-2.65-.33-3.63,1.08-1.1,1.57-2.07,1.2-2.5-.93-.08-.4-1.16-.83-1.16-1.09,0-.92-1.23-1.91-1.57-2.08a7,7,0,0,0-3.66-.7,4.68,4.68,0,0,0-4.33,5.08c0,.89-1.27-1.16-1.16-1.46s-.39-.15-.9.37a7,7,0,0,1-2.51,1.64c-.41-.16-.05-1.33.61-2s.47-1-.26-.52a9.7,9.7,0,0,1-1.35.59,2.6,2.6,0,0,0-1.28.83c-.8,1-3.23.55-3.23-.61A.54.54,0,0,0,23.8,125.18Z" fill="#08df1c"/></g></g></g><g id="Controller"><g id="Body1"><path d="M229.54,115.87a6.45,6.45,0,1,1-5.67,10.62v0l-9.19-1.14,0,0a6.45,6.45,0,1,1-2.92-11.67Z" fill="#cbcfcc" stroke="#000" stroke-linecap="round" stroke-linejoin="round" stroke-width="0.43" fill-rule="evenodd"/></g><g id="Panel-Right"><g id="Panel-Back"><g id="panelright"><path d="M229.27,116.68A5.61,5.61,0,1,1,223,121.6,5.61,5.61,0,0,1,229.27,116.68Z" fill="#465d63" fill-rule="evenodd"/></g><g id="X"><path d="M230.65,119.1l.28-.33-.17-.36.16,0,.11.24.17-.21.16,0-.26.31.2.39-.17,0-.13-.26-.18.22Z" fill="#c8d0d2"/></g><g id="Y-2" data-name="Y"><path d="M223.68,123.56l0-.29-.21-.43.17,0,.13.29.19-.25h.16l-.3.38,0,.29Z" fill="#c8d0d2"/></g><g id="B"><path d="M225.72,125.35l.28,0,.12,0,.07,0a.09.09,0,0,1,0,.06.24.24,0,0,1,0,.08.19.19,0,0,1,0,.09.14.14,0,0,1-.08,0,.24.24,0,0,1,.09.08.14.14,0,0,1,0,.11.16.16,0,0,1,0,.09.13.13,0,0,1-.07.06.16.16,0,0,1-.1,0h-.17l-.23,0Zm.12.13v.16H226l.06,0,0,0a.14.14,0,0,0,0-.06l-.05,0h-.2Zm0,.27,0,.19.13,0h.1l0,0s0,0,0-.06a.07.07,0,0,0,0,0,.08.08,0,0,0,0,0,.29.29,0,0,0-.12,0Z" fill="#c8d0d2"/></g><g id="A-2" data-name="A"><path d="M233.66,121.78l-.15,0,0-.16-.28,0-.08.16-.14,0,.35-.67.15,0Zm-.22-.31-.07-.26-.12.24Z" fill="#c8d0d2"/></g></g><g id="Red-Buttons2"><g id="redbuttonframe2"><path d="M229.62,121.13a1.4,1.4,0,1,0-1.54-2.33L224.82,121a1.4,1.4,0,1,0,1.54,2.33Z" fill="#d1d1cd" fill-rule="evenodd"/></g><g id="redbutton4"><path d="M226.64,121.42a1.11,1.11,0,1,1-1.54-.31A1.12,1.12,0,0,1,226.64,121.42Z" fill="#be0003" fill-rule="evenodd"/></g><g id="redbutton3"><path d="M229.68,119.42a1.11,1.11,0,0,1-1.86,1.22,1.12,1.12,0,0,1,.32-1.54A1.11,1.11,0,0,1,229.68,119.42Z" fill="#be0003" fill-rule="evenodd"/></g></g><g id="Red-Buttons1"><g id="reduttonframe1"><path d="M232.23,123.74a1.4,1.4,0,0,0-1.54-2.33l-3.27,2.15a1.4,1.4,0,0,0,1.54,2.33Z" fill="#d1d1cd" fill-rule="evenodd"/></g><g id="redbutton2"><path d="M229.24,124a1.11,1.11,0,1,1-1.54-.32A1.12,1.12,0,0,1,229.24,124Z" fill="#be0003" fill-rule="evenodd"/></g><g id="redbutton1"><path d="M232.28,122a1.11,1.11,0,1,1-1.54-.32A1.12,1.12,0,0,1,232.28,122Z" fill="#be0003" fill-rule="evenodd"/></g></g></g><g id="Panel-Mid"><g id="Middle-Buttons"><g id="button2"><path d="M218.07,121.1a.36.36,0,0,0-.5-.12l-1.58,1a.36.36,0,1,0,.37.62l1.58-.94A.37.37,0,0,0,218.07,121.1Z" fill="#334249" stroke="#000" stroke-linecap="round" stroke-linejoin="round" stroke-width="2.64" fill-rule="evenodd"/></g><g id="button1"><path d="M221.41,121.51a.37.37,0,0,0-.51-.12l-1.58,1a.37.37,0,0,0,.38.63l1.58-1A.38.38,0,0,0,221.41,121.51Z" fill="#324148" stroke="#000" stroke-linecap="round" stroke-linejoin="round" stroke-width="2.64" fill-rule="evenodd"/></g></g><g id="infobox"><path d="M223.89,116.76a.73.73,0,0,0-.64-.82l-6.16-.76a.74.74,0,0,0-.82.65l-.18,1.46a.74.74,0,0,0,.64.83l6.16.76a.74.74,0,0,0,.82-.65Z" fill="#646464" fill-rule="evenodd"/></g></g><g id="Panel-Left"><g id="Direction-Button"><g id="directionbutton"><path d="M210.07,121l-.06,1.07c0,.55-.1.48.45.52l1,.06c.55,0,.49.09.52-.46l.07-1.07,1.07.07c.55,0,.49.1.52-.45l.06-1c0-.55.1-.48-.45-.52l-1.07-.06.07-1.08c0-.54.09-.48-.46-.51l-1-.07c-.55,0-.48-.09-.52.46l-.07,1.07-1.07-.07c-.55,0-.48-.09-.52.46l-.06,1c0,.55-.1.48.45.52Z" fill="#202c33" stroke="#000" stroke-linecap="round" stroke-linejoin="round" stroke-width="0.4" fill-rule="evenodd"/></g><g id="shadow1"><path d="M209.48,119.94l3.34.22a1.25,1.25,0,0,1,.39.12s0-.08,0-.12V120c0-.47.13-.34-.37-.37l-1.13-.07.07-1.22c0-.47.13-.34-.37-.37h-.23c-.5,0-.39-.15-.42.32l-.08,1.22-1.19-.09c-.5,0-.39-.15-.42.32v.16a.58.58,0,0,1,0,.1A1.7,1.7,0,0,1,209.48,119.94Z" fill="#111618" fill-rule="evenodd"/></g></g><g id="shadow2"><path d="M210.58,124.15a3.72,3.72,0,0,0,2.16-.37,4.49,4.49,0,0,0,1.27-1.06,3.07,3.07,0,0,1-1.24,1.13,3.9,3.9,0,0,1-2.19.3h0Z" fill="gray" fill-rule="evenodd"/></g><g id="shadow11"><path d="M214.66,119a2.44,2.44,0,0,0-.25-.52,4.85,4.85,0,0,0-1.46-1.26,4.77,4.77,0,0,0-1.56-.7,5.86,5.86,0,0,0-1.44,0,4.16,4.16,0,0,1,3.27.48,3.92,3.92,0,0,1,1.44,2,2.25,2.25,0,0,1,.12.49A3.67,3.67,0,0,0,214.66,119Z" fill="#3b3b3b" fill-rule="evenodd"/></g></g></g><g id="Snake-Head"><g id="head"><path d="M223.52,97.05c2.67.33,2.88-1.11,5.38-1.3a9.91,9.91,0,0,1,3.47.51c2.26.89,2.77,3.3,3.1,4.66s.31,2.07.81,3.77a30.73,30.73,0,0,1,.86,3.21,8.41,8.41,0,0,1,.25,2.72,5.58,5.58,0,0,1-.89,2.57c-.45.58-1.31.68-2,1s-1.6.82-2.27,1.28-1.17,1.08-1.74,1.48a12.88,12.88,0,0,1-1.67.92,15.43,15.43,0,0,1-2.24,1,10,10,0,0,1-2.45.4,25.69,25.69,0,0,1-3.65-.16,21.54,21.54,0,0,1-3.3-.69,10.09,10.09,0,0,1-2.28-1A15.32,15.32,0,0,1,213,116a12.22,12.22,0,0,1-1.39-1.3c-.45-.53-.82-1.29-1.33-1.86s-1.3-1.24-1.89-1.79-1.36-.8-1.66-1.47a5.51,5.51,0,0,1-.23-2.71,8.63,8.63,0,0,1,1-2.56c.46-.89,1.23-1.8,1.75-2.75s1-2.42,1.72-3.6,2-3.17,3.71-3.7a8.34,8.34,0,0,1,4.05.29C221.14,95.29,220.93,96.73,223.52,97.05Z" fill="#fee32d" stroke="#000" stroke-linecap="round" stroke-linejoin="round" stroke-width="0.47" fill-rule="evenodd"/></g><g id="Shadows"><g id="shadow3"><path d="M228.9,96.1a5.7,5.7,0,0,1,3.25.25,4,4,0,0,1,1.83,1.8c.57,1,.76.73,1.67,5.08.21,1,.44,2,.66,2.66.14.48.26.87.38,1.34a12.21,12.21,0,0,1,.34,2.34,5,5,0,0,1-.24,2c-.26.61-.42,1.41-1.08,1.73-1.07.52-3.61,1.85-3.61,1.85-.14-.33.67-1.59,0-3.29a5.16,5.16,0,0,0-1.9-2.54,6.09,6.09,0,0,0,3.31-4.33,8.54,8.54,0,0,0-.66-5.37,4.64,4.64,0,0,0-3.72-2.5C228.52,97,228.66,96.19,228.9,96.1Z" fill="#ffdf26" fill-rule="evenodd"/></g><g id="shadow21"><path d="M224.2,97.49a7.52,7.52,0,0,0,1.56-.31,8.53,8.53,0,0,1,2.85-1.06c.43,0,.06.45-.08.63s-.11,0-1.65,1a8.14,8.14,0,0,0-2.8,5.33,7.72,7.72,0,0,0,.58,3.32l-1.92-.52s.13-2.72.36-4.05S224.2,97.49,224.2,97.49Z" fill="#f0cc00" fill-rule="evenodd"/></g><g id="shadow12"><path d="M210.38,112.32s-2.81-2.46-3.07-2.63c-.73-.49-.58-2-.49-2.89a7.22,7.22,0,0,1,1-2.54c.43-.82,1.1-1.54,1.56-2.37a37.77,37.77,0,0,1,2.2-4.48c.69-.92,1.62-2.31,2.51-2.71,1.48-.67,2.54-.22,2.56,0A5.74,5.74,0,0,1,215,95.8a6.88,6.88,0,0,0-1.73,1.36,9.48,9.48,0,0,0-1.8,4.16,13.8,13.8,0,0,0,0,2.75,19.06,19.06,0,0,1,.17,2.75c0,.32-.36.52-.52.79a4.63,4.63,0,0,0-.54.92,6.18,6.18,0,0,0-.34,1.65A18.81,18.81,0,0,0,210.38,112.32Z" fill="#efcc00" fill-rule="evenodd"/></g></g><g id="Highlights"><g id="highlight3"><path d="M232.32,97.25c.17-.27,1,.14,1.16.43s.39,1.24.27,1.29-.45-.61-.68-.94S232.25,97.35,232.32,97.25Z" fill="#fff" fill-rule="evenodd"/></g><g id="highlight2"><path d="M236.77,109.84c-.18-.06-.22.39-.35.81a2,2,0,0,1-.45.85c-.66.76-.69,1.27-.55,1.28.61.06,1-.79,1.22-1.37A4.21,4.21,0,0,0,236.77,109.84Z" fill="#fff" fill-rule="evenodd"/></g><g id="highlight1"><path d="M221.16,97.72c.08-.08.52.18.66.36s.28.65.2.73-.59-.12-.73-.3A1,1,0,0,1,221.16,97.72Z" fill="#fff" fill-rule="evenodd"/></g></g><g id="Eyes"><g id="Eye-R"><g id="eyeball-r"><path d="M229.61,97.66c2.35.29,3.94,3.15,3.54,6.39s-2.63,5.63-5,5.35-3.94-3.16-3.54-6.39S227.26,97.37,229.61,97.66Z" fill="#fff" stroke="#000" stroke-linecap="round" stroke-linejoin="round" stroke-width="0.45" fill-rule="evenodd"/></g><g id="pupil-r"><path d="M226.86,104.37a1.35,1.35,0,1,1-1.5,1.18A1.36,1.36,0,0,1,226.86,104.37Z" fill-rule="evenodd"/></g></g><g id="Eye-L"><g id="eyeball-l"><path d="M217,96.12c2.35.29,3.94,3.15,3.54,6.39s-2.63,5.63-5,5.34-3.94-3.15-3.54-6.39S214.69,95.83,217,96.12Z" fill="#fff" stroke="#000" stroke-linecap="round" stroke-linejoin="round" stroke-width="0.45" fill-rule="evenodd"/></g><g id="pupil-l"><path d="M218.11,103.3a1.35,1.35,0,1,1-1.5,1.17A1.33,1.33,0,0,1,218.11,103.3Z" fill-rule="evenodd"/></g></g></g><g id="Jaw"><g id="Jaw1"><path d="M214.38,124.28c.57,0,2.86.88,4.32,1,2.59.25,3.25,0,3.67.16a2.56,2.56,0,0,1,1.82,3.36c-.41,1.28-1.65,3.38-6.53,2.74-5.59-.72-6-3.87-5.71-5.25A2.3,2.3,0,0,1,214.38,124.28Z" fill="#f0cc00" stroke="#000" stroke-linecap="round" stroke-linejoin="round" stroke-width="2.83" fill-rule="evenodd"/></g><g id="Jaw-Light"><path d="M216.69,125.75c.72,0,1.31.17,2.18.18,1.32,0,2.15-.27,3.08-.3a2.23,2.23,0,0,1,2,1.37,2.33,2.33,0,0,1,0,1.89c-.58,1.71-2.21,2.56-5.92,2.06a5.15,5.15,0,0,1-3.18-1.21,2.84,2.84,0,0,1-.67-3.12A2.29,2.29,0,0,1,216.69,125.75Z" fill="#fee32d" fill-rule="evenodd"/></g><g id="hilight1"><path d="M222.56,126.52a1.15,1.15,0,0,1,.62.49,3,3,0,0,1,.14,1.1c0,.09-.21,0-.27,0s-.1-.39-.2-.57-.43-.44-.47-.6S222.43,126.51,222.56,126.52Z" fill="#fff" fill-rule="evenodd"/></g></g><g id="Snout"><g id="shadow22"><path d="M220.85,110.7c5.38.66,9.48,3.32,9.16,5.93s-4.95,4.19-10.32,3.53-9.48-3.31-9.16-5.93S215.48,110,220.85,110.7Z" fill-opacity="0.27" fill-rule="evenodd"/></g><g id="tooth-R"><path d="M227.68,118.32l1.79-.77-1.38,6.61Z" fill="#fff" stroke="#000" stroke-linecap="round" stroke-linejoin="round" stroke-width="0.47" fill-rule="evenodd"/></g><g id="tooth-L"><path d="M213.49,116.58l-1.55-1.18-.26,6.74Z" fill="#fff" stroke="#000" stroke-linecap="round" stroke-linejoin="round" stroke-width="0.47" fill-rule="evenodd"/></g><g id="snout-2" data-name="snout"><path d="M222,106.33c5.87.72,10.29,4.18,9.85,7.71s-5.56,5.81-11.43,5.09-10.29-4.19-9.85-7.72S216.16,105.6,222,106.33Z" fill="#fee32d" stroke="#000" stroke-linecap="round" stroke-linejoin="round" stroke-width="1.72" fill-rule="evenodd"/></g><g id="shadow13"><path d="M217.28,106.79s-4.33,1-4.8,4.85,3.37,5.72,3.37,5.72-5.21-2-4.73-5.89S217.28,106.79,217.28,106.79Z" fill="#e8c500" fill-rule="evenodd"/></g><g id="Nostril-R"><g id="nostril-r-2" data-name="nostril-r"><path d="M225.36,111.94c1.24.16,2.18.82,2.09,1.48s-1.15,1.08-2.39.93-2.17-.82-2.09-1.48S224.12,111.79,225.36,111.94Z" fill="#f7db27" fill-rule="evenodd"/></g><g id="shadow-r"><path d="M223,112.73c.21-.57,1.21-.91,2.35-.77s2.17.82,2.09,1.48c0,.38-.42.68-.95.83a.8.8,0,0,0,0-.15c.09-.66-.85-1.33-2.09-1.48A3.48,3.48,0,0,0,223,112.73Z" fill="#cdb100" fill-rule="evenodd"/></g></g><g id="Nostril-L"><g id="nostril-l-2" data-name="nostril-l"><path d="M217,110.91c1.24.16,2.18.82,2.1,1.48s-1.16,1.08-2.39.92-2.18-.81-2.1-1.47S215.78,110.76,217,110.91Z" fill="#f7db27" fill-rule="evenodd"/></g><g id="shadow-l"><path d="M214.66,111.7c.22-.57,1.21-.91,2.35-.77s2.17.81,2.09,1.48c0,.38-.41.67-.95.83a.83.83,0,0,0,0-.15c.08-.67-.86-1.33-2.1-1.48A3.48,3.48,0,0,0,214.66,111.7Z" fill="#cdb100" fill-rule="evenodd"/></g></g><g id="highlight11"><path d="M229,109.76c.17-.19,1,.67,1.08.8s.88.88.44,1.17-.58-.57-.85-.9S228.67,110.12,229,109.76Z" fill="#fff" fill-rule="evenodd"/></g></g></g></svg>