<svg width="256" height="256" fill="none" xmlns="http://www.w3.org/2000/svg" viewBox="0 0 256 256"><rect width="256" height="256" rx="60" fill="#007af4"/><circle cx="128" cy="215.23" r="22.6" fill="#fff"/><circle cx="128" cy="39.23" r="22.6" fill="#fff"/><path d="M129.28,61.83l3.1.64s-4.53,16.3,15.39,25.1,21.7,14.62,21.7,14.62,7.34,11.36,0,22.66S144.19,137,144.19,137s15,12,19.72,19.73,7.74,12.32,8.82,25.46h-9.2s-.93-17.17-12.53-26.87A96,96,0,0,0,131.74,139s-29.42.89-37.14,5.24c0,0-5,1.72-7.15,5.93s-1.85,5-1.85,5a20.35,20.35,0,0,0,0,6.58,8.77,8.77,0,0,0,1.73,3.7s1.4,2.75,8,6.13,6.13,3.06,6.13,3.06,11.53,4.6,19.61,12.58l3.81,5.36a33.72,33.72,0,0,0-8.68,3.11,30.76,30.76,0,0,0-12.7-10s-11.62-5.55-13.59-6.7-14-6.7-13.73-19.78,6.58-17.56,6.58-17.56,5.65-10.34,38.31-11.1c0,0-29.06-23-26.89-46.15h9.07s-3.77,20.23,31.05,45.06c0,0,14,0,25.76-7.72,0,0,8.42-7.41,0-16.94,0,0-2.73-3.06-13.2-7.66-.25-.42-26.17-5.56-23.47-35.74A20.86,20.86,0,0,0,129.28,61.83Z" fill="#fff"/></svg>