<svg width="256" height="256" fill="none" xmlns="http://www.w3.org/2000/svg" viewBox="0 0 256 256"><rect width="256" height="256" rx="60" fill="#242938"/><path d="M128,141.33,92.88,122.77,31.93,90.56a.37.37,0,0,0-.22,0A2.69,2.69,0,0,0,28,93.9l31.05,79.21h0l.09.24a10,10,0,0,0,7.08,5.49c.26.06.44.11.75.17a8.09,8.09,0,0,0,1.1.19h.75a545.59,545.59,0,0,0,118.33,0h0q.72,0,1.38-.06l.43-.05h.05l.29-.05.41-.07a5.93,5.93,0,0,0,.79-.24c.37-.13,1-.35,1.39-.54a8.34,8.34,0,0,0,1-.58c.41-.26.8-.52,1.19-.81.17-.13.28-.21.41-.33l-.07,0Z" fill="#ff4b4b"/><path d="M224.15,90.56h-.06l-61,32.22L197,173.25,228,93.9v-.11a2.67,2.67,0,0,0-3.84-3.23" fill="#7d353b"/><path d="M131.24,75.25a3.91,3.91,0,0,0-6.46,0l-31.9,47.53L128,141.33l66.54,35.17c.41-.41.75-.81,1.1-1.23a14.07,14.07,0,0,0,1.38-2l-33.89-50.47Z" fill="#bd4043"/></svg>