<svg width="256" height="256" fill="none" xmlns="http://www.w3.org/2000/svg" viewBox="0 0 256 256"><rect width="256" height="256" rx="60" fill="#1a1a1d"/><circle cx="128" cy="128" r="102.3" fill="#85ea2d"/><path d="M153.11,120.81h0a7.38,7.38,0,0,0-7.46,7.14,7.22,7.22,0,0,0,7.26,7.22H153c3.62.64,7.25-2.86,7.49-7C160.67,124.21,157.14,120.81,153.11,120.81Zm-25.25,0h0a6.94,6.94,0,0,0-7.12,6.68,5,5,0,0,0,0,.66c0,4.3,2.94,7,7.34,7s7-2.83,7-7.26S132.23,120.77,127.86,120.81Zm-24.63,0h-.17c-9.15,0-9.82,13.49-.74,14.36h.5a7.05,7.05,0,0,0,7.47-6.63v-.39A7.23,7.23,0,0,0,103.23,120.8Zm84.56.61c-4.56-.2-6.83-1.74-8-6a43.32,43.32,0,0,1-1.26-8.47c-.33-5.26-.29-10.59-.63-15.85-.69-10.16-6.79-15-16.08-15.22h0a35.3,35.3,0,0,0-7,.5V87.18c2.11,0,3.74,0,5.33,0,2.81,0,4.93,1.14,5.19,4.22.27,2.84.27,5.7.53,8.56.57,5.74.88,11.49,1.87,17.12.87,4.63,4.07,8.09,8,11-7,4.67-9,11.35-9.36,18.88-.21,5.13-.33,10.33-.59,15.53-.24,4.73-1.9,6.25-6.67,6.35-1.33.07-2.63.18-4.09.27v11.12c2.76,0,5.32.17,7.9,0,7.91-.47,12.75-4.32,14.31-12.05a98,98,0,0,0,1.17-12.82c.26-3.94.22-7.9.63-11.79.6-6.09,3.41-8.62,9.49-9a10.64,10.64,0,0,0,1.71-.36V121.68C189.25,121.54,188.55,121.44,187.79,121.41Zm-90-34.23c1,0,2-.14,3.16-.23V75.79c-1.36,0-2.62,0-3.86-.08s-2.39,0-3.63,0c-8.35.51-13.38,4.43-14.78,12.56-1,5.69-.8,11.48-1.21,17.21a57.79,57.79,0,0,1-1,8.82c-1.13,5.2-3.36,6.83-8.65,7.09a16.85,16.85,0,0,0-2.07.37v12.46c9.59.46,10.89,3.86,11.65,13.88.31,3.66-.1,7.33.14,11a66.56,66.56,0,0,0,1.32,10.23c2.2,9.15,11.16,12.22,22,10.38v-11c-1.74,0-3.26,0-4.73,0-3.7-.1-5.06-1-5.39-4.55-.51-4.56-.37-9.19-.64-13.8-.56-8.55-1.49-16.94-9.85-22.37,4.3-3.17,7.43-6.94,8.39-11.92A90.07,90.07,0,0,0,90,105.59c.27-3.52-.16-7.17.14-10.66C90.6,89.27,91,87,97.76,87.18Zm90,34.23c-4.56-.2-6.83-1.74-8-6a43.32,43.32,0,0,1-1.26-8.47c-.33-5.26-.29-10.59-.63-15.85-.69-10.16-6.79-15-16.08-15.22h0a35.3,35.3,0,0,0-7,.5V87.18c2.11,0,3.74,0,5.33,0,2.81,0,4.93,1.14,5.19,4.22.27,2.84.27,5.7.53,8.56.57,5.74.88,11.49,1.87,17.12.87,4.63,4.07,8.09,8,11-7,4.67-9,11.35-9.36,18.88-.21,5.13-.33,10.33-.59,15.53-.24,4.73-1.9,6.25-6.67,6.35-1.33.07-2.63.18-4.09.27v11.12c2.76,0,5.32.17,7.9,0,7.91-.47,12.75-4.32,14.31-12.05a98,98,0,0,0,1.17-12.82c.26-3.94.22-7.9.63-11.79.6-6.09,3.41-8.62,9.49-9a10.64,10.64,0,0,0,1.71-.36V121.68C189.25,121.54,188.55,121.44,187.79,121.41Zm-27.32,6.7c.2-3.9-3.33-7.3-7.36-7.3h0a7.38,7.38,0,0,0-7.46,7.14,7.22,7.22,0,0,0,7.26,7.22H153C156.6,135.8,160.23,132.3,160.47,128.11Zm-32.61-7.3h0a6.94,6.94,0,0,0-7.12,6.68,5,5,0,0,0,0,.66c0,4.3,2.94,7,7.34,7s7-2.83,7-7.26S132.23,120.77,127.86,120.81Zm-24.63,0h-.17c-9.15,0-9.82,13.49-.74,14.36h.5a7.05,7.05,0,0,0,7.47-6.63v-.39A7.23,7.23,0,0,0,103.23,120.8Zm-7.17,48c-3.7-.1-5.06-1-5.39-4.55-.51-4.56-.37-9.19-.64-13.8-.56-8.55-1.49-16.94-9.85-22.37,4.3-3.17,7.43-6.94,8.39-11.92A90.07,90.07,0,0,0,90,105.59c.27-3.52-.16-7.17.14-10.66.49-5.66.86-8,7.65-7.75,1,0,2-.14,3.16-.23V75.79c-1.36,0-2.62,0-3.86-.08s-2.39,0-3.63,0c-8.35.51-13.38,4.43-14.78,12.56-1,5.69-.8,11.48-1.21,17.21a57.79,57.79,0,0,1-1,8.82c-1.13,5.2-3.36,6.83-8.65,7.09a16.85,16.85,0,0,0-2.07.37v12.46c9.59.46,10.89,3.86,11.65,13.88.31,3.66-.1,7.33.14,11a66.56,66.56,0,0,0,1.32,10.23c2.2,9.15,11.16,12.22,22,10.38v-11C99.05,168.79,97.53,168.82,96.06,168.79ZM128,25.7A102.3,102.3,0,1,0,230.3,128,102.41,102.41,0,0,0,128,25.7Zm0,194.84A92.54,92.54,0,1,1,220.54,128,92.53,92.53,0,0,1,128,220.54Zm51.78-105.18a43.32,43.32,0,0,1-1.26-8.47c-.33-5.26-.29-10.59-.63-15.85-.69-10.16-6.79-15-16.08-15.22h0a35.3,35.3,0,0,0-7,.5V87.18c2.11,0,3.74,0,5.33,0,2.81,0,4.93,1.14,5.19,4.22.27,2.84.27,5.7.53,8.56.57,5.74.88,11.49,1.87,17.12.87,4.63,4.07,8.09,8,11-7,4.67-9,11.35-9.36,18.88-.21,5.13-.33,10.33-.59,15.53-.24,4.73-1.9,6.25-6.67,6.35-1.33.07-2.63.18-4.09.27v11.12c2.76,0,5.32.17,7.9,0,7.91-.47,12.75-4.32,14.31-12.05a98,98,0,0,0,1.17-12.82c.26-3.94.22-7.9.63-11.79.6-6.09,3.41-8.62,9.49-9a10.64,10.64,0,0,0,1.71-.36V121.68c-1-.14-1.74-.24-2.5-.27C183.23,121.21,181,119.67,179.78,115.36Zm-19.31,12.75c.2-3.9-3.33-7.3-7.36-7.3h0a7.38,7.38,0,0,0-7.46,7.14,7.22,7.22,0,0,0,7.26,7.22H153C156.6,135.8,160.23,132.3,160.47,128.11Zm-32.61-7.3h0a6.94,6.94,0,0,0-7.12,6.68,5,5,0,0,0,0,.66c0,4.3,2.94,7,7.34,7s7-2.83,7-7.26S132.23,120.77,127.86,120.81Zm-24.63,0h-.17c-9.15,0-9.82,13.49-.74,14.36h.5a7.05,7.05,0,0,0,7.47-6.63v-.39A7.23,7.23,0,0,0,103.23,120.8Zm-7.17,48c-3.7-.1-5.06-1-5.39-4.55-.51-4.56-.37-9.19-.64-13.8-.56-8.55-1.49-16.94-9.85-22.37,4.3-3.17,7.43-6.94,8.39-11.92A90.07,90.07,0,0,0,90,105.59c.27-3.52-.16-7.17.14-10.66.49-5.66.86-8,7.65-7.75,1,0,2-.14,3.16-.23V75.79c-1.36,0-2.62,0-3.86-.08s-2.39,0-3.63,0c-8.35.51-13.38,4.43-14.78,12.56-1,5.69-.8,11.48-1.21,17.21a57.79,57.79,0,0,1-1,8.82c-1.13,5.2-3.36,6.83-8.65,7.09a16.85,16.85,0,0,0-2.07.37v12.46c9.59.46,10.89,3.86,11.65,13.88.31,3.66-.1,7.33.14,11a66.56,66.56,0,0,0,1.32,10.23c2.2,9.15,11.16,12.22,22,10.38v-11C99.05,168.79,97.53,168.82,96.06,168.79Z" fill="#173647"/></svg>