<svg width="256" height="256" fill="none" xmlns="http://www.w3.org/2000/svg" viewBox="0 0 256 256"><rect width="256" height="256" rx="60" fill="#398ccb"/><path d="M127.72,37.5,163.26,58V69.28l43,24.84v42.49l11.54,6.66v41L182.3,204.81l-15.77-9.12L128.2,217.82l-38.11-22-15.55,9L39,184.27v-41l11.09-6.4V94.12l42.09-24.3h0V58Zm35.54,42.44V99l-35.51,20.51L92.23,99V80.47h0l-32.86,19v32.09l15.19-8.77,35.52,20.5v41l-10.75,6.21,28.89,16.68,29.11-16.8-10.53-6.09v-41l35.52-20.5,14.75,8.51V99.45ZM156,179V154l21.66,12.51v25Zm52.56-25.06-21.66,12.51v25.06L208.58,179ZM48.26,179v-25l21.67,12.51v25Zm52.57-25L79.16,166.43v25L100.83,179Zm59.8-8,21.67-12.51L204,146,182.3,158.48ZM74.54,133.42,52.87,146l21.67,12.49L96.21,146Zm26.92-39.74v-25l21.65,12.52v25Zm52.55-25L132.36,81.17v25L154,93.68Zm-47.93-8,21.64-12.51,21.67,12.51L127.72,73.18Z" fill="#fff" fill-rule="evenodd"/></svg>