<svg width="256" height="256" fill="none" xmlns="http://www.w3.org/2000/svg" xmlns:xlink="http://www.w3.org/1999/xlink" viewBox="0 0 256 256"><defs><linearGradient id="xcode-charcoal-linear-gradient" x1="0.52" y1="255.12" x2="0.52" y2="255.92" gradientTransform="matrix(228.29, 0, 0, -228.29, 0, 58462.17)" gradientUnits="userSpaceOnUse"><stop offset="0" stop-color="#1578e4"/><stop offset="1" stop-color="#00c3f2"/></linearGradient><linearGradient id="xcode-charcoal-linear-gradient-2" x1="-1.17" y1="255.65" x2="-1.17" y2="256.45" gradientTransform="matrix(5.01, 0, 0, -17.07, 180.04, 4521.95)" gradientUnits="userSpaceOnUse"><stop offset="0" stop-color="#1492e7"/><stop offset="1" stop-color="#dbedfb"/></linearGradient><linearGradient id="xcode-charcoal-linear-gradient-3" x1="-0.85" y1="255.65" x2="-0.85" y2="256.45" gradientTransform="matrix(4.55, 0, 0, -17.07, 169.12, 4521.95)" xlink:href="#xcode-charcoal-linear-gradient-2"/><linearGradient id="xcode-charcoal-linear-gradient-4" x1="5.16" y1="255.65" x2="5.16" y2="256.45" gradientTransform="matrix(1.14, 0, 0, -17.07, 113.58, 4521.95)" xlink:href="#xcode-charcoal-linear-gradient-2"/><linearGradient id="xcode-charcoal-linear-gradient-5" x1="5.26" y1="255.65" x2="5.26" y2="256.45" gradientTransform="matrix(1.59, 0, 0, -17.07, 101.97, 4521.95)" xlink:href="#xcode-charcoal-linear-gradient-2"/><linearGradient id="xcode-charcoal-linear-gradient-6" x1="4.82" y1="255.65" x2="4.82" y2="256.45" gradientTransform="matrix(2.28, 0, 0, -17.07, 90.36, 4521.95)" xlink:href="#xcode-charcoal-linear-gradient-2"/><linearGradient id="xcode-charcoal-linear-gradient-7" x1="4.93" y1="255.65" x2="4.93" y2="256.45" gradientTransform="matrix(2.73, 0, 0, -17.07, 78.75, 4521.95)" xlink:href="#xcode-charcoal-linear-gradient-2"/><linearGradient id="xcode-charcoal-linear-gradient-8" x1="4.72" y1="255.65" x2="4.72" y2="256.45" gradientTransform="matrix(3.41, 0, 0, -17.07, 66.92, 4521.95)" xlink:href="#xcode-charcoal-linear-gradient-2"/><linearGradient id="xcode-charcoal-linear-gradient-9" x1="4.18" y1="255.65" x2="4.18" y2="256.45" gradientTransform="matrix(4.55, 0, 0, -17.07, 54.63, 4521.95)" xlink:href="#xcode-charcoal-linear-gradient-2"/><linearGradient id="xcode-charcoal-linear-gradient-10" x1="4.29" y1="255.65" x2="4.29" y2="256.45" gradientTransform="matrix(5.01, 0, 0, -17.07, 43.25, 4521.95)" xlink:href="#xcode-charcoal-linear-gradient-2"/><linearGradient id="xcode-charcoal-linear-gradient-11" x1="0.51" y1="255.13" x2="0.51" y2="255.93" gradientTransform="matrix(88.25, 0, 0, -140.36, 91.99, 35994.13)" gradientUnits="userSpaceOnUse"><stop offset="0" stop-color="#1285e7"/><stop offset="1" stop-color="#00b5ef"/></linearGradient><linearGradient id="xcode-charcoal-linear-gradient-12" x1="0.66" y1="255.13" x2="0.39" y2="255.93" gradientTransform="matrix(76.02, 0, 0, -131.56, 91.95, 33748.82)" gradientUnits="userSpaceOnUse"><stop offset="0" stop-color="#2b90e7"/><stop offset="1" stop-color="#00b6ef"/></linearGradient><linearGradient id="xcode-charcoal-linear-gradient-13" x1="0.66" y1="255.13" x2="0.39" y2="255.93" gradientTransform="matrix(78.98, 0, 0, -135.88, 92.64, 34852.28)" gradientUnits="userSpaceOnUse"><stop offset="0" stop-color="#3795ea"/><stop offset="1" stop-color="#49c4f2"/></linearGradient><linearGradient id="xcode-charcoal-linear-gradient-14" x1="0.65" y1="255.13" x2="0.38" y2="255.93" gradientTransform="matrix(80.35, 0, 0, -138.16, 95.82, 35431.79)" gradientUnits="userSpaceOnUse"><stop offset="0" stop-color="#3696ea"/><stop offset="1" stop-color="#90d9f6"/></linearGradient><linearGradient id="xcode-charcoal-linear-gradient-15" x1="0.64" y1="255.12" x2="0.37" y2="255.92" gradientTransform="matrix(78.98, 0, 0, -136.11, 100.38, 34906.23)" gradientUnits="userSpaceOnUse"><stop offset="0" stop-color="#3097ea"/><stop offset="1" stop-color="#b5e5f9"/></linearGradient><linearGradient id="xcode-charcoal-linear-gradient-16" x1="0.63" y1="255.12" x2="0.36" y2="255.92" gradientTransform="matrix(76.02, 0, 0, -131.33, 104.25, 33683.5)" gradientUnits="userSpaceOnUse"><stop offset="0" stop-color="#3a98ea"/><stop offset="1" stop-color="#bce7fa"/></linearGradient><linearGradient id="xcode-charcoal-linear-gradient-17" x1="0.24" y1="255.55" x2="1.03" y2="255.84" gradientTransform="matrix(15.02, 0, 0, -9.56, 123.14, 2565.18)" gradientUnits="userSpaceOnUse"><stop offset="0" stop-color="#00a4ec"/><stop offset="1" stop-color="#b9dff6"/></linearGradient><linearGradient id="xcode-charcoal-linear-gradient-18" x1="0.31" y1="255.34" x2="1.1" y2="255.64" gradientTransform="matrix(15.02, 0, 0, -9.79, 117.67, 2613.89)" xlink:href="#xcode-charcoal-linear-gradient-17"/><linearGradient id="xcode-charcoal-linear-gradient-19" x1="0.5" y1="254.78" x2="1.28" y2="255.08" gradientTransform="matrix(15.02, 0, 0, -9.85, 101.06, 2601.12)" gradientUnits="userSpaceOnUse"><stop offset="0" stop-color="#00b4ef"/><stop offset="1" stop-color="#c3e9fa"/></linearGradient><linearGradient id="xcode-charcoal-linear-gradient-20" x1="0.56" y1="254.61" x2="1.32" y2="254.9" gradientTransform="matrix(15.49, 0, 0, -10.17, 95.36, 2672.57)" xlink:href="#xcode-charcoal-linear-gradient-19"/><linearGradient id="xcode-charcoal-linear-gradient-21" x1="0.61" y1="255.13" x2="0.61" y2="255.93" gradientTransform="matrix(88.02, 0, 0, -139.91, 48.74, 35880.09)" xlink:href="#xcode-charcoal-linear-gradient-11"/><linearGradient id="xcode-charcoal-linear-gradient-22" x1="0.48" y1="255.13" x2="0.74" y2="255.93" gradientTransform="matrix(76.25, 0, 0, -131.33, 60.77, 33691.01)" gradientUnits="userSpaceOnUse"><stop offset="0" stop-color="#3194e9"/><stop offset="1" stop-color="#71cff4"/></linearGradient><linearGradient id="xcode-charcoal-linear-gradient-23" x1="0.48" y1="255.13" x2="0.75" y2="255.93" gradientTransform="matrix(78.98, 0, 0, -135.88, 57.13, 34852.51)" gradientUnits="userSpaceOnUse"><stop offset="0" stop-color="#5aa6ec"/><stop offset="1" stop-color="#a2def8"/></linearGradient><linearGradient id="xcode-charcoal-linear-gradient-24" x1="0.49" y1="255.13" x2="0.75" y2="255.93" gradientTransform="matrix(80.12, 0, 0, -138.16, 52.81, 35432.24)" gradientUnits="userSpaceOnUse"><stop offset="0" stop-color="#66abee"/><stop offset="1" stop-color="#bee8fa"/></linearGradient><linearGradient id="xcode-charcoal-linear-gradient-25" x1="0.5" y1="255.12" x2="0.76" y2="255.93" gradientTransform="matrix(78.98, 0, 0, -135.88, 49.39, 34848.42)" gradientUnits="userSpaceOnUse"><stop offset="0" stop-color="#7bb6f0"/><stop offset="1" stop-color="#b1e3f9"/></linearGradient><linearGradient id="xcode-charcoal-linear-gradient-26" x1="0.51" y1="255.12" x2="0.77" y2="255.92" gradientTransform="matrix(75.79, 0, 0, -131.33, 48.71, 33683.95)" gradientUnits="userSpaceOnUse"><stop offset="0" stop-color="#5aa6ec"/><stop offset="1" stop-color="#afe3f9"/></linearGradient><linearGradient id="xcode-charcoal-linear-gradient-27" x1="0.36" y1="254.9" x2="1.13" y2="254.6" gradientTransform="matrix(15.26, 0, 0, -10.12, 118.36, 2659.72)" gradientUnits="userSpaceOnUse"><stop offset="0" stop-color="#c1e7fa"/><stop offset="1" stop-color="#89d4f5"/></linearGradient><linearGradient id="xcode-charcoal-linear-gradient-28" x1="0.41" y1="255.05" x2="1.19" y2="254.77" gradientTransform="matrix(15.25, 0, 0, -9.53, 112.9, 2519.64)" xlink:href="#xcode-charcoal-linear-gradient-27"/><linearGradient id="xcode-charcoal-linear-gradient-29" x1="0.47" y1="255.22" x2="1.25" y2="254.95" gradientTransform="matrix(15.25, 0, 0, -9.33, 107.2, 2478.23)" xlink:href="#xcode-charcoal-linear-gradient-27"/><linearGradient id="xcode-charcoal-linear-gradient-30" x1="0.53" y1="255.42" x2="1.31" y2="255.15" gradientTransform="matrix(15.25, 0, 0, -9.33, 101.74, 2488.02)" gradientUnits="userSpaceOnUse"><stop offset="0" stop-color="#b0dff8"/><stop offset="1" stop-color="#52bdf2"/></linearGradient><linearGradient id="xcode-charcoal-linear-gradient-31" x1="0.61" y1="255.63" x2="1.38" y2="255.35" gradientTransform="matrix(15.25, 0, 0, -9.33, 96.05, 2497.58)" gradientUnits="userSpaceOnUse"><stop offset="0" stop-color="#b4def8"/><stop offset="1" stop-color="#4eb5f0"/></linearGradient><linearGradient id="xcode-charcoal-linear-gradient-32" x1="0.69" y1="255.83" x2="1.46" y2="255.56" gradientTransform="matrix(15.25, 0, 0, -9.33, 90.36, 2507.14)" xlink:href="#xcode-charcoal-linear-gradient-31"/><linearGradient id="xcode-charcoal-linear-gradient-33" x1="0.75" y1="256.04" x2="1.52" y2="255.77" gradientTransform="matrix(15.25, 0, 0, -9.33, 84.9, 2516.93)" gradientUnits="userSpaceOnUse"><stop offset="0" stop-color="#b5ddf8"/><stop offset="1" stop-color="#46aeee"/></linearGradient><linearGradient id="xcode-charcoal-linear-gradient-34" x1="0.81" y1="256.27" x2="1.58" y2="256" gradientTransform="matrix(15.25, 0, 0, -9.1, 79.44, 2468.44)" gradientUnits="userSpaceOnUse"><stop offset="0" stop-color="#96cef4"/><stop offset="1" stop-color="#46aaee"/></linearGradient><linearGradient id="xcode-charcoal-linear-gradient-35" x1="1.22" y1="257.97" x2="1.94" y2="257.8" gradientTransform="matrix(12.52, 0, 0, -5.01, 65.55, 1454.23)" gradientUnits="userSpaceOnUse"><stop offset="0" stop-color="#8fc1f2"/><stop offset="1" stop-color="#3193ea"/></linearGradient><linearGradient id="xcode-charcoal-linear-gradient-36" x1="1.07" y1="257" x2="1.84" y2="256.71" gradientTransform="matrix(15.25, 0, 0, -9.79, 57.13, 2683.44)" xlink:href="#xcode-charcoal-linear-gradient-35"/><linearGradient id="xcode-charcoal-linear-gradient-37" x1="1.14" y1="257.13" x2="1.91" y2="256.83" gradientTransform="matrix(15.25, 0, 0, -10.27, 51.44, 2814.33)" xlink:href="#xcode-charcoal-linear-gradient-35"/><linearGradient id="xcode-charcoal-linear-gradient-38" x1="0.43" y1="255.54" x2="0.5" y2="255.49" gradientTransform="matrix(126.1, 0, 0, -216.23, 96.51, 55386.23)" gradientUnits="userSpaceOnUse"><stop offset="0"/><stop offset="1" stop-opacity="0"/></linearGradient><radialGradient id="radial-gradient" cx="0.83" cy="255.68" r="0.34" gradientTransform="matrix(-39.08, 77.67, 77.67, 39.08, -19650.5, -9997.08)" gradientUnits="userSpaceOnUse"><stop offset="0"/><stop offset="1" stop-opacity="0"/></radialGradient><radialGradient id="radial-gradient-2" cx="0.4" cy="256.71" r="0.59" gradientTransform="matrix(22, 10.78, 10.78, -22, -2681.1, 5864.72)" gradientUnits="userSpaceOnUse"><stop offset="0.42" stop-color="#0c0c12"/><stop offset="1" stop-color="#3d4651"/></radialGradient><linearGradient id="xcode-charcoal-linear-gradient-39" x1="0.31" y1="255.5" x2="0.48" y2="255.39" gradientTransform="matrix(56.86, 0, 0, -78.75, 143.62, 20205.5)" gradientUnits="userSpaceOnUse"><stop offset="0" stop-color="#344351"/><stop offset="0.1" stop-color="#9697a0"/><stop offset="0.18" stop-color="#8b8c95"/><stop offset="0.35" stop-color="#787a83"/><stop offset="0.47" stop-color="#71747d"/><stop offset="0.59" stop-color="#777982"/><stop offset="0.75" stop-color="#87898f"/><stop offset="0.8" stop-color="#8e8f94"/><stop offset="0.85" stop-color="#3d3b42"/><stop offset="0.9" stop-color="#606e84"/></linearGradient><linearGradient id="xcode-charcoal-linear-gradient-40" x1="0.21" y1="254.81" x2="-0.23" y2="255.49" gradientTransform="matrix(35.55, 0, 0, -40.04, 208.25, 10267.78)" gradientUnits="userSpaceOnUse"><stop offset="0.27" stop-color="#262b33"/><stop offset="0.45" stop-color="#74747e"/><stop offset="0.54" stop-color="#b0b0bc"/><stop offset="0.73" stop-color="#74747e"/></linearGradient><linearGradient id="xcode-charcoal-linear-gradient-41" x1="-0.3" y1="254.88" x2="0.5" y2="254.93" gradientTransform="matrix(37.16, 0, 0, -20.8, 193.53, 5368.41)" gradientUnits="userSpaceOnUse"><stop offset="0.14" stop-color="#606e84"/><stop offset="0.4" stop-color="#9899a5"/><stop offset="0.73" stop-color="#475768"/><stop offset="0.92" stop-color="#262b33"/></linearGradient><linearGradient id="xcode-charcoal-linear-gradient-42" x1="0.1" y1="254.83" x2="0.01" y2="255.19" gradientTransform="matrix(33.89, 0, 0, -25.41, 192.47, 6543.61)" gradientUnits="userSpaceOnUse"><stop offset="0" stop-color="#101215" stop-opacity="0.1"/><stop offset="0.46" stop-color="#101215" stop-opacity="0.7"/><stop offset="0.7" stop-color="#474951"/><stop offset="0.91" stop-color="#7b7d88"/></linearGradient><linearGradient id="xcode-charcoal-linear-gradient-43" x1="0.49" y1="255.65" x2="0.61" y2="255.56" gradientTransform="matrix(97.49, 0, 0, -148.45, 68.82, 38113.5)" gradientUnits="userSpaceOnUse"><stop offset="0.11" stop-color="#2c3952"/><stop offset="0.37" stop-color="#3d414e"/><stop offset="0.55" stop-color="#474a54"/><stop offset="0.75" stop-color="#4e5057"/><stop offset="0.89" stop-color="#323945"/><stop offset="1" stop-color="#143052"/></linearGradient><linearGradient id="xcode-charcoal-linear-gradient-44" x1="0.24" y1="255.14" x2="0.47" y2="255.5" gradientTransform="matrix(94.04, 0, 0, -69.66, 126.1, 17833.83)" gradientUnits="userSpaceOnUse"><stop offset="0.12" stop-color="#6d7078" stop-opacity="0"/><stop offset="0.2" stop-color="#6d7078" stop-opacity="0.7"/><stop offset="0.34" stop-color="#35363a"/><stop offset="0.37" stop-color="#1d1f22"/><stop offset="0.4" stop-color="#101215"/><stop offset="0.5" stop-color="#16171a"/><stop offset="0.56" stop-color="#292a2e"/><stop offset="0.69" stop-color="#4b4d51"/><stop offset="0.81" stop-color="#63666b"/><stop offset="0.92" stop-color="#72757b"/><stop offset="1" stop-color="#777a80"/></linearGradient><linearGradient id="xcode-charcoal-linear-gradient-45" x1="0.06" y1="255.08" x2="0.86" y2="255.08" gradientTransform="matrix(49.93, 0, 0, -41.91, 125.87, 10734.13)" gradientUnits="userSpaceOnUse"><stop offset="0" stop-color="#4a4d56"/><stop offset="1" stop-color="#29292d"/></linearGradient><linearGradient id="xcode-charcoal-linear-gradient-46" x1="0.07" y1="254.06" x2="0.87" y2="254.06" gradientTransform="matrix(43.17, 0, 0, -13.78, 125.87, 3535.58)" gradientUnits="userSpaceOnUse"><stop offset="0" stop-color="#767880"/><stop offset="0.41" stop-color="#0c0a0b"/></linearGradient><linearGradient id="xcode-charcoal-linear-gradient-47" x1="-0.38" y1="254.85" x2="-0.1" y2="255.49" gradientTransform="matrix(27.54, 0, 0, -36.19, 228.29, 9299.06)" gradientUnits="userSpaceOnUse"><stop offset="0" stop-color="#858997"/><stop offset="0.23" stop-color="#244668"/><stop offset="0.28" stop-color="#1a3249"/><stop offset="0.4" stop-color="#040506"/><stop offset="0.46" stop-color="#313236"/><stop offset="0.55" stop-color="#65656e"/><stop offset="0.61" stop-color="#868691"/><stop offset="0.64" stop-color="#92929e"/></linearGradient></defs><rect width="256" height="256" rx="60" fill="#242938"/><path d="M68,37.83H170.88a39.86,39.86,0,0,1,39.88,39.88V180.58a39.86,39.86,0,0,1-39.88,39.87H68a39.86,39.86,0,0,1-39.87-39.87V77.71A39.86,39.86,0,0,1,68,37.83Z" fill="url(#xcode-charcoal-linear-gradient)"/><path d="M167.79,47.66H71.11A33.34,33.34,0,0,0,37.79,81v96.68A33.34,33.34,0,0,0,71.11,211h96.68a33.34,33.34,0,0,0,33.32-33.32V80.8A33.18,33.18,0,0,0,167.79,47.66ZM198.38,178a30.15,30.15,0,0,1-30.23,30.22H70.74A30.26,30.26,0,0,1,40.52,178V80.44A30.15,30.15,0,0,1,70.74,50.21h97.6a30.27,30.27,0,0,1,30.22,30.23V178Z" fill="#fff"/><path d="M119.72,54.22a74.65,74.65,0,1,0,74.65,74.65,74.75,74.75,0,0,0-74.65-74.65Zm0,148.21a73.56,73.56,0,1,1,73.56-73.56A73.59,73.59,0,0,1,119.72,202.43Z" fill="#69c5f3"/><path d="M119.72,69.51a59.45,59.45,0,1,0,59.54,59.36,59.45,59.45,0,0,0-59.54-59.36Zm0,117.62A58.27,58.27,0,1,1,178,128.87,58.2,58.2,0,0,1,119.72,187.13Z" fill="#68c5f4"/><path d="M62.73,142.52H176.35a8.38,8.38,0,0,1,0,16.75H62.73a8.35,8.35,0,0,1-8.37-8.37A8.24,8.24,0,0,1,62.73,142.52Z" fill="#fff"/><path d="M62.37,144.16h114a6.72,6.72,0,0,1,6.73,6.74v.18a6.72,6.72,0,0,1-6.73,6.74h-114a6.73,6.73,0,0,1-6.74-6.74v-.36A6.81,6.81,0,0,1,62.37,144.16Z" fill="#0a93e9"/><polygon points="59.64 157.09 179.26 157.09 180.17 156.54 58.73 156.54 59.64 157.09" fill="#1694ea"/><polygon points="56.91 154.9 181.81 154.9 182.17 154.36 56.54 154.36 56.91 154.9" fill="#319dec"/><polygon points="55.81 151.44 183.08 151.44 183.08 150.72 55.81 150.72 55.81 151.44" fill="#65b1ee"/><polygon points="57.09 146.89 181.99 146.89 182.17 147.26 182.35 147.62 56.73 147.62 56.91 147.26 57.09 146.89" fill="#8ec6f3"/><polygon points="59.82 144.71 179.26 144.71 179.81 144.89 180.35 145.25 58.73 145.25 59.27 144.89 59.82 144.71" fill="#95caf3"/><path d="M173.07,144.16h-.91a8.79,8.79,0,0,1,3.09,7.1,7.92,7.92,0,0,1-3.09,6.56h.91s3.09-1.46,3.09-6.56C176.16,145.8,173.07,144.16,173.07,144.16Z" fill="url(#xcode-charcoal-linear-gradient-2)"/><path d="M164.33,144.16h-.91a10.17,10.17,0,0,1,2.73,7.1,9.64,9.64,0,0,1-2.73,6.56h.91a8.21,8.21,0,0,0,2.73-6.56C166.88,146.35,164.33,144.16,164.33,144.16Z" fill="url(#xcode-charcoal-linear-gradient-3)"/><polygon points="118.99 144.16 119.9 144.16 119.9 157.82 118.99 157.82 118.99 144.16" fill="url(#xcode-charcoal-linear-gradient-4)"/><path d="M110.07,144.16H111s-.36,3.46-.36,7.1c0,3.28.36,6.56.36,6.56h-.91s-.36-3.28-.36-6.56C109.71,147.62,110.07,144.16,110.07,144.16Z" fill="url(#xcode-charcoal-linear-gradient-5)"/><path d="M101.33,144.16h.91a31.74,31.74,0,0,0-.91,7.1,28.16,28.16,0,0,0,.91,6.56h-.91a28.16,28.16,0,0,1-.91-6.56A31.74,31.74,0,0,1,101.33,144.16Z" fill="url(#xcode-charcoal-linear-gradient-6)"/><path d="M92.41,144.16h.91a23.46,23.46,0,0,0-1.27,7.1,20.9,20.9,0,0,0,1.27,6.56h-.91a20.9,20.9,0,0,1-1.27-6.56A23.46,23.46,0,0,1,92.41,144.16Z" fill="url(#xcode-charcoal-linear-gradient-7)"/><path d="M83.49,144.16h.91a14.57,14.57,0,0,0-1.82,7.1,13.75,13.75,0,0,0,1.82,6.56h-.91a13.75,13.75,0,0,1-1.82-6.56A14.57,14.57,0,0,1,83.49,144.16Z" fill="url(#xcode-charcoal-linear-gradient-8)"/><path d="M74.57,144.16h.91a10.17,10.17,0,0,0-2.73,7.1,9.64,9.64,0,0,0,2.73,6.56h-.91a8.21,8.21,0,0,1-2.73-6.56C72,146.35,74.57,144.16,74.57,144.16Z" fill="url(#xcode-charcoal-linear-gradient-9)"/><path d="M65.83,144.16h.91a8.78,8.78,0,0,0-3.1,7.1,7.91,7.91,0,0,0,3.1,6.56h-.91s-3.1-1.46-3.1-6.56C62.73,145.8,65.83,144.16,65.83,144.16Z" fill="url(#xcode-charcoal-linear-gradient-10)"/><path d="M115.9,74.79l56.81,98.32a8.4,8.4,0,0,1-14.57,8.38L101.33,83.17a8.4,8.4,0,0,1,14.57-8.38Z" fill="#fff"/><path d="M114.44,75.52l57,98.68a6.76,6.76,0,0,1-2.37,9.11l-.36.18a6.75,6.75,0,0,1-9.1-2.37l-57-98.86A6.77,6.77,0,0,1,105,73.15l.19-.18A6.82,6.82,0,0,1,114.44,75.52Z" fill="url(#xcode-charcoal-linear-gradient-11)"/><polygon points="101.7 79.53 161.42 183.13 161.78 183.31 162.15 183.49 162.51 183.67 101.7 78.43 101.7 79.53" fill="url(#xcode-charcoal-linear-gradient-12)"/><polygon points="102.24 76.07 164.69 184.22 165.42 184.22 102.61 75.52 102.42 75.89 102.24 76.07" fill="url(#xcode-charcoal-linear-gradient-13)"/><polygon points="104.79 73.34 168.52 183.49 169.06 183.13 105.34 72.97 104.79 73.34" fill="url(#xcode-charcoal-linear-gradient-14)"/><polygon points="109.34 72.24 171.61 180.21 171.43 180.58 171.25 180.94 108.43 72.06 108.8 72.06 109.34 72.24" fill="url(#xcode-charcoal-linear-gradient-15)"/><polygon points="112.62 73.34 172.34 176.75 172.34 177.84 111.53 72.79 111.89 72.97 112.26 73.15 112.62 73.34" fill="url(#xcode-charcoal-linear-gradient-16)"/><path d="M169.61,170.93l-.36-.73a9.13,9.13,0,0,1-4.37,6.19,8,8,0,0,1-7.29.73l.37.73s2.91,2,7.28-.73C169.61,174.57,169.61,170.93,169.61,170.93Zm-4.55-7.65-.37-.73a10.26,10.26,0,0,1-4.73,5.83,8.9,8.9,0,0,1-6.92,1.09l.37.73s3.09,1.27,7.1-1.09a9.14,9.14,0,0,0,4.55-5.83Z" fill="#3c98ea"/><path d="M160.69,155.63l-.37-.73a14.27,14.27,0,0,1-5.09,5.1,14.49,14.49,0,0,1-6.56,1.82l.37.73a15,15,0,0,0,6.55-1.82A14.36,14.36,0,0,0,160.69,155.63Z" fill="#4ca4ed"/><path d="M156.32,148l-.37-.73a19.43,19.43,0,0,1-5.46,4.73,21.81,21.81,0,0,1-6.37,2.19l.36.72a21.73,21.73,0,0,0,6.38-2.18A23.26,23.26,0,0,0,156.32,148Z" fill="#4da7ee"/><path d="M138.29,117l.37.73s-3.1,1.46-6.19,3.1a39.05,39.05,0,0,0-5.47,3.82l-.36-.73a58.4,58.4,0,0,1,5.46-3.82C135.2,118.49,138.29,117,138.29,117Z" fill="url(#xcode-charcoal-linear-gradient-17)"/><path d="M133.92,109.39l.37.72a32.24,32.24,0,0,0-6.37,2.92,24.82,24.82,0,0,0-5.28,4.19l-.37-.73a25.13,25.13,0,0,1,5.28-4.19A23.23,23.23,0,0,1,133.92,109.39Z" fill="url(#xcode-charcoal-linear-gradient-18)"/><path d="M125.73,103.38c2.37-.73,4.19-1.09,4.19-1.09l-.37-.73a14.82,14.82,0,0,0-3.46.91c-1.09.36-1.27,1.27-.36.91Z" fill="#9dd4f7"/><path d="M120.63,86.44l.37.73a11,11,0,0,0-7.47,1.28,9.68,9.68,0,0,0-4.19,5.64l-.36-.73s.36-3.09,4.19-5.46a9.47,9.47,0,0,1,7.46-1.46Z" fill="url(#xcode-charcoal-linear-gradient-19)"/><path d="M116.26,78.62l.55.72a9.64,9.64,0,0,0-7.83.91c-4,2.55-4,6-4,6l-.54-.73s-.37-3.09,4-5.82c4.56-2.73,7.83-1.09,7.83-1.09Z" fill="url(#xcode-charcoal-linear-gradient-20)"/><path d="M104.06,142.52c15.84-27.31,34.05-59,34.05-59a8.4,8.4,0,1,0-14.56-8.37s-22.22,38.6-39,67.36Zm-9.83,16.75c-7.65,13.11-12.93,22.58-12.93,22.58a8.4,8.4,0,1,1-14.56-8.37s3.09-5.65,8-14c6.19-.19,17.48-.19,19.48-.19Z" fill="#fff"/><path d="M102.06,142.52c16-27.67,34.59-59.9,34.59-59.9a6.75,6.75,0,0,0-2.36-9.1l-.18-.18A6.77,6.77,0,0,0,125,75.7s-21.85,37.87-38.6,66.82Zm-9.65,16.75C85.13,172,79.85,181.12,79.85,181.12a6.72,6.72,0,0,1-9.11,2.37h-.36a6.72,6.72,0,0,1-2.37-9.1s3.46-6,8.74-15.12Z" fill="url(#xcode-charcoal-linear-gradient-21)"/><path d="M101.51,142.52l36.24-62.63V78.8s-20,34.77-36.78,63.72Zm-9.83,16.75-13.83,24-.55.36-.55.18s6.19-10.74,14.2-24.58Z" fill="url(#xcode-charcoal-linear-gradient-22)"/><path d="M98.78,142.52,137,76.43l-.18-.36-.19-.37s-20.93,36.24-38.41,66.64l.54.18Zm-9.65,16.75L74.57,184.4h-.73S80,173.66,88.41,159.09a1.79,1.79,0,0,0,.72.18Z" fill="url(#xcode-charcoal-linear-gradient-23)"/><path d="M94.78,142.52c18-31.13,39.69-68.82,39.69-68.82l-.55-.36-40,69.18ZM85,159.46c-8,14-14,24.39-14,24.39l-.55-.36s5.83-10.2,13.84-24C84.58,159.27,84.4,159.27,85,159.46Z" fill="url(#xcode-charcoal-linear-gradient-24)"/><path d="M90.41,142.52c18-31.13,40.42-70.09,40.42-70.09h-.73s-22.39,38.78-40.42,70.09ZM79.85,159.27c-7.28,12.57-12.2,21.12-12.2,21.12l.18.37.18.36s5.28-9.1,12.75-21.85Z" fill="url(#xcode-charcoal-linear-gradient-25)"/><path d="M87.68,142.52l40.05-69.37-.36.19-.37.18-.18.18s-22.21,38.42-39.69,68.82ZM78,159.27c-6.38,11.11-10.93,18.94-10.93,18.94v-1.46s4-6.92,10.2-17.66A1.1,1.1,0,0,0,78,159.27Z" fill="url(#xcode-charcoal-linear-gradient-26)"/><path d="M123.18,78.62l-.36.72s3.27-1.63,7.64.73a7.78,7.78,0,0,1,4.19,6l.37-.73s.36-3.46-4.19-6S123.18,78.62,123.18,78.62Z" fill="url(#xcode-charcoal-linear-gradient-27)"/><path d="M118.81,86.44l-.36.73a10.24,10.24,0,0,1,7.46,1.1,8.92,8.92,0,0,1,4.37,5.46l.37-.73s-.37-3.28-4.37-5.46C122.09,85.17,118.81,86.44,118.81,86.44Z" fill="url(#xcode-charcoal-linear-gradient-28)"/><path d="M114.26,94.09l-.36.73a13.32,13.32,0,0,1,6.91,2,13.82,13.82,0,0,1,4.92,4.74l.36-.73a13.82,13.82,0,0,0-4.91-4.74,15.32,15.32,0,0,0-6.92-2Z" fill="url(#xcode-charcoal-linear-gradient-29)"/><path d="M109.89,101.92l-.36.73a21.39,21.39,0,0,1,6.73,2.37,20,20,0,0,1,5.1,4.37l.36-.73a20.1,20.1,0,0,0-5.09-4.37A21.49,21.49,0,0,0,109.89,101.92Z" fill="url(#xcode-charcoal-linear-gradient-30)"/><path d="M105.34,109.57l-.37.73a29.66,29.66,0,0,1,6.56,2.73,28.05,28.05,0,0,1,5.28,4l.36-.73a27.66,27.66,0,0,0-5.28-4A37.44,37.44,0,0,0,105.34,109.57Z" fill="url(#xcode-charcoal-linear-gradient-31)"/><path d="M101,117.22l-.55.72a50.48,50.48,0,0,1,6.37,3.1,48.8,48.8,0,0,1,5.47,3.64l.36-.73a49.23,49.23,0,0,0-5.46-3.64c-2.91-1.64-6.19-3.09-6.19-3.09Z" fill="url(#xcode-charcoal-linear-gradient-32)"/><polygon points="96.05 125.77 96.42 125.04 108.25 131.78 107.89 132.51 96.05 125.77" fill="url(#xcode-charcoal-linear-gradient-33)"/><path d="M91.68,133.6l.37-.73a51.8,51.8,0,0,0,6,3.83c2.91,1.64,5.82,2.91,5.82,2.91l-.36.55a63,63,0,0,1-6-2.92,53.73,53.73,0,0,1-5.83-3.64Z" fill="url(#xcode-charcoal-linear-gradient-34)"/><path d="M88.77,142.52c-.91-.73-1.46-1.27-1.46-1.27l.37-.73s1.09.91,2.55,2Z" fill="#73b9f1"/><path d="M81.67,159.27A25,25,0,0,0,84,160.91a13.38,13.38,0,0,0,6.55,1.64l-.36.73a13.42,13.42,0,0,1-6.56-1.64,15.06,15.06,0,0,1-3.09-2.37Z" fill="url(#xcode-charcoal-linear-gradient-35)"/><path d="M73.84,164.37l.36-.73a10.09,10.09,0,0,0,4.92,5.83,9.3,9.3,0,0,0,6.92.91l-.37.73s-2.91,1.27-6.91-.91A9.77,9.77,0,0,1,73.84,164.37Z" fill="url(#xcode-charcoal-linear-gradient-36)"/><path d="M69.29,172.2l.36-.73a8.62,8.62,0,0,0,4.74,6.19,7.8,7.8,0,0,0,7.1.55l-.55.73s-2.73,2-7.1-.55c-4.55-2.55-4.55-6.19-4.55-6.19Z" fill="url(#xcode-charcoal-linear-gradient-37)"/><path d="M128.28,220.63,206.21,57l-19.67-9.29L105.34,217.9s2.55,1.28,5.82,2.73Z" fill="url(#xcode-charcoal-linear-gradient-38)"/><path d="M174.34,37.83l36.42,17.3v52.25c-12.56-6-96.68-46.06-96.68-46.06s5.82-12.2,11.29-23.49Z" fill="url(#radial-gradient)"/><path d="M84,213.35a7.32,7.32,0,0,0-1.28,4.37c.18,7.46,12.38,14.38,19.48,14.38,4.92,0,6.56-2,8.38-5.64S86,209,84,213.35Z" fill="url(#radial-gradient-2)"/><path d="M168,58.41s18.75,4.55,20.21,5.82-2.37,8.56-3.09,9.65c-6,7.28-24.77,47.52-24.77,47.52L143,111.57S158.5,82.8,164,72.61A42.81,42.81,0,0,0,168,58.41Z" fill="url(#xcode-charcoal-linear-gradient-39)"/><path d="M211.3,48.94c3.28,2.36,7.65,1.82,11.11,1.27,2.37-.36-1.27,3.1-5.28,11.11s-3.82,8.56-4.37,8-18.57-10.74-18-11.65c.72-.91,3.64-20.76,5.09-20.21,5.28,1.27,6.19,7.64,11.47,11.47Z" fill="url(#xcode-charcoal-linear-gradient-40)"/><path d="M183.27,71.33c1.27-2,7.1-14.38,16.38-14.38,4.19,0,12.2,10.56,12.93,12,.55,1.27-1.28,6.37-2.19,4-1.09-2.73-5.64-8.56-10.56-8.56s-11.65,5.65-13.29,7.65c-1.64,1.82-4.55,1.28-3.27-.73Z" fill="url(#xcode-charcoal-linear-gradient-41)"/><path d="M182.9,70.6c.91-1.45,5.1-7.82,7.1-9.83s7.1-7.28,11.47-8,8.92,8.19,7.47,10c-1.09,1.27-2.92-.19-5.1-2-2.19-1.64-3.64-4.91-10.56.37-2.37,1.82-4.73,3.27-10.2,11.1-1.45,2-1.09-.18-.18-1.64Z" fill="url(#xcode-charcoal-linear-gradient-42)"/><path d="M160.32,123.77c.73-1.46,1.64-3.64-.36-5.28-2.18-1.64-12.38-7.1-14.2-7.47s-3.28,0-4,1.28-56.62,97-57.71,99.77-1.28,4.74.36,5.29,20.39,9.46,22.21,11.47,2.73-.19,3.46-1.28C113.53,223.18,159.41,125.23,160.32,123.77Z" fill="url(#xcode-charcoal-linear-gradient-43)"/><path d="M184.18,70.24A99.43,99.43,0,0,1,190,62.05c1.82-2.19,11.65-6.92,13.84-14.57a9.31,9.31,0,0,0-3.46-10.19c-9.29-5.65-25.31-14.57-48.8-14.57C135.74,22.72,129,28,129,28h8l27.86,10.92,3.46,14.57a33.34,33.34,0,0,1-1.28,10.56C166,68.6,165.6,71.33,164,75.88c1.27.55,4.18-1.45,7.46-.54,2.91.73,4.73,4.73,6.74,2.37,3.46-4.56,4.55-5.47,6-7.47Z" fill="url(#xcode-charcoal-linear-gradient-44)"/><path d="M167.79,59c-1.46-13.47-4.73-26.22-39-26,2.18-2.19,7.46-4.37,7.46-4.37L128.83,28a6.15,6.15,0,0,1,3.27-1.09c20-1.64,37.87,2.55,36.6,28.58C168.52,59.68,168.15,61.5,167.79,59Z" fill="url(#xcode-charcoal-linear-gradient-45)"/><path d="M128.83,32.92c2.36-.91,5.64-1.46,11.83-1.1,7.65.37,17.3,3.28,21.3,6.92,2,1.82,1.82.37-.36-2-5.65-6.56-14.2-8-25.31-8.19-1.27-.19-5.46,2.18-7.46,4.37Z" fill="url(#xcode-charcoal-linear-gradient-46)"/><path d="M222.78,50.21l10,5.1a96,96,0,0,0-6.92,10.92,92.83,92.83,0,0,0-5.46,12.93l-9.65-5.82a107.83,107.83,0,0,1,5.82-12.93,102,102,0,0,1,6.2-10.2Z" fill="url(#xcode-charcoal-linear-gradient-47)"/><path d="M232.79,55.31c.73.36-1.64,6-5.1,12.56S221,79.53,220.41,79.16c-.73-.36,1.64-6,5.1-12.56,3.27-6.56,6.55-11.65,7.28-11.29Z" fill="#bfc0d0"/></svg>